<svg xmlns="http://www.w3.org/2000/svg" width="104.004" height="109.153" viewBox="0 0 104.004 109.153"><defs><style>.cls-1{fill:#f5ebdd}.cls-2{fill:#693544}</style></defs><g id="Group_92" transform="translate(1.874)"><path id="Path_9736" d="M42.723 13.315c-1.345 1.706-3.04 3-4.264 4.853-1.293 1.962-2.331 4.081-3.6 6.057a17.168 17.168 0 01-7.792 7.038 1.238 1.238 0 01-1.633-.848c-4.637 2.446-9.92 2.638-14.278 5.672-2.756 1.919-6.035 2.913-8.92.569a5.783 5.783 0 01-1.911-6.212 1.308 1.308 0 01-.251-1.317c.751-2.425 2.422-3.7 4.409-5.145a111.376 111.376 0 009.317-7.517A114.861 114.861 0 0028.318.451a1.533 1.533 0 011.844-.264C34.1 2.2 47.941 6.7 42.723 13.315z" class="cls-1" transform="translate(53.932 20.693)"/><g id="Group_55"><path id="Path_9737" d="M78.88 33.909c-1.188.938-2.347 1.917-3.571 2.8-2.6 1.885-5.184 3.8-7.863 5.561A63.854 63.854 0 0156 48.365a10.867 10.867 0 01-1.169.36c-.018.005-.133-.172-.112-.236a.538.538 0 01.219-.258c.876-.581 1.72-1.224 2.645-1.712a38.807 38.807 0 006.76-4.69 87.251 87.251 0 008.192-8.4c1.336-1.467 2.822-2.8 4.212-4.216a23.077 23.077 0 004.678-5.876 11.341 11.341 0 001.3-3.979 6.259 6.259 0 00.041-1.386 2.533 2.533 0 00-1.9-2.283c-.62-.172-1.238-.359-1.863-.508a3.058 3.058 0 01-2.321-1.931 10.816 10.816 0 00-1.126-1.76 2.805 2.805 0 00-2.749-1.19 6.46 6.46 0 00-.7.09 15.808 15.808 0 01-4.011.187 49.669 49.669 0 01-6.961-.854C60.114 9.5 59.073 9.312 58.074 9a7.943 7.943 0 00-3.789-.4 5.775 5.775 0 01-5.064-1.89c-.673-.646-1.2-1.442-1.857-2.106a58.854 58.854 0 00-3.18-3 7.216 7.216 0 00-1.655-.978 5.2 5.2 0 00-6.177.9A5.7 5.7 0 0132.8 3.241a1.844 1.844 0 00-1.733 1.492 5.707 5.707 0 00-.286 2.929c.492 2.165.966 4.334 1.444 6.5.126.57.241 1.143.361 1.715l.044.085-.014-.112c-.454-.436-.9-.879-1.362-1.307a2.635 2.635 0 00-4.127.273 24.191 24.191 0 00-1.663 2.675c-.292.5-.517 1.047-.759 1.579a3.307 3.307 0 01-2.949 2.138 15.839 15.839 0 00-2.427.34 6.488 6.488 0 00-3.207 1.711 14.666 14.666 0 00-3.985 7.49c-.286 1.309-.367 2.664-.532 4-.145 1.159-.249 2.325-.425 3.479a2.509 2.509 0 01-1.28 2.159 1.907 1.907 0 00-.6.632 18.518 18.518 0 01-4.9 4.453 19.3 19.3 0 00-2.29 1.9 4.822 4.822 0 00-1.434 4.649 11.97 11.97 0 001.9 4.484 69.228 69.228 0 002.566 3.777 3.388 3.388 0 01.328 4.082c-1 1.652-2.045 3.276-3.023 4.94-.71 1.208-1.354 2.457-2 3.7a4.789 4.789 0 00-.4 1.143 1.479 1.479 0 00.7 1.648 8.755 8.755 0 003.21 1.377 19.388 19.388 0 0013.32-1.732 34.747 34.747 0 009.01-6.606c2.329-2.32 4.431-4.833 6.641-7.253a59.094 59.094 0 016.3-6.354 24.726 24.726 0 015.626-3.207c.184-.083.584-.1.62-.019a1.127 1.127 0 01.109.811 2.41 2.41 0 01-.688.76c-.935.8-1.887 1.573-2.832 2.357a1.554 1.554 0 00-.268.227c-1.562 2.054-3.741 3.5-5.38 5.488s-3.165 4.037-4.6 6.178a59.79 59.79 0 00-7.037 14.03 23.581 23.581 0 00-1.535 6.824c-.037 1.165-.321 2.325-.326 3.487a29.5 29.5 0 00.272 4.548c.324 2.113 1.345 2.724 3.337 1.8a20.4 20.4 0 002.831-1.753c1.064-.724 2.09-1.5 3.132-2.262.141-.1.269-.229.418-.318 2.49-1.486 3.559-.962 4.993.874 1.468 1.878 2.62 4 4 5.95a30.231 30.231 0 003.379 4.243 6.783 6.783 0 006.944 1.845 16.782 16.782 0 015.059-.441 27.67 27.67 0 011.928.139 11.758 11.758 0 005.494-.835 20.988 20.988 0 006.985-4.3 3.948 3.948 0 00.837-.891c1.377-2.572 2.785-5.118 2.791-8.187 0-1.692.313-3.381.411-5.075a13.456 13.456 0 00-1.757-7.735 43.49 43.49 0 00-5.4-7.052c-.581-.65-1.273-1.2-1.886-1.822a1.862 1.862 0 01-.257-.6l-.7-.347-.359-.4a1.47 1.47 0 01-.146-.063.634.634 0 01-.091-.074l.206.166.361.395.708.346a37.525 37.525 0 013.578 1.4 52.652 52.652 0 018.866 5.3c1.744 1.376 3.51 2.724 5.249 4.105a13.225 13.225 0 004.067 2.032 2.885 2.885 0 003.59-1.074 44.742 44.742 0 015.194-5.694 32.785 32.785 0 002.432-2.745A11.615 11.615 0 00102 64.485q-.433-2.685-.8-5.38a18.28 18.28 0 01-.22-2.608c.02-2.1.058-4.213.19-6.313a11.479 11.479 0 00-.931-4.78 5.825 5.825 0 00-3.4-3.563 1.608 1.608 0 01-1.18-1.869 19.3 19.3 0 00.141-2.977 2.623 2.623 0 011.057-2.279 8.756 8.756 0 002.279-2.866 1.441 1.441 0 00.055-1.488c-.435-.761-.815-1.555-1.237-2.324a8.02 8.02 0 00-4.886-3.978c-1.568-.47-3.129-.961-4.708-1.392a6.289 6.289 0 01-3.7-2.464 4.193 4.193 0 00-.732-.753 2.27 2.27 0 00-.523-.259 3.087 3.087 0 00.08.655 4.849 4.849 0 00.342.61 5.939 5.939 0 003.841 3.1c1.577.442 3.161.858 4.726 1.337a6.9 6.9 0 014.576 3.534 9.375 9.375 0 00.769 1.381 1.768 1.768 0 01-.154 2.631c-.848.8-1.56 1.758-2.451 2.5a31.722 31.722 0 00-4.589 4.585c-1.3 1.64-2.336 3.486-3.468 5.254-.692 1.082-1.353 2.184-2.015 3.284a6.733 6.733 0 01-4.61 3.237c-1.891.378-3.81.641-5.728.862a22.018 22.018 0 00-9.4 3.164 11.514 11.514 0 01-4.284 1.944 6.981 6.981 0 01-4.38-.892 2.373 2.373 0 01-1.3-1.955 2.849 2.849 0 01-.041-.52c.049-.8.112-1.606.169-2.408.644-.275 1.279-.575 1.933-.821a80.83 80.83 0 0017.264-8.919 12.683 12.683 0 001.282-1.145l.006.006a4.619 4.619 0 00-.958.351 91.672 91.672 0 01-9.964 5.5c-2.683 1.287-5.439 2.423-8.177 3.592a5.984 5.984 0 01-1.692.414c-.183.019-.432-.294-.585-.5-.034-.046.177-.375.33-.439 1.238-.51 2.5-.968 3.736-1.477a61.715 61.715 0 0011.117-6.276 53.144 53.144 0 008.82-7.161c.159-.167.29-.363.434-.545zM52.493 50.227l.027-.031h-.415l-.174.266-.134-.17.331-.068c.124-.234.246-.224.365.003zm1.707 2.815l-.136-.259.106.286.055.085zm7.184 6.575l-1.059.3-.015.394a7.07 7.07 0 011.308.3c2.383 1.042 4.737 2.15 7.13 3.167a7.2 7.2 0 003.094 1.02l-.015.018a4.9 4.9 0 00-.917-.733c-2.5-1.155-5.009-2.277-7.514-3.413a5.753 5.753 0 01-.61-.341.254.254 0 01-.077-.147.606.606 0 01.249-.145 1.016 1.016 0 01.346.035c4.632 1 9.254 2.054 13.9 2.972a13.621 13.621 0 004.995.388c-.755-.1-1.539.007-2.264-.155a607.79 607.79 0 01-10.756-2.521 160.44 160.44 0 01-6.117-1.584 12.761 12.761 0 01-1.93-.9A17.929 17.929 0 0062.9 57.6a4.456 4.456 0 012.582-.251 104.889 104.889 0 0011.229.417c3.572-.009 7.145-.159 10.715-.3 1.907-.073 3.811-.249 5.717-.379A6.468 6.468 0 0091.4 56.9c-2.633.019-5.266.056-7.9.074-2.871.02-5.742.077-8.612.027-2.571-.045-5.142-.2-7.712-.335a13.578 13.578 0 01-1.5-.241c.111-.737.8-.759 1.283-1.028a.807.807 0 01.97-.014 1.315 1.315 0 00.8.093q6.637-.559 13.272-1.137c-2.039-.042-4.074.062-6.107.039-2.064-.024-4.125.385-6.454.034a12.706 12.706 0 014.059-1.186c2.029-.251 4.062-.49 6.078-.82a12.732 12.732 0 002.856-.8 8.713 8.713 0 003.967-3.822c1.117-1.855 2.211-3.727 3.4-5.531a18.516 18.516 0 014.946-5.364l.1-.075-.133.045c-.027 1.051-.056 2.1-.08 3.154-.019.821-.024.832-.852 1.02-.113.026-.234.018-.348.041a.869.869 0 00-.331.1 3.123 3.123 0 00-.367.344c.117.08.228.221.35.232a8.8 8.8 0 014.076 1.4 1.13 1.13 0 01.677 1.137 18.115 18.115 0 01-.641 3.427 12.6 12.6 0 00-.447 7.588 5.71 5.71 0 01-.529 4.559 3.337 3.337 0 00-.208 3.206c.844 1.858 1.741 3.693 2.614 5.538.273.577.524 1.165.812 1.734a1.561 1.561 0 01-.205 1.8c-.689.87-1.373 1.745-2.1 2.578C95.1 77.045 92.686 79.03 90.9 81.6a1.938 1.938 0 01-2.65.655 21.592 21.592 0 01-6.226-3.878 47.71 47.71 0 00-11.8-7.495 49.393 49.393 0 01-6.812-3.6 19.292 19.292 0 01-6.126-5.925 7.07 7.07 0 01-1.106-3.471c-.019-.366.23-.543.561-.367a6.667 6.667 0 01.816.6l3.8 1.536a1.066 1.066 0 01.318.017c.049.017.065.128.1.2-.053-.007-.12.005-.156-.024a2.345 2.345 0 01-.235-.231zm-5.945-.185c-.591-.772-1.229-1.514-1.759-2.326-.406-.624-.241-1.026.455-1.352.134-.063.51.057.543.164a10.245 10.245 0 01.733 3.539l.048.122zM43.418 46.119a9.415 9.415 0 01-3.069-1.978 19.332 19.332 0 01-4.7-6.481 21.352 21.352 0 01-1.966-5.42 35.478 35.478 0 01-.1-10.293c.007-.078.115-.147.176-.221.084.072.209.127.243.217a8.556 8.556 0 01.383 1.166c.253 1.14.415 2.3.723 3.429 1.014 3.708 1.725 7.506 3.285 11.055A26.756 26.756 0 0042.9 45.27a4.269 4.269 0 01.492.875l.1.019zm11.544 59.868c-.125.066-.248.137-.378.191-.016.008-.068-.069-.1-.107l.414-.166 2.752-4.466c.091-.15.182-.3.286-.441.688-.93.813-1 1.9-.646 1.054.339 2.106.7 3.122 1.134a2.656 2.656 0 002.206.02 11.526 11.526 0 013.235-.732c.982-.122 1.954-.324 2.932-.477a1.939 1.939 0 01.487.051c-.057.151-.071.349-.177.446a20.97 20.97 0 01-6.334 4.283 13.452 13.452 0 01-6.5 1.062c-1.271-.139-2.562-.106-3.845-.152zM19.733 22.619a.36.36 0 01.032-.134c.016-.021.073-.013.111-.018l-.148.146c-.109.776-.772 1.139-1.241 1.639a7.733 7.733 0 00-2.436 5.813c.036.759-.018 1.521-.023 2.282a9.478 9.478 0 01-.8 3.748 5.029 5.029 0 00-.286 3.237c.425 1.758.794 3.53 1.188 5.295.051.228.11.455.156.684a.867.867 0 01-.625 1.088c-.979.387-1.969.762-2.907 1.236a6.774 6.774 0 00-3.566 4.755 20.444 20.444 0 00-.467 4.178A10.673 10.673 0 017.3 61.221c-.1.188-.329.363-.526.06q-1.865-2.865-3.717-5.739a8.84 8.84 0 01-.62-1.061C1.069 51.51.883 48.914 4.215 46.717A19.8 19.8 0 0010 41.679a5.276 5.276 0 01.886-.847 3.067 3.067 0 001.1-1.939c.251-2.026.554-4.049.752-6.08a15.057 15.057 0 013.316-8.149 4.375 4.375 0 013.679-2.045zm.567 32.4c.565-.121 1.142-.2 1.694-.369 1.343-.4 2.669-.859 4.011-1.261a89.6 89.6 0 0110.565-2.42c1.134-.194 2.3-.223 3.841-.363-.741.447-1.115.72-1.526.913a77.029 77.029 0 00-12.012 7.145 7.728 7.728 0 00-2.466 2.136l-.027-.031a5.706 5.706 0 00.927-.434 105.947 105.947 0 0113.336-7.757 15.614 15.614 0 014.594-1.71 11.97 11.97 0 011.569-.086c.056 0 .124.122.165.2.011.02-.052.1-.1.126-.205.106-.414.21-.626.3a23.166 23.166 0 00-6.029 3.535c-3.62 3.081-6.53 6.83-9.709 10.321a44.077 44.077 0 01-9.8 8.411A19.447 19.447 0 015.1 76.437a15.152 15.152 0 01-3.185-.949c-1.048-.43-1.241-.9-.712-1.928.99-1.917 2.1-3.77 3.179-5.641a42.106 42.106 0 002.181-3.8 31.033 31.033 0 011.606-3.3 8.952 8.952 0 001.295-4.5 23.961 23.961 0 01.367-3.3A6.264 6.264 0 0114.2 47.8c.606-.221 1.225-.42 1.8-.7a1.593 1.593 0 001.035-1.984c-.062-.4-.181-.8-.27-1.2-.292-1.315-.619-2.623-.859-3.946a5.833 5.833 0 01.1-3.465 14.391 14.391 0 001-5.824c0-.586.033-1.172.023-1.757a3.432 3.432 0 01.74-2.292c1.024-1.278 2.011-2.587 3.088-3.819a2.222 2.222 0 011.343-.723 3.866 3.866 0 003.193-2.416c.72-1.34 1.459-2.673 2.26-3.965a1.954 1.954 0 013.328-.233 5.982 5.982 0 011.536 3.288 25.327 25.327 0 01.108 3.493A39.175 39.175 0 0032.55 31a16.263 16.263 0 00.9 3.713 42.864 42.864 0 001.753 4.193 18.8 18.8 0 003.505 5.005 16.132 16.132 0 006.333 4 10.473 10.473 0 011.717.846.306.306 0 01.071.283c-.036.09-.176.221-.241.206a11.463 11.463 0 01-2.182-.57c-1.808-.824-3.624-1.651-5.342-2.642-3.494-2.015-6.923-4.142-10.385-6.214a8.4 8.4 0 00-.939-.424l.026-.025a10.825 10.825 0 003.213 2.609c2.819 1.851 5.685 3.63 8.531 5.439l.067.124-.036-.153A7.978 7.978 0 0138 47.2c-3.546-1.148-7.075-2.342-10.619-3.5-1.768-.577-3.553-1.1-5.33-1.651l.024-.028a3.7 3.7 0 002.066 1.179c2.9 1.112 5.8 2.221 8.734 3.216 2.548.863 5.145 1.581 7.728 2.342.845.249 1.71.432 2.729.685-2.533.229-4.87.374-7.186.674-1.328.172-2.615.629-3.933.9a65.129 65.129 0 00-10.552 3.26 9.892 9.892 0 00-1.337.776zm32.956-6.889l-.09.041.113-.012a5.251 5.251 0 01.292-.783c.542-.966 1.156-1.893 1.652-2.88q2.16-4.292 4.237-8.625a9.8 9.8 0 00.469-1.66l.028.025c-.972.826-1.245 2.071-1.829 3.122-1.529 2.753-2.942 5.57-4.448 8.336a17.981 17.981 0 01-1.5 2.136c-.067.089-.293.057-.446.081-.012-.159-.085-.346-.025-.471.68-1.419 1.46-2.795 2.062-4.245 1.6-3.875 3.051-7.806 4.37-11.795.97-2.931 1.84-5.9 2.825-8.823a15.032 15.032 0 00.4-2.045l.026.024a2.88 2.88 0 00-.471.655c-.608 1.705-1.185 3.421-1.779 5.13-.248.714-.524 1.419-.772 2.133-.786 2.266-1.535 4.545-2.355 6.8q-1.08 2.967-2.287 5.887c-.806 1.944-1.693 3.856-2.549 5.78a.974.974 0 01-.212.269c-.036.037-.119.075-.154.057-.087-.043-.224-.116-.226-.18a11.329 11.329 0 01.019-1.579c.3-2.5.541-5.014.974-7.493.645-3.689 1.443-7.35 2.156-11.027.2-1.032.331-2.077.493-3.116l.025.025a2.816 2.816 0 00-.46.668 29.397 29.397 0 00-.605 2.189c-.572 2.386-1.219 4.758-1.671 7.165a81.432 81.432 0 00-1.472 11.291 9.32 9.32 0 01-.226 1.381c-.014.074-.16.188-.208.172a.533.533 0 01-.234-.221 1.054 1.054 0 01-.135-.322c-.688-2.835-1.437-5.656-2.042-8.509-.871-4.108-1.633-8.24-2.46-12.358a2.494 2.494 0 00-.411-.693l.017-.013c-.3 1.486.2 2.906.431 4.335q.74 4.671 1.71 9.3a56.261 56.261 0 002.05 8.53 1.988 1.988 0 01.141.679.424.424 0 01-.566.465 4.561 4.561 0 01-1.145-.431 13.916 13.916 0 01-3.989-3.383 33.267 33.267 0 01-5.013-9.982 56.019 56.019 0 01-1.44-5.585c-1.1-4.6-2.159-9.213-3.255-13.815-.42-1.762-.942-3.5-1.325-5.271a9.3 9.3 0 01-.165-4.328 1.1 1.1 0 011.034-.991 6.223 6.223 0 003.749-1.735c.251-.24.583-.393.853-.617a3.915 3.915 0 013.965-.653 10.5 10.5 0 012.619 1.36 18.1 18.1 0 013.451 3.472 16.8 16.8 0 002.028 2.147 6.166 6.166 0 004.752 1.406 4.546 4.546 0 013.1.9 16.409 16.409 0 004.643 2.019 7.223 7.223 0 014.9 4.172c.255.588.636 1.122.9 1.709a3.551 3.551 0 002.861 2.05c1.666.315 3.332.645 4.978 1.051a8.568 8.568 0 005.017.072.545.545 0 01.47.068.486.486 0 01.017.449 19.509 19.509 0 01-3.335 4.707c-1.575 1.56-3.2 3.074-4.72 4.683-1.848 1.953-3.534 4.064-5.439 5.957-1.944 1.932-4.025 3.733-6.124 5.5-2.422 2.036-5.521 3.062-7.905 5.174-.075.069-.225.051-.339.073zM39.2 60.118l.05-.066-.074.04c.038.171.02.4.124.5.316.314.374-.122.46-.24a24.229 24.229 0 012-2.847 41.068 41.068 0 013.448-2.936c.663-.55.706-.5 1.235.112.743.866.782.832.258 1.9-.231.468-.472.931-.7 1.4a99.742 99.742 0 00-5.248 14.064c-.694 2.28-1.164 4.632-1.647 6.97A5.684 5.684 0 0039 81.936l-.031-.025a5.842 5.842 0 00.477-1.093 101.825 101.825 0 014.2-14.632c.351-.928.751-1.841 1.035-2.789a44.6 44.6 0 012.9-6.752 2.985 2.985 0 01.507-.709.629.629 0 01.995.276 2.127 2.127 0 01.038.865c-.338 1.6-.706 3.19-1.066 4.784-1.376 6.039-2.755 12.065-4.09 18.107-.25 1.132-.305 2.308-.45 3.464l-.031-.029a4.345 4.345 0 00.457-.908c.824-3.464 1.611-6.936 2.432-10.4 1.091-4.605 2.3-9.185 3.153-13.843a8.208 8.208 0 01.515-1.479.325.325 0 01.287-.136c.147.041.367.137.39.246a5.694 5.694 0 01.087 1.04c.032 1.229.04 2.459.085 3.688.137 3.842.521 7.675-.053 11.526-.309 2.074-.335 4.189-.5 6.285-.1 1.341-.2 2.682-.33 4.022-.172 1.806-.382 3.609-.549 5.416-.069.749-.068 1.5-.1 2.255A3.507 3.507 0 0050 88.861c.43-4.012 1.285-7.969 1.479-12.013a19.326 19.326 0 00.2-3.66 1.554 1.554 0 01.03-.526 25.737 25.737 0 00.177-6.974c-.1-1.63-.02-3.272-.02-4.908-.082-.319-.177-.636-.237-.959-.017-.09.067-.2.1-.3a.84.84 0 01.1.254c.011.341 0 .684 0 1.026a21.5 21.5 0 01.875 2.97c.677 4.553 1.275 9.119 1.9 13.679.124.9.264 1.79.4 2.685a27.731 27.731 0 00-.166-7.509c-.351-3.9-1.1-7.734-1.84-11.572-.264-1.372-.447-2.76-.667-4.141l-.075-.052.058.046a6.071 6.071 0 01.4.575 26.742 26.742 0 004.5 5.8c2.711 2.75 5.586 5.338 8.407 7.98a40.9 40.9 0 017.593 9.147 12.178 12.178 0 011.576 6.9 90.942 90.942 0 01-.46 5.758 17.86 17.86 0 01-.645 3.261 4.45 4.45 0 01-3.878 3.348c-.638.087-1.285.128-1.916.246a12.981 12.981 0 00-2.548.591 3.38 3.38 0 01-3.024-.2 16.433 16.433 0 00-2.274-.921 2.279 2.279 0 00-2.768.937c-.24.331-.434.695-.653 1.042-.562.889-1.091 1.8-1.7 2.661a5.576 5.576 0 01-7.162 1.845 7.735 7.735 0 01-3.182-2.664c-.521-.774-1.107-1.506-1.62-2.285-.738-1.122-1.4-2.3-2.161-3.4a38.43 38.43 0 00-2.835-3.786 3.635 3.635 0 00-4.5-.837 9.335 9.335 0 00-1.5.913c-1.426 1.02-2.812 2.1-4.257 3.086a11.188 11.188 0 01-2.17 1.129.958.958 0 01-1.35-.724 4.191 4.191 0 01-.084-.52 26.519 26.519 0 01.108-9.068 48.819 48.819 0 016.555-16.731c.332-.552.712-1.074 1.048-1.624a51.776 51.776 0 016.086-8.15 13.243 13.243 0 011.3-1.098zm39-39c-.963-.169-1.77-.292-2.57-.456-1.542-.315-3.07-.719-4.623-.96a3.306 3.306 0 01-2.582-1.851 60.098 60.098 0 00-1.764-3.027 5.287 5.287 0 00-2.461-2.168c-.752-.319-1.522-.6-2.284-.892-.543-.211-1.089-.413-1.625-.641a.338.338 0 01-.129-.286c.008-.063.162-.161.241-.153.87.095 1.74.191 2.606.317a28.3 28.3 0 009.063.329 8.021 8.021 0 011.05-.071 2.293 2.293 0 012.15 1.241c.151.248.252.526.384.788.744 1.47 1.714 2.647 3.511 2.822a5.149 5.149 0 011 .321c1.587.51 1.83.928 1.715 2.546a1.694 1.694 0 01-1.418 1.717c-.793.181-1.598.3-2.264.422zm18.851 31.089l.128-.011c.009-.352.014-.7.028-1.054.085-2.077 1.256-3.889 1.453-5.941.008-.079.127-.146.194-.219.079.08.194.146.232.243.741 1.847 1.491 3.689.958 5.758a5.123 5.123 0 00-.111 1.4c.038 1.457.17 2.915.154 4.371a29.165 29.165 0 00.75 6.088 17.324 17.324 0 01.106 5.423 5.25 5.25 0 01-.428 1.323c-.055.135-.238.227-.38.308-.022.012-.165-.139-.213-.234-.922-1.822-1.852-3.643-2.761-5.473a4.363 4.363 0 01-.01-4.623 4.826 4.826 0 00.368-4.071 22.393 22.393 0 01-.468-3.288zm-47.259 1.421l-.276-.149a.8.8 0 01.29-.1.82.82 0 01.28.138zm1.573-4.42l-.08.143a1.323 1.323 0 01-.243-.208c-.015-.019.079-.122.123-.187zm-2.331 1.484a.567.567 0 01-.145.034c-.016 0-.03-.062-.045-.095a.526.526 0 01.144-.033c.012.002.031.061.046.094zm19.577 4.042l-.011-.115.15.043zM46.9 54.025a.455.455 0 01-.032-.129c0-.014.054-.027.084-.041a.479.479 0 01.03.129c.003.016-.05.027-.082.041z" class="cls-2"/><path id="Path_9738" d="M11.237.031c-.455.082-.913.144-1.362.249C7.434.857 5 1.467 2.551 2.01a9.425 9.425 0 01-1.9.091C.4 2.1.03 1.8 0 2.278c-.01.161.351.428.586.5a2.785 2.785 0 001.2.155A34.279 34.279 0 0011.143.159c.039-.019.046-.1.068-.159z" class="cls-2" transform="translate(56.736 50.25)"/><path id="Path_9739" d="M0 1.039A.919.919 0 00.7 0l.024.025-.716 1.023z" class="cls-2" transform="translate(79.322 32.614)"/><path id="Path_9740" d="M.737.035l-.71.334L0 .338.706 0z" class="cls-2" transform="translate(67.946 49.912)"/><path id="Path_9741" d="M.731.032L.03.384 0 .35.7 0z" class="cls-2" transform="translate(68.653 49.562)"/><path id="Path_9742" d="M.754.008L.03.324 0 .292.737 0z" class="cls-2" transform="translate(69.354 49.271)"/><path id="Path_9743" d="M.45.009L0 .257l.157.166L.441 0z" class="cls-2" transform="translate(78.881 33.652)"/><path id="Path_9744" d="M.4.033L.028.379 0 .353.371 0z" class="cls-2" transform="translate(80.018 32.26)"/><path id="Path_9745" d="M0 .123L.181 0C.15.008.107.005.091.025a.594.594 0 00-.061.13z" class="cls-2" transform="translate(80.389 32.138)"/><path id="Path_9746" d="M0 .034L.072 0 .026.062z" class="cls-2" transform="translate(77.422 39.175)"/><path id="Path_9747" d="M.408.028L.033.373 0 .34.382 0z" class="cls-2" transform="translate(77.04 39.209)"/><path id="Path_9748" d="M0 .364L.35 0l.033.034L.025.39z" class="cls-2" transform="translate(76.69 39.549)"/><path id="Path_9749" d="M.377.026L0 .359.352 0z" class="cls-2" transform="translate(76.338 39.913)"/><path id="Path_9750" d="M.364 0L.006.346 0 .341.363 0z" class="cls-2" transform="translate(75.975 40.272)"/><path id="Path_9751" d="M0 .039L.07 0 .017.046z" class="cls-2" transform="translate(70.091 49.232)"/><path id="Path_9752" d="M28.081 6.6c0 1.636-.083 3.278.02 4.908a25.735 25.735 0 01-.177 6.974 1.554 1.554 0 00-.03.526 19.326 19.326 0 01-.2 3.66c-.194 4.044-1.049 8-1.479 12.013a3.507 3.507 0 01-.641 2.251c.031-.752.03-1.507.1-2.255.167-1.807.378-3.61.549-5.416.128-1.339.227-2.68.33-4.022.161-2.1.187-4.211.5-6.285.575-3.851.19-7.684.053-11.526-.045-1.229-.052-2.459-.085-3.688a5.687 5.687 0 00-.087-1.04c-.023-.109-.242-.205-.39-.246a.325.325 0 00-.287.136 8.211 8.211 0 00-.515 1.479c-.858 4.659-2.062 9.238-3.153 13.843-.821 3.465-1.608 6.937-2.432 10.4a4.341 4.341 0 01-.457.908c.012.275.035.552.026.826 0 .072-.107.14-.163.211-.049-.089-.157-.194-.137-.261.079-.256.2-.5.305-.748.145-1.156.2-2.331.45-3.464 1.333-6.041 2.714-12.072 4.078-18.107.361-1.594.728-3.186 1.066-4.784a2.126 2.126 0 00-.038-.865.629.629 0 00-.995-.276 2.985 2.985 0 00-.507.709 44.592 44.592 0 00-2.9 6.752c-.284.948-.684 1.862-1.035 2.789a101.813 101.813 0 00-4.2 14.632 5.844 5.844 0 01-.477 1.093c.018.958.238 1.948-.424 2.8a1.11 1.11 0 01.019.347 1.808 1.808 0 01-.188.369 1.716 1.716 0 01-.045-.477c.014-.083.157-.144.243-.215 0-.724-.037-1.451.014-2.172.016-.22.268-.423.411-.633a5.683 5.683 0 01.117-2.919c.483-2.337.953-4.69 1.647-6.97A99.742 99.742 0 0122.224 3.8c.225-.472.466-.935.7-1.4.525-1.067.485-1.033-.258-1.9-.528-.616-.571-.662-1.235-.112a41.067 41.067 0 00-3.45 2.932 24.23 24.23 0 00-2 2.847c-.085.118-.144.554-.46.24-.1-.1-.086-.33-.124-.5l.025.026a13.251 13.251 0 00-1.3 1.1 51.78 51.78 0 00-6.066 8.153c-.335.55-.716 1.072-1.048 1.624a48.818 48.818 0 00-6.56 16.729 26.518 26.518 0 00-.108 9.068 4.19 4.19 0 00.084.52.958.958 0 001.35.724 11.187 11.187 0 002.17-1.129c1.445-.99 2.832-2.066 4.257-3.086a9.334 9.334 0 011.5-.913 3.635 3.635 0 014.5.837 38.443 38.443 0 012.835 3.786c.765 1.1 1.423 2.279 2.161 3.4.513.779 1.1 1.511 1.62 2.285a7.735 7.735 0 003.182 2.664 5.576 5.576 0 007.162-1.845c.606-.859 1.135-1.772 1.7-2.661.219-.347.413-.711.653-1.042a2.279 2.279 0 012.768-.937 16.44 16.44 0 012.274.921 3.38 3.38 0 003.024.2 12.982 12.982 0 012.548-.591c.631-.117 1.278-.159 1.916-.246a4.45 4.45 0 003.878-3.348 17.859 17.859 0 00.645-3.261c.212-1.913.37-3.836.46-5.758a12.178 12.178 0 00-1.576-6.9 40.9 40.9 0 00-7.593-9.147c-2.821-2.642-5.7-5.23-8.407-7.98a26.741 26.741 0 01-4.5-5.8 6.074 6.074 0 00-.4-.575l.017.006c.22 1.381.4 2.768.667 4.141.736 3.838 1.489 7.674 1.84 11.572a27.732 27.732 0 01.166 7.509c-.133-.895-.272-1.788-.4-2.685-.63-4.56-1.228-9.125-1.9-13.679a21.5 21.5 0 00-.875-2.97zm-2.608 31.622a4.23 4.23 0 01-.019.562 1.771 1.771 0 01-.13.311 1.281 1.281 0 01-.141-.288.885.885 0 01.005-.34c.041-.217.1-.431.151-.646z" class="cls-1" transform="translate(23.785 54.185)"/><path id="Path_9753" d="M22.641 22.967c-.162 1.039-.293 2.085-.493 3.116-.713 3.677-1.512 7.338-2.157 11.027-.433 2.479-.672 4.992-.974 7.493A11.32 11.32 0 0019 46.182c0 .064.139.137.226.18.035.018.117-.02.154-.057a.974.974 0 00.212-.269c.856-1.924 1.743-3.836 2.549-5.78s1.567-3.909 2.287-5.887c.82-2.254 1.569-4.533 2.355-6.8.248-.714.523-1.419.772-2.133.594-1.71 1.17-3.425 1.779-5.13a2.88 2.88 0 01.471-.655 4.873 4.873 0 01.761-2.819c.008-.17.012-.34.029-.508a.507.507 0 01.072-.154c.049.088.157.2.134.257a1.82 1.82 0 01-.265.379 4.962 4.962 0 01-.757 2.821 15.023 15.023 0 01-.4 2.045c-.985 2.927-1.855 5.892-2.825 8.823a171.416 171.416 0 01-4.371 11.795c-.6 1.45-1.382 2.826-2.062 4.245-.06.124.014.312.025.471.153-.024.379.008.446-.081a17.967 17.967 0 001.5-2.136c1.506-2.767 2.92-5.583 4.448-8.336.584-1.051.857-2.3 1.829-3.122.016-.29-.018-.606.371-.7l.357-.689-.024-.025-.362.688-.369.7a9.809 9.809 0 01-.469 1.66Q25.8 39.3 23.641 43.591c-.5.987-1.11 1.914-1.652 2.88a5.257 5.257 0 00-.292.783l-.024-.03c.114-.022.264 0 .339-.071 2.384-2.112 5.483-3.138 7.905-5.174 2.1-1.766 4.18-3.567 6.124-5.5 1.9-1.893 3.591-4 5.439-5.957 1.52-1.606 3.146-3.122 4.72-4.68a19.509 19.509 0 003.335-4.707.486.486 0 00-.017-.449.545.545 0 00-.47-.068 8.568 8.568 0 01-5.017-.072c-1.646-.406-3.312-.736-4.978-1.051a3.551 3.551 0 01-2.859-2.051c-.262-.586-.643-1.121-.9-1.709a7.222 7.222 0 00-4.9-4.172 16.41 16.41 0 01-4.643-2.019 4.545 4.545 0 00-3.1-.9A6.166 6.166 0 0117.9 7.235 16.8 16.8 0 0115.863 5.1a18.1 18.1 0 00-3.451-3.472A10.5 10.5 0 009.793.264a3.915 3.915 0 00-3.965.653c-.27.224-.6.377-.853.617a6.223 6.223 0 01-3.748 1.735 1.1 1.1 0 00-1.034.991 9.3 9.3 0 00.165 4.329c.383 1.769.905 3.509 1.325 5.271 1.1 4.6 2.16 9.213 3.255 13.815a56 56 0 001.44 5.585 33.267 33.267 0 005.013 9.982 13.915 13.915 0 003.989 3.383 4.56 4.56 0 001.145.431.424.424 0 00.566-.465 1.988 1.988 0 00-.141-.679 56.254 56.254 0 01-2.05-8.53q-.972-4.628-1.71-9.3c-.226-1.429-.727-2.849-.431-4.335a5.619 5.619 0 01-.629-3.515c-.541-.65-.237-1.414-.29-2.129-.111-.373-.235-.743-.323-1.121-.018-.075.1-.183.158-.275.059.069.169.138.17.208 0 .4-.018.805-.03 1.208.546.652.352 1.4.283 2.134a5.06 5.06 0 01.644 3.5 2.494 2.494 0 01.411.693c.827 4.118 1.589 8.25 2.46 12.358.605 2.853 1.355 5.674 2.042 8.509a1.051 1.051 0 00.135.322.532.532 0 00.234.221c.048.016.194-.1.208-.172a9.317 9.317 0 00.226-1.381 81.431 81.431 0 011.472-11.293c.452-2.408 1.1-4.78 1.671-7.165.177-.736.372-1.47.605-2.189a2.812 2.812 0 01.461-.668 4.434 4.434 0 01.062-.522 3.987 3.987 0 01.169-.479 2.5 2.5 0 01-.032.505 2.716 2.716 0 01-.225.471zm6.824 7.884a.479.479 0 01-.04.141c-.014.022-.066.019-.1.029l.167-.141.357-1.037.063-.076-.092.046c-.089.356.125.816-.354 1.038zM11.29 14.354h.2c.024.323.06.645.064.968 0 .1-.086.194-.133.292-.051-.089-.143-.176-.145-.265-.015-.334.005-.664.014-.995z" class="cls-1" transform="translate(31.582 .909)"/><path id="Path_9754" d="M23.489 46.143a7.728 7.728 0 012.465-2.133 77.028 77.028 0 0112.012-7.145c.412-.193.785-.466 1.526-.913-1.544.14-2.707.169-3.841.363a89.607 89.607 0 00-10.564 2.425c-1.343.4-2.669.859-4.011 1.261-.553.166-1.129.248-1.694.369-.1.4-.394.395-.711.338l-.688.349-.777.3-.657.357-.055.047.071-.041.672-.328.772-.305c.068-.422.391-.357.68-.355.086-.442.42-.347.717-.33a9.809 9.809 0 011.337-.777A65.129 65.129 0 0131.3 36.366c1.317-.272 2.605-.729 3.933-.9 2.316-.3 4.653-.445 7.186-.674-1.019-.254-1.884-.436-2.729-.685-2.582-.761-5.18-1.479-7.728-2.342-2.938-1-5.838-2.1-8.734-3.216a3.7 3.7 0 01-2.064-1.174c-.4.009-.808.065-1.052-.364l-.328-.177c.043-.009.109-.041.124-.024a2.129 2.129 0 01.175.232 1.012 1.012 0 011.057.363c1.777.549 3.562 1.074 5.33 1.651 3.543 1.156 7.073 2.351 10.619 3.5a7.977 7.977 0 001.542.189l-.03.029c-2.847-1.808-5.712-3.588-8.531-5.439a10.825 10.825 0 01-3.213-2.609l-.357-.377-.032.032.363.37a8.4 8.4 0 01.939.424c3.461 2.072 6.89 4.2 10.385 6.214 1.718.99 3.535 1.818 5.342 2.642a11.462 11.462 0 002.182.57c.065.015.205-.116.241-.206a.306.306 0 00-.071-.283 10.474 10.474 0 00-1.717-.846 16.132 16.132 0 01-6.333-4 18.8 18.8 0 01-3.505-5.005 42.868 42.868 0 01-1.753-4.193 16.26 16.26 0 01-.9-3.713 39.175 39.175 0 01.076-8.743 25.323 25.323 0 00-.117-3.5A5.982 5.982 0 0030.063.824a1.954 1.954 0 00-3.328.233 74.455 74.455 0 00-2.26 3.965 3.866 3.866 0 01-3.193 2.416 2.222 2.222 0 00-1.339.722c-1.077 1.231-2.064 2.541-3.088 3.819a3.433 3.433 0 00-.74 2.292c.01.585-.021 1.17-.023 1.757a14.391 14.391 0 01-1 5.824 5.832 5.832 0 00-.1 3.465c.239 1.323.567 2.631.859 3.946.089.4.208.8.27 1.2a1.593 1.593 0 01-1.035 1.984c-.58.277-1.2.476-1.8.7a6.264 6.264 0 00-4.372 5.214 23.956 23.956 0 00-.367 3.3 8.951 8.951 0 01-1.295 4.5 31.046 31.046 0 00-1.606 3.3 42.105 42.105 0 01-2.181 3.8c-1.077 1.876-2.19 3.73-3.181 5.646-.529 1.024-.336 1.5.712 1.928a15.152 15.152 0 003.185.949 19.447 19.447 0 0013.609-2.769 44.076 44.076 0 009.8-8.411c3.179-3.492 6.089-7.24 9.709-10.321a23.167 23.167 0 016.029-3.535c.212-.091.421-.194.626-.3.045-.024.108-.106.1-.126-.041-.077-.109-.2-.165-.2a11.972 11.972 0 00-1.569.086 15.613 15.613 0 00-4.594 1.71 105.946 105.946 0 00-13.336 7.757 5.706 5.706 0 01-.927.434l-1.068.656-.395.378-.034.058.06-.03.395-.377c.279-.335.555-.694 1.068-.651z" class="cls-1" transform="translate(.919 14.652)"/><path id="Path_9755" d="M1.378 21.256a6.677 6.677 0 00-.816-.6c-.331-.177-.58 0-.561.367a7.07 7.07 0 001.106 3.471 19.293 19.293 0 006.126 5.925 49.393 49.393 0 006.812 3.6 47.713 47.713 0 0111.8 7.495 21.591 21.591 0 006.226 3.878 1.939 1.939 0 002.65-.655c1.79-2.566 4.2-4.551 6.243-6.877.732-.833 1.416-1.709 2.1-2.578a1.561 1.561 0 00.205-1.8c-.288-.569-.539-1.157-.812-1.734-.873-1.846-1.769-3.68-2.614-5.538a3.337 3.337 0 01.208-3.206 5.711 5.711 0 00.529-4.559 12.6 12.6 0 01.447-7.588 18.111 18.111 0 00.641-3.427 1.13 1.13 0 00-.674-1.13 8.8 8.8 0 00-4.076-1.4c-.122-.01-.233-.151-.35-.232a3.125 3.125 0 01.367-.344.868.868 0 01.331-.1c.114-.023.235-.014.348-.041.828-.188.832-.2.852-1.02.025-1.051.053-2.1.08-3.154l.03.03a18.515 18.515 0 00-4.946 5.364c-1.194 1.8-2.288 3.676-3.4 5.531a8.713 8.713 0 01-3.979 3.825 12.732 12.732 0 01-2.856.8c-2.016.33-4.049.569-6.078.82a12.706 12.706 0 00-4.059 1.186c2.328.352 4.39-.057 6.454-.034 2.033.023 4.068-.081 6.107-.039q-6.636.572-13.272 1.137a1.315 1.315 0 01-.8-.093.807.807 0 00-.97.014c-.484.269-1.172.291-1.283 1.028a13.578 13.578 0 001.5.241c2.57.132 5.14.29 7.712.335 2.87.05 5.741-.007 8.612-.027 2.632-.019 5.265-.055 7.9-.074a6.468 6.468 0 011.746.183c-1.906.13-3.809.307-5.717.379-3.57.138-7.143.287-10.715.3A104.9 104.9 0 019.3 20.486a4.456 4.456 0 00-2.582.251 17.923 17.923 0 01-1.766.679 12.761 12.761 0 001.93.9c2.026.575 4.07 1.09 6.117 1.584 3.58.864 7.162 1.72 10.756 2.521.725.161 1.509.059 2.264.155a13.621 13.621 0 01-5-.388c-4.648-.918-9.27-1.972-13.9-2.972a1.016 1.016 0 00-.347-.035.607.607 0 00-.249.145.254.254 0 00.077.147 5.759 5.759 0 00.61.341c2.506 1.137 5.018 2.258 7.514 3.413a4.9 4.9 0 01.917.733 5.173 5.173 0 012.784 1.14l.437.149c-.04.037-.112.11-.115.107-.1-.09-.2-.188-.293-.286a3.974 3.974 0 01-2.789-1.126 7.2 7.2 0 01-3.094-1.02c-2.393-1.017-4.747-2.125-7.13-3.167a7.068 7.068 0 00-1.308-.3l.03-.03A16.373 16.373 0 005.822 24.9a114.475 114.475 0 0011.522 6.943c3.261 1.7 6.494 3.436 9.914 4.8a2.172 2.172 0 01.5.414l2.2.511c.113.026.226.051.341.075a1.6 1.6 0 01-.43.079 3.311 3.311 0 01-2.128-.645 13.556 13.556 0 01-1.85-.428 84.048 84.048 0 01-10.644-4.9c-2.647-1.449-5.177-3.13-7.781-4.678a56.906 56.906 0 01-6.46-4.794 2.838 2.838 0 01-.455-.526c-.21-.281-.087-.5.332-.565a2.127 2.127 0 01.516.05zm18.295 8.45l-.054-.082.091-.01z" class="cls-1" transform="translate(56.177 36.858)"/><path id="Path_9756" d="M18.221.006a4.375 4.375 0 00-3.674 2.045 15.058 15.058 0 00-3.316 8.149c-.2 2.031-.5 4.054-.752 6.08a3.067 3.067 0 01-1.1 1.939 5.275 5.275 0 00-.886.847A19.8 19.8 0 012.7 24.1C-.628 26.3-.443 28.9.926 31.869a8.84 8.84 0 00.62 1.061Q3.4 35.8 5.264 38.668c.2.3.431.128.526-.06a10.673 10.673 0 001.422-4.652 20.439 20.439 0 01.467-4.178 6.774 6.774 0 013.566-4.755c.938-.474 1.928-.849 2.907-1.236a.867.867 0 00.625-1.088c-.046-.229-.106-.456-.156-.684-.394-1.765-.763-3.537-1.188-5.295a5.028 5.028 0 01.286-3.237 9.478 9.478 0 00.8-3.748c.005-.761.059-1.524.023-2.282a7.732 7.732 0 012.432-5.813c.47-.5 1.132-.863 1.241-1.639z" class="cls-1" transform="translate(1.512 22.613)"/><path id="Path_9757" d="M18.043 10.432c.668-.122 1.472-.241 2.262-.423a1.694 1.694 0 001.418-1.717c.115-1.618-.128-2.037-1.715-2.546a5.147 5.147 0 00-1-.321c-1.8-.174-2.767-1.351-3.511-2.822-.132-.261-.232-.539-.384-.788a2.293 2.293 0 00-2.152-1.24 8.02 8.02 0 00-1.049.071A28.3 28.3 0 012.848.317C1.982.191 1.112.1.242 0 .163-.008.009.091 0 .153A.337.337 0 00.131.44c.536.227 1.082.429 1.625.641.762.295 1.532.573 2.284.892A5.287 5.287 0 016.5 4.139c.612.995 1.213 2 1.764 3.027a3.306 3.306 0 002.586 1.85c1.553.241 3.081.645 4.623.96.799.164 1.606.287 2.57.456z" class="cls-1" transform="translate(60.156 10.684)"/><path id="Path_9758" d="M.561 7.224a22.376 22.376 0 00.468 3.288 4.826 4.826 0 01-.368 4.071 4.363 4.363 0 00.01 4.623c.908 1.83 1.836 3.651 2.761 5.474.048.1.191.246.213.234.142-.08.325-.172.38-.308a5.255 5.255 0 00.428-1.323 17.322 17.322 0 00-.107-5.423 29.17 29.17 0 01-.75-6.088c.016-1.456-.116-2.914-.154-4.371A5.125 5.125 0 013.554 6C4.088 3.933 3.338 2.091 2.6.243 2.558.146 2.443.08 2.364 0 2.3.073 2.177.14 2.17.219 1.972 2.271.8 4.082.716 6.159.7 6.51.7 6.862.688 7.213z" class="cls-1" transform="translate(96.49 44.983)"/><path id="Path_9759" d="M.068 5.831c1.283.046 2.574.015 3.847.153a13.452 13.452 0 006.5-1.062 20.969 20.969 0 006.33-4.284c.107-.1.121-.295.177-.446a1.94 1.94 0 00-.487-.051C15.457.293 14.486.5 13.5.618a11.526 11.526 0 00-3.235.732 2.656 2.656 0 01-2.206-.02C7.047.894 5.995.534 4.941.2c-1.089-.35-1.214-.284-1.9.646-.1.14-.2.292-.286.441Q1.374 3.514 0 5.748z" class="cls-1" transform="translate(54.895 100.156)"/><path id="Path_9760" d="M10.138 24.419a4.275 4.275 0 00-.492-.875 26.755 26.755 0 01-4.512-7.676C3.575 12.319 2.864 8.52 1.85 4.812c-.308-1.125-.47-2.289-.723-3.429A8.56 8.56 0 00.745.217C.711.127.586.072.5 0 .441.074.333.143.327.221a35.48 35.48 0 00.1 10.292 21.355 21.355 0 001.973 5.42 19.333 19.333 0 004.7 6.481 9.415 9.415 0 003.069 1.978z" class="cls-1" transform="translate(33.255 21.727)"/><path id="Path_9761" d="M1.948 3.72A10.247 10.247 0 001.216.181C1.184.075.807-.045.673.017c-.7.326-.861.728-.455 1.352.53.812 1.168 1.554 1.759 2.326z" class="cls-1" transform="translate(53.461 55.737)"/><path id="Path_9762" d="M3.8 1.557L0 .02.02 0a4.054 4.054 0 002.415 1.822l-.035.023c.139-.125.278-.281.4.014l-.03-.036 1.058-.3z" class="cls-1" transform="translate(57.556 58.094)"/><path id="Path_9763" d="M.209 1.28C.209.938.216.6.2.254A.836.836 0 00.106 0C.069.1-.015.21 0 .3c.061.323.155.64.237.959z" class="cls-1" transform="translate(51.626 59.522)"/><path id="Path_9764" d="M.276.252L.57.138A.82.82 0 00.29 0 .8.8 0 000 .1z" class="cls-1" transform="translate(49.516 53.376)"/><path id="Path_9765" d="M.325.252L.125 0C.081.065-.014.168 0 .187a1.321 1.321 0 00.245.208z" class="cls-1" transform="translate(51.04 48.956)"/><path id="Path_9766" d="M.414 0L0 .166C.035.2.088.281.1.274.233.22.357.149.482.083z" class="cls-1" transform="translate(54.48 105.904)"/><path id="Path_9767" d="M.331.029L0 .1l.134.17L.308 0z" class="cls-1" transform="translate(51.797 50.194)"/><path id="Path_9768" d="M.03 0a2.354 2.354 0 00.227.223C.293.252.36.24.413.247.383.177.367.067.318.05A1.066 1.066 0 000 .033z" class="cls-1" transform="translate(61.353 59.617)"/><path id="Path_9769" d="M.19.094C.175.061.161 0 .145 0A.527.527 0 000 .033c.015.033.029.094.045.095A.567.567 0 00.19.094z" class="cls-1" transform="translate(48.844 50.598)"/><path id="Path_9770" d="M.106.286L0 0l.136.259z" class="cls-1" transform="translate(54.064 52.784)"/><path id="Path_9771" d="M.011.115L.15.043 0 0z" class="cls-1" transform="translate(68.6 54.619)"/><path id="Path_9772" d="M.032.17C.061.156.114.144.114.129A.479.479 0 00.084 0C.054.014 0 .027 0 .041A.455.455 0 00.032.17z" class="cls-1" transform="translate(46.871 53.855)"/><path id="Path_9773" d="M.206.166L0 0a.628.628 0 00.091.074 1.481 1.481 0 00.146.063z" class="cls-1" transform="translate(65.134 69.412)"/><path id="Path_9774" d="M.03 0l.7.347-.022.027L0 .029z" class="cls-1" transform="translate(65.701 69.945)"/><path id="Path_9775" d="M.059.046L0 0l.075.052z" class="cls-1" transform="translate(52.264 56.863)"/><path id="Path_9776" d="M.031 0L.39.4.361.424 0 .03z" class="cls-1" transform="translate(65.34 69.549)"/><path id="Path_9777" d="M0 .045L.133 0 .03.075z" class="cls-1" transform="translate(94.724 36.813)"/><path id="Path_9778" d="M.025 0L.1.047 0 .027z" class="cls-1" transform="translate(43.393 46.118)"/><path id="Path_9779" d="M.03 0l.025.113L0 .028z" class="cls-1" transform="translate(54.169 53.042)"/><path id="Path_9780" d="M.03 0l.037.153L0 .029z" class="cls-1" transform="translate(39.513 47.393)"/><path id="Path_9781" d="M.114.029L0 .041.09 0z" class="cls-1" transform="translate(53.166 48.134)"/><path id="Path_9782" d="M.027 0L0 .031z" class="cls-1" transform="translate(52.493 50.196)"/><path id="Path_9783" d="M0 .04L.075 0 .024.066z" class="cls-1" transform="translate(39.177 60.052)"/><path id="Path_9784" d="M.03 0l.018.146L0 .025z" class="cls-1" transform="translate(55.409 59.432)"/><path id="Path_9785" d="M0 .146L.148 0C.11.005.053 0 .037.018a.36.36 0 00-.032.133z" class="cls-1" transform="translate(19.728 22.468)"/><path id="Path_9786" d="M0 .143h.415L.388.176C.269-.054.147-.062.023.172z" class="cls-1" transform="translate(52.105 50.052)"/><path id="Path_9787" d="M.352.4L.367 0 .4.037 0 .023.033 0l.348.366z" class="cls-1" transform="translate(59.958 59.916)"/><path id="Path_9788" d="M.029 0l.015.113L0 .027z" class="cls-1" transform="translate(32.587 15.852)"/><path id="Path_9789" d="M0 2.8C.662 1.948.442.958.424 0l.031.025C.312.235.06.438.044.657-.007 1.378.028 2.1.03 2.829z" class="cls-2" transform="translate(38.542 81.911)"/><path id="Path_9790" d="M.3.4L.171 0C.119.215.06.428.019.646a.885.885 0 00-.005.34 1.281 1.281 0 00.141.288 1.769 1.769 0 00.13-.312A4.236 4.236 0 00.3.4z" class="cls-2" transform="translate(48.954 92.007)"/><path id="Path_9791" d="M.308.029C.2.276.082.521 0 .777c-.02.067.088.172.137.261C.2.967.3.9.3.826.312.552.288.275.276 0z" class="cls-2" transform="translate(43.207 83.403)"/><path id="Path_9792" d="M.251.025C.164.1.021.157.007.24a1.715 1.715 0 00.045.477A1.81 1.81 0 00.24.347 1.11 1.11 0 00.22 0z" class="cls-2" transform="translate(38.322 84.715)"/><path id="Path_9793" d="M.038 0a5.618 5.618 0 00.629 3.515l-.017.013A5.06 5.06 0 00.006.025z" class="cls-2" transform="translate(43.675 21.137)"/><path id="Path_9794" d="M.788.025a4.874 4.874 0 00-.762 2.819L0 2.821A4.962 4.962 0 00.757 0z" class="cls-2" transform="translate(61.358 17.717)"/><path id="Path_9795" d="M.3 2.154C.365 1.421.559.672.013.02L.038 0c.053.716-.251 1.48.29 2.129z" class="cls-2" transform="translate(43.385 19.008)"/><path id="Path_9796" d="M.021 0C.012.335-.007.665 0 .995c0 .09.095.177.145.265.047-.1.135-.2.133-.292C.278.645.241.323.217 0z" class="cls-2" transform="translate(42.851 15.259)"/><path id="Path_9797" d="M.3 1.415C.312 1.013.334.61.33.208.329.138.219.069.16 0 .1.092-.016.2 0 .275c.09.377.214.747.325 1.125z" class="cls-2" transform="translate(43.099 17.613)"/><path id="Path_9798" d="M0 .976A2.72 2.72 0 00.224.505 2.5 2.5 0 00.256 0a3.982 3.982 0 00-.169.479A4.447 4.447 0 00.025 1z" class="cls-2" transform="translate(54.224 22.9)"/><path id="Path_9799" d="M.384.03L.027 1.066 0 1.038C.479.815.265.356.356 0z" class="cls-2" transform="translate(61.048 30.722)"/><path id="Path_9800" d="M0 .636A1.82 1.82 0 00.265.257C.288.2.18.088.131 0a.506.506 0 00-.072.154C.042.322.039.492.03.662z" class="cls-2" transform="translate(62.115 17.081)"/><path id="Path_9801" d="M0 .7L.369 0 .4.026C.01.117.044.433.028.723z" class="cls-2" transform="translate(59.929 33.518)"/><path id="Path_9802" d="M0 .688L.363 0l.024.025L.03.714z" class="cls-2" transform="translate(60.299 32.83)"/><path id="Path_9803" d="M0 0l.025.025z" class="cls-2" transform="translate(60.661 32.83)"/><path id="Path_9804" d="M.167.029L0 .17C.035.161.087.163.1.141A.477.477 0 00.14 0z" class="cls-2" transform="translate(60.908 31.76)"/><path id="Path_9805" d="M0 .047L.092 0 .028.076z" class="cls-2" transform="translate(61.404 30.676)"/><path id="Path_9806" d="M1.1.031C.582-.008.31.347.026.683L0 .656 1.068 0z" class="cls-2" transform="translate(23.312 60.764)"/><path id="Path_9807" d="M1.057.392A1.012 1.012 0 000 .03L.029 0c.244.429.655.374 1.052.364z" class="cls-2" transform="translate(20.996 41.662)"/><path id="Path_9808" d="M.3.236A2.129 2.129 0 00.124 0C.109-.012.043.02 0 .029l.328.177z" class="cls-2" transform="translate(20.697 41.456)"/><path id="Path_9809" d="M.688.035L.016.363 0 .357.657 0z" class="cls-2" transform="translate(17.467 56.009)"/><path id="Path_9810" d="M0 .338C.317.395.611.4.711 0l.025.031C.439.014.1-.08.019.362z" class="cls-2" transform="translate(19.589 55.023)"/><path id="Path_9811" d="M.706.024C.417.022.095-.043.026.379L0 .349.688 0z" class="cls-2" transform="translate(18.901 55.361)"/><path id="Path_9812" d="M.8.03L.031.335 0 .3.777 0z" class="cls-2" transform="translate(18.124 55.71)"/><path id="Path_9813" d="M.07.006L0 .047.054 0z" class="cls-2" transform="translate(17.413 56.366)"/><path id="Path_9814" d="M0 .032L.033 0z" class="cls-2" transform="translate(27.38 38.997)"/><path id="Path_9815" d="M.363.4L0 .032.033 0l.356.377z" class="cls-2" transform="translate(27.38 38.997)"/><path id="Path_9816" d="M.06.027L0 .059.033 0z" class="cls-2" transform="translate(22.884 61.796)"/><path id="Path_9817" d="M0 .376L.395 0l.026.027L.026.4z" class="cls-2" transform="translate(22.918 61.42)"/><path id="Path_9818" d="M3.712 2.244l-.348-.366A4.054 4.054 0 01.949.056a2.126 2.126 0 00-.517-.05C.013.068-.109.29.1.571a2.837 2.837 0 00.456.529 56.909 56.909 0 006.46 4.794c2.6 1.548 5.132 3.231 7.785 4.686a84.046 84.046 0 0010.644 4.9 13.557 13.557 0 001.85.428l.018-.02a2.172 2.172 0 00-.5-.414c-3.42-1.366-6.653-3.105-9.914-4.8A114.477 114.477 0 015.372 3.722a16.355 16.355 0 01-1.66-1.478z" class="cls-2" transform="translate(56.627 58.038)"/><path id="Path_9819" d="M.015 0A3.974 3.974 0 002.8 1.126l-.029.03A5.173 5.173 0 000 .018z" class="cls-2" transform="translate(71.827 64.803)"/><path id="Path_9820" d="M0 .02a3.311 3.311 0 002.128.645 1.6 1.6 0 00.43-.079 20.804 20.804 0 01-.341-.075L.018 0z" class="cls-2" transform="translate(83.922 73.918)"/><path id="Path_9821" d="M.029 0c.1.1.191.2.293.286L.437.179 0 .03z" class="cls-2" transform="translate(74.602 65.929)"/><path id="Path_9822" d="M.055.091L.091 0 0 .01z" class="cls-2" transform="translate(75.796 66.473)"/><path id="Path_9823" d="M0 .154l.4.015C.278-.126.139.029 0 .154z" class="cls-2" transform="translate(59.958 59.784)"/></g></g></svg>