<svg xmlns="http://www.w3.org/2000/svg" width="180.525" height="170" viewBox="0 0 180.525 170"><defs><style>.cls-1{fill:#f5ebdd}.cls-2{fill:#693544}</style></defs><g id="Group_90" transform="translate(2.913)"><path id="Path_9495" d="M63.769 22.011A106.3 106.3 0 0146.2 78.468a6.4 6.4 0 01-9.018 2.089c-1.675 2.486-5.462 3.311-7.69-.086C22.738 70.177 16.627 59.49 10.4 48.869 5.891 41.165-1.961 30.71.45 21.138a13.361 13.361 0 017.615-8.756 39.489 39.489 0 015.045-1.576c3.029-.974 4.259-2.427 6.724-4.314a15.549 15.549 0 016.5-2.951 6.232 6.232 0 015.321-3.3C38.608.1 45.564-.025 52.521 0a5.947 5.947 0 012.943.774A6.848 6.848 0 0161.2 5.09l.153.435a5.382 5.382 0 011.766 2.8l2.14 8.075a5.36 5.36 0 01-1.49 5.611z" class="cls-1" transform="translate(44.618 2.732)"/><g id="Group_53"><path id="Path_9496" d="M134.326 154.633c.367-.225.908-.363 1.071-.69 1.12-2.242 3.181-2.757 5.37-3.349a12.344 12.344 0 015.478-.272c4.447.763 6.267-.107 8.31-4.031.813-1.56 1.476-3.2 2.18-4.812 1.329-3.048 2.616-6.087 5.759-7.846 1.515-.848 1.662-2.51 1.743-4.065a6.836 6.836 0 00-.255-1.966c-.838-3.356.357-6.02 2.674-8.388 1.85-1.89 3.7-3.8 5.36-5.85a50.244 50.244 0 004.161-5.948c1.73-2.908 1.686-6.175 1.082-9.344-.677-3.563-1.665-7.07-2.607-10.577a7.582 7.582 0 00-2.616-4.057c-2.108-1.742-3.855-3.922-6.45-5.043l-.129.049.175-.076a9.877 9.877 0 01-4.057-7.9c-.018-1.557-.956-2.191-2.72-2.293-2.312-.135-4.632-.142-6.948-.212a4.338 4.338 0 01-.647-.115c.169-.249.282-.61.518-.73 1.079-.555 2.185-1.055 3.294-1.549a14.675 14.675 0 004.584-3.195 8.109 8.109 0 001.708-9.707 14.927 14.927 0 01-.73-1.487 5.451 5.451 0 00-3.9-3.724 8.285 8.285 0 01-4.417-3.265c-1.735-2.271-3.732-4.347-5.684-6.447a14.079 14.079 0 00-8.3-4.476c-1.09-.172-2.162-.523-3.255-.593-1.686-.11-3.24-.242-4.395-1.785-.543-.727-1.5-.593-2.449-.311-2.374.707-3.149.472-4.47-1.5a26.363 26.363 0 01-2.5-4.661c-1.173-2.859-3.657-4.634-5.456-6.97a1.531 1.531 0 00-.837-.508c-3.338-.692-6.549-.927-9.237 1.871-2.379 2.475-2.492 2.406-4.049-.561-.461-.878-.932-1.753-1.34-2.658-.934-2.068-2.747-3.149-4.669-4-1.845-.814-4.854.414-5.955 2.518-1.469 2.8-2.988 5.517-3.493 8.836-.829 5.435-2.4 10.756-3.552 16.147-1.227 5.708-2.5 11.414-3.434 17.173a75.483 75.483 0 00-.406 9.263c-.027.771-.021 1.546-.072 2.315-.037.545-.352.658-.9.6-1.06-.123-2.438.244-3.115-.3-.72-.577-.706-2.008-1.139-3.01-2.158-4.989-3.109-10.346-4.817-15.469-.513-1.541-1.278-3-1.926-4.492l-.3.236c.191.731.4 1.458.57 2.193.454 1.893.894 3.789 1.34 5.685l.126.061-.084-.08c-3.51-5.706-6.879-11.5-10.856-16.908l.069.064-.641-.677-.121-.19a.219.219 0 00-.06-.3l.327-.413a6.112 6.112 0 00-1-.811 13.939 13.939 0 01-6.265-5.765c-1.186.481-1.541.39-1.75-.612a10.192 10.192 0 01-.053-1.861c.335.421.684.832 1 1.267.3.414.567.853.849 1.281a33.219 33.219 0 00-1.891-6.833l-.127.135.131-.124.669-1.313-.038.04c-1.01-3.211-.508-4.143 2.766-4.827 1.834-.382 3.713-.558 5.553-.919a12.223 12.223 0 008.059-4.733 23.523 23.523 0 012.736-2.878 10.119 10.119 0 018.066-3.179c3.262.226 6.39-.6 9.46-1.425a17.9 17.9 0 018.519-.107 48.143 48.143 0 009.8 1.5 2.435 2.435 0 012.714 2.291c.26 1.627.829 3.206 1.044 4.835.344 2.612 2.516 3.418 4.278 4.655a.337.337 0 00.277-.022c.051-.19.156-.454.073-.574-1.563-2.26-1.584-4.984-2.263-7.5-.982-3.649-3.045-5.418-6.683-5.767-2.851-.272-5.693-.69-8.52-1.16A22.838 22.838 0 0086.1.379a16.284 16.284 0 01-6.892.3 5.433 5.433 0 00-2.3.084c-3.01.679-6.026 1.345-8.99 2.2a7.344 7.344 0 00-3.936 3.4 15.506 15.506 0 00-1.423 2.62c-1.152 2.86-3.515 3.8-6.3 4.044-1.1.1-2.21-.016-3.314.006-3.914.078-5.7 1.5-6.341 5.324a30.831 30.831 0 00-.185 4.922c0 .657.175 1.313.237 1.973.188 1.977.183 1.989-1.944 2.22A11.369 11.369 0 0037.1 31.7c-1.351 1.6-2.507 3.359-3.746 5.051a22.518 22.518 0 01-5.881 5.76 10.014 10.014 0 00-4.873 7.527c-.25 2.188-.739 4.347-1 6.535-.5 4.2-2.721 7.324-5.859 9.985q-5.175 4.391-10.187 8.971a20.54 20.54 0 00-4.618 6.01 7.7 7.7 0 00.137 7.6c.639 1.155 1.452 2.215 2.2 3.31 1.8 2.644 3.633 5.262 5.392 7.929a21.876 21.876 0 007.4 7.386c-.064-1.291-1.273-1.68-1.966-2.467-.642-.73-1.4-1.362-2.07-2.064-.087-.091-.019-.349.016-.521a.328.328 0 01.274-.049c2.159 1.2 4.565 2.167 5.039 5.054l.059.116-.006-.164-1.416.022c.115.3.145.7.358.884a3.1 3.1 0 011.087 3.461 11.123 11.123 0 00.97 7.416c1.571 3.23 3.827 4.473 7.424 4.275 4.744-.261 9.156-1.415 12.987-4.352a31.242 31.242 0 006.506-6.53c1.8-2.508 3.616-5.011 5.515-7.445A36.708 36.708 0 0162.44 95.19a23.869 23.869 0 0112.311-2.973A26.08 26.08 0 0064.609 98.2c.089.094.178.188.268.28.814-.508 1.606-1.058 2.451-1.507a7.273 7.273 0 011.471-.435l.076-.14-.075.1a20.944 20.944 0 01-6.164 5.15l.068-.067a1.618 1.618 0 01-1.431 1.361l.07-.073-.757.72.077-.073-.758.714.075-.072q-.378.359-.755.72l.088-.057-.664.04-.126-.1a42.334 42.334 0 00-3.872 3.974c-3.316 4.4-6.691 8.785-9.661 13.419-2.857 4.454-5.241 9.21-7.822 13.839-.432.771-.755 1.609-1.237 2.347-1.633 2.5-1.789 5.4-2.253 8.208a2.366 2.366 0 00.786 2.416c2.4 1.75 4 4.471 6.834 5.666a25.383 25.383 0 004.626 1.678c2.365.488 3.829 1.6 3.969 4.121a2.3 2.3 0 00.051.328c.943 5.142 4.672 5.091 7.652 3.686 1.2-.564 2.363-1.2 3.517-1.848a1.465 1.465 0 011.821.2c2.985 2.475 6.348 2.844 9.98 1.839.527-.145 1.115-.083 1.636-.242a5.373 5.373 0 015.51 1.152 6.484 6.484 0 005.287 1.313c2.22-.26 4.43-.239 6.109-2a77.615 77.615 0 002.675-2.943 4.414 4.414 0 013.12-1.632 14.4 14.4 0 008.356-3.679c1.071-.945 2.293-1.718 3.451-2.561a6.064 6.064 0 015.961-.943c2.688 1.005 5.313 2.194 8.025 3.128a19.771 19.771 0 005.142 1.144c2.467.151 4.833-.339 6.213-2.8-.679.309-1.358.617-2.035.929-1.586.731-3.195 1.276-5.011.54a6.907 6.907 0 004.066-1.861 27.493 27.493 0 013.036-1.871.426.426 0 01.634.558c-.226.596-.505 1.177-.763 1.767zm33.579-39.064l-.2.112.252-.057.671-.644c.08-.919.287-1.746 1.385-1.939l.735-2.073a7.493 7.493 0 00-1.4.715c-1.31 1.064-1.584 1.036-2.293-.446a9.251 9.251 0 01-.523-5.815c.615-3.416.755-6.861-.786-10.055a46.941 46.941 0 00-3.8-6.154c-1.686-2.44-3.8-4.575-4.9-7.421-.663-1.705-1.135-3.31-.312-5.1a6.749 6.749 0 00.277-1.912 5.478 5.478 0 00-1.353 6.293 24.445 24.445 0 004.309 7.424c.921 1.1 1.893 2.166 2.7 3.345 1.44 2.1 2.881 4.263 3.021 6.895a42.913 42.913 0 01-.159 6.286c-.266 2.8-.425 5.51 1.487 7.905a1.6 1.6 0 01.1 1.5c-1.928 2.521-2.715 5.768-5.357 7.873a5.029 5.029 0 00-1.789 5.662 9.269 9.269 0 01.285 2.3 3.784 3.784 0 01-1.05 3.047 16.005 16.005 0 00-3.579 5.517 4 4 0 01-1.084 1.643 7.823 7.823 0 00-2.464 3.85c-.752 1.957-1.592 3.6-4.084 3.552-.478-.01-.959.511-1.458.744a1.777 1.777 0 01-.61.041c.043-.274-.008-.629.145-.808a22.949 22.949 0 005.15-10.574c.5-2.478.7-5.018 1.063-7.526a22.193 22.193 0 01.881-4.839 5.154 5.154 0 00.424-2.5c-.209-1.976-.464-3.947-.708-5.92a13.848 13.848 0 00-4.455-8.633c-2.648-2.5-5.105-5.192-7.744-7.7-6.741-6.399-14.682-10.131-24.042-10.512-4.2-.171-8.406-.19-12.607-.292-.758-.019-1.515-.108-2.274-.166a6.2 6.2 0 012.476-.653c6.7-.727 13.4-1.44 20.1-2.186.872-.1 1.724-.363 2.588-.545.215-.046.433-.073.65-.108a3 3 0 00-.731-.143c-.765.04-1.53.1-2.291.2a19.188 19.188 0 01-5.461-.263 38.892 38.892 0 014.8-.907 4.579 4.579 0 00.878-.319c-.274-.12-.559-.363-.819-.338-2.2.215-4.4.424-6.579.743a82.243 82.243 0 01-9.809 1.152c2.2-1.6 4.368-1.6 6.369-2.1a38.808 38.808 0 006.943-1.917l.049.056c-3.252.548-6.5 1.125-9.763 1.622-.669.1-1.469.61-2.071-.223a10.668 10.668 0 011.718-.87 52.779 52.779 0 0017.1-8.461 15.706 15.706 0 018.364-2.828c5.606-.491 11.208-1.047 16.819-1.487a29.745 29.745 0 014.624.147c.757.059 1.037.714.733 1.471-.489 1.214-1 2.42-1.507 3.63l1.4-.631.075-.107-.1.076c.183 1.751.36 3.5.561 5.25.021.182.19.346.29.518.183-.225.512-.441.524-.674a17.071 17.071 0 01.967-5.9 3.616 3.616 0 01.588.816 15.226 15.226 0 006.858 8.162 10.148 10.148 0 012.452 2.169c1.789 2.221 3.485 4.446 2.983 7.676-.311 2 .784 3.845 1.659 5.619a5.953 5.953 0 01.311 4.756 19.1 19.1 0 01-3.1 5.415c-.684.931-1.931 1.587-1.75 3.032l.322.072.328-.043.77-.677-.048-.051-.778.68q-.652.992-1.307 1.981c.016.983-.684 1.456-1.382 1.933zm-17.864-3.757l-.1-.081.043.134.214.056zm-1.233-2.078l-.166-.115.178.15.081.129zm24.6-1.359l-.088.147.086-.113.126-.084zm-69.008-5.637l.813.016q-.653-1.384-1.307-2.765l-.644-.7-.128-.072.06.135.672.677c.558.252 1.111.513 1.673.751s1.117.448 1.678.669a2.193 2.193 0 00-.245-.593c-.6-.736-1.233-1.452-1.853-2.175a20.188 20.188 0 012.492-1.99 2.54 2.54 0 011.821-.12c1.566.476 3.072 1.155 4.631 1.665 1.021.333 2.094.508 3.142.755l-.049.056c-2.378-1.127-4.765-2.232-7.124-3.394-.657-.325-1.571-.687-1.783-1.252a2.161 2.161 0 00-3.176-1.377c-1.954.752-3.694.108-5.47-.478-.741-.244-.555-.768-.309-1.323a1.753 1.753 0 012.173-1c1.515.22 3.034.481 4.56.548 3.751.164 7.505.241 11.259.328a19.82 19.82 0 0111.171 3.601c2.8 1.963 5.679 3.815 8.465 5.8a67.838 67.838 0 016.267 4.812c3.327 3.008 5.27 7.043 7.449 10.869a10.321 10.321 0 011.023 7.064c-.292 1.66-.271 1.828-2.079 1.751-2.87-.121-4.567 1.221-5.507 3.786-.113.311-.287.6-.37.923a3.015 3.015 0 01-3.072 2.457 18.953 18.953 0 00-4.844 1c-1.963.7-3.856 1.67-4.291 4.071l-.054-.045a13.933 13.933 0 019.081-4.138c.328-.032.652-.127.98-.159a3.313 3.313 0 002.921-2.341c.363-.923.8-1.82 1.2-2.728a2.525 2.525 0 012.322-1.589c.658-.041 1.324-.011 1.977-.091 1.013-.123 1.1.5.99 1.209-.116.76-.347 1.5-.5 2.256a86.334 86.334 0 00-1.716 8.758c-.331 3.338-1.85 5.663-4.835 6.928-3.958 1.676-6.979 4.98-11.159 6.258a6.331 6.331 0 00-1.855 1.362 6.966 6.966 0 01-4.925 1.582c-3-.135-5.9-.488-8.563-2.124-3.106-1.906-6.439-.739-9.709-.414-1.64.163-1.8 1.8-2.883 2.5a6.119 6.119 0 00-1.429 1.374 7.512 7.512 0 01-4.108 2.62c-1.264.338-2.535.647-3.63-.543-.172-.186-.851-.025-1.233.127a1.925 1.925 0 01-2.145-.416 17.21 17.21 0 01-2.333-2.312c-1.257-1.673-2.352-3.467-3.568-5.174-1.34-1.882-2.664-3.786-4.143-5.558a2.879 2.879 0 00-3.812-.945c-2.057 1.015-2.962.779-4.038-1.114a10.988 10.988 0 01-1.646-4.278 38.8 38.8 0 01.3-7.2 74.967 74.967 0 013.915-16.376c1.4-4.063 2.946-8.079 4.514-12.08.516-1.319.7-1.308 1.584-.2a2.308 2.308 0 001.882 1.042c1.342.084 1.369.247 1.106 1.668-.456 2.471-.191 5.072-1.444 7.414a1.765 1.765 0 00.512 2.39c.846.555.827-.8 1.487-.859a2.277 2.277 0 00.919-.363c1.358-.811 1.764-1.63 1.009-2.954a5.969 5.969 0 01-.567-3.512c.07-1.412.188-2.819.257-4.231a10.345 10.345 0 011.444-5.015c.148-.241.508-.352.77-.523a1.867 1.867 0 01.292.524 57.058 57.058 0 011.17 10.487 72.181 72.181 0 00.637 7.61 7.958 7.958 0 00.5-2.612c.075-1.2.121-2.413.18-3.619 1.284.677.814 2.341 1.8 3.187l-.064.056a13.887 13.887 0 00-.194-2.271c-.368-1.491-.876-2.946-1.278-4.43a1 1 0 01.171-.87.931.931 0 01.86.118c1.743 1.45 3.485 2.867 3.749 5.41a18.891 18.891 0 001.018 3.828 90.721 90.721 0 003.821 10.463 6.716 6.716 0 00.026-1.453c-.744-2.529-1.562-5.037-2.271-7.577-.469-1.678-.8-3.4-1.186-5.1l.011.014c-.787-.518-.531-1.235-.438-1.968A6.055 6.055 0 0099 107.79l-.153.19.2-.139c-.016-1.288-.413-2.742 1.423-3.208-.231-.59-.433-1.194-.7-1.766-.367-.787-.784-1.55-1.181-2.325l-.712-.687c-.586-.927-1.122-1.893-1.781-2.765a4.721 4.721 0 00-1.264-.849 7.286 7.286 0 00-.327 1.574 4.111 4.111 0 00.355 1.6c.625 1.405-.1 2.29-1.091 3.09a6.637 6.637 0 01-.766.465 4.151 4.151 0 01-.276-.849 36.9 36.9 0 00-.478-4.882c-.424-1.8-.585-1.759 1.005-2.124 2.709-.62 2.7-.615 3.92 1.823a5.728 5.728 0 00.782.969l.728-.687.019-1.367a1.35 1.35 0 01-1.323-1.237c-.037-.4.484-1.233.636-1.206a17.074 17.074 0 014.052 1.076c.368.167.276 1.351.4 2.07a6.211 6.211 0 01-1.307-.513c-.631-.427-1.168-.991-1.8-1.425-.178-.124-.532 0-.8.018.033.311.073.621.1.934a2.545 2.545 0 01-.011.33c.687.229.68.784.634 1.356l1.289.655.72.68.145.064-.166-.089-.655-.7-1.278-.663-.7-.029-.738.677-.083 2.057.712.688 2.664 2.022c-.131-.51-.285-1.015-.379-1.531a.659.659 0 01.156-.542.582.582 0 01.529.092c.782.649 1.542 1.326 2.309 2l.276.123zm-7.191-1.606l-.108-.091.051.147.2.107zm-22.563-1.281l-.687.7-.821 1.864.339.32c1.552-1.471 3.1-2.946 4.659-4.411.55-.516 1.091-1.076 1.968-.825l.672-.735.078-.129-.137.067-.664.741c-.547.684-1.128 1.342-1.63 2.056-1.063 1.512-2.669 2.628-3.257 4.481.782-.692 1.592-1.356 2.341-2.081.841-.814 1.628-1.683 2.44-2.527l.1-.07-.147.065c-.282.7-.6 1.394-.838 2.111-.206.6-.327 1.233-.486 1.852l.166.061-.182-.076c-.8.123-.806.666-.677 1.28a.956.956 0 01-.065 1.418c-.051.532-.1 1.064-.162 1.6-.011.1-.11.178-.169.269-.11-.172-.351-.4-.306-.507a12.505 12.505 0 01.688-1.31q.036-.758.069-1.519c-.459.384-.91.778-1.38 1.147-.577.456-1.174.247-1.366-.539a4.528 4.528 0 01.042-1.24c-.424.325-.868.628-1.268.98-2.538 2.234-2.6 2.382-1.181 5.54a2.024 2.024 0 01-.014 1.834 12.9 12.9 0 00-.462 1.539l.008.008c.558-.618 1.163-1.2 1.664-1.863a2.634 2.634 0 012.412-1.313l.175-.153-.226.1a11.689 11.689 0 01-.432 2.586 89.017 89.017 0 00-4.229 14.894 33.463 33.463 0 00-.54 10.507c.5 5.078 2.452 7.12 7.492 7.951a1.645 1.645 0 00.332.014 3.41 3.41 0 012.623 1.2 24.769 24.769 0 011.995 2.181c2.793 3.667 5.2 7.68 9.414 10.024.634.352.346.975-.027 1.418-1.562 1.85-3.8 2.564-5.918 3.472a2.571 2.571 0 01-2.478-.265 14.539 14.539 0 00-6.207-2.124 4.782 4.782 0 01-1.546-.532 13.4 13.4 0 01-6.135-4.855 4.675 4.675 0 00-4.443-2.32c-1.758.1-3.52.178-5.265.392-3.977.489-7.153-.521-9.121-4.326a21.157 21.157 0 00-2.373-3.077q.887 1.922 1.772 3.845c1.59 3.472 4.532 4.608 8.074 4.537 1.75-.037 3.5-.341 5.244-.519 2.336-.239 4.312.163 5.67 2.432a17.891 17.891 0 002.747 2.806c.472.489 1.767.561 1.233 1.525-.263.475-1.342.6-2.075.688a5.031 5.031 0 01-3.738-1 19.258 19.258 0 00-2.124-1.565c-.881-.5-1.85-.841-2.577.316 1.428.167 2.728.539 3.308 2.064l.739.266c-.076.026-.185.1-.226.069a5.36 5.36 0 01-.47-.384c-1.67.22-2.6-.741-3.3-2.072a4.061 4.061 0 00-4.578.653 8.06 8.06 0 01-4.083 2.07c-1.319.156-1.789.008-2.421-1.187a11.148 11.148 0 01-1.005-2.443c-.752-3.005-2.738-4.631-5.635-5.415a40.475 40.475 0 01-4.043-1.468c-3.8-1.479-5-4.709-5.509-8.353-.049-.357.357-.779.551-1.17-.551-.132-1.176-.312-1.02-1.018a11.31 11.31 0 01.915-2.8c1.834-3.51 3.819-6.943 5.615-10.472a82.475 82.475 0 017.566-11.986A85.778 85.778 0 0164.6 102.319l.231-.094-.288.032.085 1.409-.046-.043a.879.879 0 00.328-.024c1.831-.972 2.15-3.953 4.917-3.71a1.1 1.1 0 00.182-.588c-.037-1.262.629-1.158 1.469-.8.4.175.826.308 1.24.459a5.441 5.441 0 01-.876 1.3c-1.609 1.315-3.582 2.213-4.639 4.145l1.35.7c1.2-1.181 2.408-2.352 3.59-3.549.524-.531.956-1.186 1.86-.962l.7-.687.218-.131zm61.809-1.02l-.6-.743c-.875-.126-1.676-.354-1.906-1.375l-1.361-.612-.142-.112.088.164 1.361.617q.949.691 1.9 1.378l.652.69.132.127zM6.887 76.935l-.2.11.255-.054.6-.714c.722-1.977 2.7-2.706 4.047-4.06a.329.329 0 01.268-.01c.068.183.2.484.131.555-1.367 1.323-2.32 3.193-4.5 3.464zM67.114 4.74a1.131 1.131 0 01.172-.2c.035-.027.107 0 .163 0l-.387.143-.633.695-.674.642-.719.642.062.064.7-.653.672-.644zM98.7 69.959l-.089.1.112-.081.161-.18zM37.117 34.493l.121-.051-.169.065-.029.115zm112.038 8.922l.2.108-.145-.159-.75-.588a15.19 15.19 0 01-2.306-1.187 32.892 32.892 0 00-8.01-4.46 17.671 17.671 0 01-2.868-1.576c-.234-.142-.341-.5-.507-.751.266-.113.537-.339.8-.323 5.821.36 10.032 3.3 13.011 8.187l.575.749zM100.113 67.4c-.056-.588-.014-1.127.672-1.343.524-1.313 1.041-2.628 1.574-3.937.271-.666.574-1.321.86-1.982-1.209-.249-1.338.8-1.77 1.48a18.416 18.416 0 00-1.033 1.689c-2.185 4.436-4.334 8.887-6.54 13.312-.207.417-.712.687-1.079 1.025q-.469-.6-.934-1.2l.062.045c-.11 0-.245-.038-.325.011-.41.263-.806.548-1.206.824a3.69 3.69 0 01-.185-1.2c.833-4.393 1.713-8.778 2.567-13.167.327-1.681.948-3.354.217-5.082l.054.049c-.551.449-1.332 1.393-1.614 1.262-1.2-.556-1.6 0-1.941.948-.443 1.23-1 2.428-1.337 3.687a75.784 75.784 0 00-2.465 13.251c-.021.245-.335.467-.513.7-.161-.218-.448-.429-.465-.658a33.518 33.518 0 011.909-12.6c.425-1.342.685-2.736 1.02-4.106l-.011-.008a6.16 6.16 0 00-1.13 1.543 91.3 91.3 0 00-1.7 6.047 37.44 37.44 0 00-.888 8.871 9.874 9.874 0 01-.3 2.274c-.053.214-.489.392-.779.464-.129.032-.429-.209-.484-.381A5.523 5.523 0 0182 77.632c-.042-5.056-.1-10.115-.035-15.171a38.26 38.26 0 01.583-5.252c.695-4.559 1.38-9.119 2.188-13.659 1.042-5.84 2.473-11.6 2.731-17.582.1-2.26 1-4.487 1.568-6.723.041-.164.323-.269.494-.4a2.777 2.777 0 01.316.468c.339.811.61 1.656 1 2.441a6.551 6.551 0 004.355 3.682c-.188-.368-.28-.886-.58-1.082-2.621-1.707-3.906-3.912-3.482-7.193.295-2.282.846-3.451 2.926-4.125a1.131 1.131 0 011.592.72c.417 1.139.664 2.35 1.176 3.44.629 1.345.765 3.067 2.481 3.7l-1.847-6.085-.112-.209.053.261c1.275.265 1.565 1.434 2.092 2.347a20.422 20.422 0 011.579 3.233c.228.633-.148 1.012-.9.636a4.73 4.73 0 00-.939-.255 1.423 1.423 0 001.41 1.544c3.173.182 6.363.586 9.416-.87a14.353 14.353 0 013.764-1.176c1.93-.323 2.526.161 3.036 2.121.416 1.6.652 3.255 1.184 4.814.679 1.99 1.6 3.918 3.7 4.822a26.283 26.283 0 003.139.931l-1.463 3.115c.569-.29 1.171-.864 1.7-.8.8.092.929-.2 1-.8.092-.84.569-1.092 1.367-.94a11.412 11.412 0 002.585.373 5.164 5.164 0 013.029 1.09c2.244 1.372 4.535 2.669 6.82 3.973 1.522.868 3.157 1.57 4.588 2.564 4.508 3.134 8.954 6.356 13.4 9.572 2.832 2.044 3.036 6.874.456 9.264a3.81 3.81 0 01-3.614 1.076c-2.958-.623-5.737-1.493-7.634-4.108a42.292 42.292 0 00-2.956-3.539 15.362 15.362 0 00-1.734-1.444l-.285.253c1.012 1.305 2.092 2.562 3.023 3.922a12.643 12.643 0 008.256 5.574c.214.041.545.065.607.2.151.327.371.88.225 1.047a12.426 12.426 0 01-7.215 3.716c-3.667.765-7.317 1.694-11.024 2.145a26.839 26.839 0 00-9.856 3.587c-3.179 1.766-6.366 3.526-9.457 5.437-3.9 2.413-8.383 3.291-12.569 4.94a15.191 15.191 0 01-3.2.532c.239-1.315 1.444-1.753 2.323-2.433.95-.733 2.083-1.222 3.1-1.88a12.711 12.711 0 002.032-1.592 1.143 1.143 0 00.1-1.085.851.851 0 00-1.383-.2c-2.516 1.958-5.035 3.915-7.588 5.827a1.145 1.145 0 01-1.082.03.9.9 0 01-.115-1.434c.872-.841 1.849-1.584 2.647-2.486.848-.958 2.189-1.592 2.253-3.123-1.525 1.377-3.071 2.733-4.57 4.14-1.332 1.251-1.522 1.283-2.916.1-1.49-1.265-1.613-1.434-.8-2.921a37.362 37.362 0 012.4-3.448l-.188-.143.131.2h1.944c.293-.574.516-.558.666.08.163-.392.578-.967.449-1.144-.929-1.265-.4-2.205.47-3.185a13.965 13.965 0 001.321-1.888c.381-.609 1.085-1.31.269-1.931-.212-.163-1.074.529-1.638.829l-.709 1.311c-.147.229.284.913-.5.642zm53.129 77.744c-.024-.575-.008-1.131.688-1.337-.03-.217-.137-.459-.075-.644a2.788 2.788 0 01.456-.658 2.807 2.807 0 01.037.851c-.04.164-.309.269-.475.4l-.687 1.339-.132.868-.357-.233zm-2.126 3.268l.086-.107-.121.075-1.339.6a1.329 1.329 0 01-1.735.417c-.064-.024-.078-.18-.116-.274.526-.059 1.052-.126 1.579-.172a.978.978 0 01.319.084zM83.541 41.132l.306-.513-.362.457q-.371 1.652-.739 3.3c-.151 1.332.175 2.76-.789 3.929a17.864 17.864 0 01-.049 2.631 93.445 93.445 0 00-1.265 15.066 2.271 2.271 0 01-.12.641c-.029.1-.15.255-.2.244-.18-.04-.484-.121-.5-.217a23.823 23.823 0 01-.263-2.945 64.08 64.08 0 011.809-14.341 3.918 3.918 0 01.634-1.037c.07-1.346-.394-2.8.792-3.922.174-1.113-.408-2.398.746-3.293zM81.56 145.166a9.79 9.79 0 01-1.585.037 3.874 3.874 0 01-1.033-.467c.443-.177.937-.566 1.318-.476.462.108.828.621 1.237.959a1.264 1.264 0 01.174.185c.021.032-.011.1-.018.147zM89.47 91.7q2.063-.249 4.127-.494c.328-1.144.644-2.293 1-3.426.037-.12.336-.156.515-.231.072.2.221.4.2.59a4.179 4.179 0 01-1.781 3c-1.233.986-2.521 1.568-4.014.508l-.58-.14.241-.284zm-12.72 5.6l-.172.15.226-.1a6.613 6.613 0 013.84-3.216.79.79 0 01.6.159.511.511 0 01-.037.453c-1.54.766-2.568 2.417-4.457 2.554zm1.412-3.227a.85.85 0 01.057-.285c.027-.046.137-.046.21-.067l-.322.3c-1.06 1.05-2.1 2.121-3.2 3.133a.884.884 0 01-.849-.008 1.045 1.045 0 01-.365-.833 1.545 1.545 0 01.5-1.05 6.373 6.373 0 013.968-1.191zm40.3-70.7a8.345 8.345 0 011.026 1.2c1.16 1.993 2.275 4.011 3.4 6.025a2.756 2.756 0 01.172.564c-.311.051-.72.25-.915.123a6.055 6.055 0 01-1.723-1.442 9.435 9.435 0 01-1.911-6.514l-.14-.1zm-89.757 83.29l-.062.053c.518-.755.218-1.366-.2-2.087-1.555-2.672-3.595-4.315-6.911-4.24a68.571 68.571 0 01-6.924-.54c-4.519-.362-4.519-.355-4.219-4.925-.22.462-.452.918-.653 1.388-.126.295-.206.609-.306.915-.344-.2-.825-.3-1.012-.6-2.009-3.169-4.087-6.3-5.91-9.58-1.363-2.448-.684-4.96 1.506-6.791A19.937 19.937 0 016.7 78.322a21.39 21.39 0 008.047-8.138 11.6 11.6 0 012.065-2.543c1.582-1.546 3.257-2.962 5.568-3.362a1.762 1.762 0 001.606-1.793c.1-1.868.607-3.761.41-5.585a29.8 29.8 0 01.354-7.881 6.011 6.011 0 012.604-4.42c3.012-1.93 5.338-4.607 8-6.919 1.7-1.48 3.208-2.964 3.821-5.239.462-1.718 1.874-2.384 3.561-2.411a8.131 8.131 0 012.3.26c3.754 1.055 7.354 2.425 9.88 5.633.668.848 1.232 1.778 1.844 2.671-.693 1.308-2.014 1.249-3.171 1.307a7.69 7.69 0 00-5.915 3.173 9.8 9.8 0 01-6.294 3.969 5.336 5.336 0 00-4.08 3.064c-.964 1.853-1.825 3.759-2.731 5.641a4.023 4.023 0 002.1-2.4 29.735 29.735 0 011.448-2.969c.633-1.036 1.386-2.111 2.7-2.28 3.778-.484 6.452-2.594 8.627-5.552a4.456 4.456 0 013.156-1.585 18.693 18.693 0 003.851-.808c1.023-.39 1.659-.3 2.231.588 1.305 2.033 2.691 4.019 3.914 6.1 2.395 4.079 5.053 8.057 6.947 12.364 2.119 4.815 3.518 9.948 5.216 14.947.1.3.21.835.081.923a9.758 9.758 0 01-2.2 1.208c-.308.11-.824-.182-1.174-.4-1.383-.875-2.741-1.793-4.106-2.693l.054-.057a9.945 9.945 0 001.177 1.49c2.723 2.369 5.52 4.655 8.206 7.062a14.638 14.638 0 012.465 3.02c.269.422.04 1.163.037 1.759a13.588 13.588 0 00-1.173-.883c-.558-.336-1.155-.609-1.735-.908a1.05 1.05 0 01-.134.21c-.029.032-.1.022-.151.032l.338-.185c-.736-.9-1.407-1.876-2.687-2.064l.061-.056.547 1.362.038-.037c-.789-.344-1.589-.666-2.368-1.034-1.37-.647-2.521-1.805-4.178-1.78l-.078.089c-.333.226-.735.706-.986.637-1.165-.317-2.274-.841-3.434-1.187-1.356-.4-2.744-.7-4.118-1.047l.046-.057a6.515 6.515 0 001.284.943c1.734.723 3.514 1.339 5.239 2.081a1.21 1.21 0 01.545 1.02c-.052.316-.546.8-.836.794-1.318-.032-2.631-.228-3.947-.33q-3.3-.256-6.6-.457a2.435 2.435 0 00-.746.2c.3.081.6.174.9.241.322.072.653.107.971.2.04.011.041.269.011.4-.2.905-.209.907.365.881 1.434-.065 2.868-.178 4.3-.183 1.323 0 2.65.075 3.969.186.606.051 1.5-.021 1.4.921-.032.3-.765.674-1.224.758a31.956 31.956 0 01-3.294.351c-2.747.217-5.5.384-8.243.645a15.785 15.785 0 00-2.559.751c5.1-.234 9.7-.443 14.309-.661.972-.046 1.985-.386 2.709.688.091.134.717-.053 1.08-.15a16.33 16.33 0 012.483-.7c2.189-.217 4.392-.3 6.589-.443.11-.006.279-.053.322 0 .392.48.945.937 1.072 1.487a1.472 1.472 0 01-.778 1.219 7.778 7.778 0 01-2.29.185c-2.21.025-4.425-.053-6.63.048a17.288 17.288 0 00-11.737 4.682 135.15 135.15 0 00-7.289 7.66c-3.193 3.647-6.215 7.446-9.358 11.138a24.056 24.056 0 01-6.5 5.074c-.884.51-1.423.22-1.673-.8-.5-2.033-.942-4.086-1.523-6.1a5.516 5.516 0 00-1.1-1.5l.059-.048 1.243 5.783c.183.856.4 1.707.555 2.569a1.453 1.453 0 01-1.082 1.75 15.537 15.537 0 01-8.114.886c-2.164-.279-2.511-1.209-1.817-3.4a14.126 14.126 0 00.473-3.544c.016-.319-.445-.663-.685-1-.284 1.37.4 2.871-.553 4.143a1.628 1.628 0 01-.682.512c-.078.032-.376-.25-.43-.432a12 12 0 01-.379-5.787c.035-.185.547-.277.838-.413-.191-1.068-.443-2.129-.561-3.2a8.1 8.1 0 00-3.714-5.918c-.622-.433-1.369-.68-2.017-1.079a5.126 5.126 0 01-.849-.835c.36-.142.733-.435 1.076-.4 3.05.276 6.093.615 9.14.921a5.087 5.087 0 013.957 2.607c.576.922 1.159 1.839 1.739 2.76zm62.088-44.939c-.26 1.962-.443 3.49-.669 5.01q-.366 2.448-.8 4.882c-.094.519-.857.655-1.283.194-.263-.284-.586-.762-.515-1.066.736-3.1 1.541-6.192 2.352-9.277a.647.647 0 01.5-.322c.135 0 .347.209.4.366.069.197.008.436.015.213zm23.838-43.532c-2.132.781-4.25 1.578-6.383 2.325a8.055 8.055 0 01-1.906.381c-.172.016-.378-.327-.567-.505.849-.817 1.566-2.049 2.573-2.366 2.038-.641 4.252-1.094 6.283.165zM86.82 96.291c2.46-.218 2.326.072 1.442 2.107a19.111 19.111 0 01-.956 1.732c-.751 1.332-.481-.183-.709-.28-.781-.331-1.5-.822-2.291-1.119-.731-.274-.7-.647-.449-1.243.629-1.461 1.854-1.326 2.963-1.197zm-6.554-14.448c-.073.088-.166.252-.212.241-.19-.049-.475-.108-.529-.244q-1.9-4.706-3.734-9.437c-.049-.129.121-.489.209-.5a1.194 1.194 0 01.58.217.5.5 0 01.214.241q1.733 4.412 3.443 8.833a2.025 2.025 0 01.029.649zm80.72 44.33a7.934 7.934 0 01.145-1.3c.056-.268.367-.481.563-.72.161.2.441.387.467.606.2 1.732.425 3.467.491 5.207a7.112 7.112 0 01-.5 2.185c-.038.127-.349.263-.516.242s-.425-.228-.432-.365c-.088-1.734-.138-3.467-.218-5.854zM90.844 80.816c-.346.4-.492.722-.719.794-.931.3-1.879.537-2.832.751a11.937 11.937 0 01-1.42.151c.276-.336.486-.8.84-.982a19.288 19.288 0 012.948-1.259c.262-.085.674.298 1.183.545zm5.488 4.121c-1.235-.881-2.758-1.493-3.11-3.246a1.043 1.043 0 01.37-.685c.513.145 1.174.244 1.463.613a23.422 23.422 0 011.764 2.881c.019.036-.264.24-.487.436zm5.168 2.823c-.2-.282-.4-.441-.411-.613a.636.636 0 01.256-.527 22.76 22.76 0 012.465-.773 10.033 10.033 0 011.571-.132c-.363.456-.637 1.117-1.109 1.323a16.488 16.488 0 01-2.772.722zm-78.234-30l-.118 4.627c-.019.832-.6 1.064-1.275 1.181a.922.922 0 01-.6-.045.568.568 0 01-.088-.518c.608-1.572 1.242-3.14 2.08-5.241zm66.317 19.261c-.841.319-1.2.583-1.535.55a3.035 3.035 0 01-1.367-.523c-.135-.094-.006-.873.043-.876a4.662 4.662 0 011.452.061 7.52 7.52 0 011.407.788zm53.526 70.779l-.336-.491 2.242-1.52c.08.153.265.341.225.449a2.322 2.322 0 01-2.131 1.562zM73.784 87.47c-.535-.061-1.068-.092-1.585-.194-.161-.032-.282-.26-.421-.4.164-.121.335-.352.492-.343.95.049 1.9.15 2.841.249.083.008.231.167.218.188-.073.143-.167.36-.285.382-.415.078-.844.084-1.26.118zm14.916-.617c.535-.437.888-.9 1.084-.843a1.5 1.5 0 01.717.848c.045.107-.368.583-.555.574a4.329 4.329 0 01-1.246-.579zm51.649 62.505l-.672-.432a14.208 14.208 0 011.307-.787c.092-.043.325.206.494.319zm-53.534-43.272a5.341 5.341 0 01.223 1.141 3.473 3.473 0 01-.279.835 3.306 3.306 0 01-.226-.835 5.642 5.642 0 01.282-1.141zm-6.356-34.922a7.462 7.462 0 01-.331-1.358 3.325 3.325 0 01.218-.832c.1.164.288.327.29.491a16.382 16.382 0 01-.177 1.699zm-2.07-.134a6.947 6.947 0 01-.056-1.1c.008-.083.325-.135.5-.2a9.662 9.662 0 01.257 1.049 4.261 4.261 0 01-.701.251zm-2.33 7.292a7.349 7.349 0 01.567.947c.057.137-.056.344-.092.521q-.531-.411-1.06-.824zm53.893-46.316a5.7 5.7 0 01-.964.159 1.686 1.686 0 01-.563-.236 6.06 6.06 0 011.01-.368c.116-.02.281.233.517.445zM108.558 9.933c-.068-.075-.2-.153-.191-.218a3.251 3.251 0 01.134-.55c.07.07.2.147.2.21a3.177 3.177 0 01-.143.558zm-19.8 64.3l-.488.266c-.03-.1-.108-.271-.083-.287a3.4 3.4 0 01.484-.236zm-4.5 7.375l-.39.368a1.989 1.989 0 01-.137-.462c0-.067.182-.214.2-.2a2.466 2.466 0 01.329.297zM95.79 103.45a5.1 5.1 0 01-.258.456 1.109 1.109 0 01-.233-.1 4.276 4.276 0 01.229-.461 1.458 1.458 0 01.264.107zm-13.157 61.5l-.26.073.169-.28zM105.2 95.867l-.234.559c-.083-.073-.245-.163-.234-.215a3.38 3.38 0 01.217-.559zm-4.589-10.319l-.424.115c.025-.065.045-.18.08-.185a1.251 1.251 0 01.342.07zM76.3 1.969l-.158.107-.025-.161zM86.484 87.9l.172-.11.016.19zm-12.493 19.625l.221-.134.016.239z" class="cls-2"/><path id="Path_9497" d="M0 3.509a22.648 22.648 0 002.615-1.228 9.373 9.373 0 017.885-.918 57.413 57.413 0 015.82 2.173 3.008 3.008 0 003.106-.075c.225-.159.295-.534.437-.809l.048.038a7.435 7.435 0 01-5.064-.631A35.658 35.658 0 009.6.322 8.892 8.892 0 00.016 3.528z" class="cls-2" transform="translate(85.62 5.688)"/><path id="Path_9498" d="M12.912.019a16.128 16.128 0 00-2.025.994 12.447 12.447 0 01-7.134 2.233c-1.321-.006-2.665-.1-3.753.883.118.134.236.268.355.4 2.036-.221 4.1-.32 6.1-.695C9.038 3.356 11.425 2.408 12.9 0z" class="cls-2" transform="translate(72.725 9.197)"/><path id="Path_9499" d="M8.048 7a8.732 8.732 0 00-3.562-4.46A48.374 48.374 0 00.364 0L.037.413a.215.215 0 00.06.3l.121.19.641.677-.068-.061C2.682 1.8 3.817 3.206 5.095 4.4c.954.889 1.9 1.789 2.849 2.683z" class="cls-2" transform="translate(56.87 34.842)"/><path id="Path_9500" d="M.049 0c2.757 2.234 6 2.5 9.331 2.172.652-.065 1.241-.766 1.858-1.174l.037.037A14.738 14.738 0 011.617.3 7.336 7.336 0 000 .057z" class="cls-2" transform="translate(54.731 22.968)"/><path id="Path_9501" d="M3.361 0A12.465 12.465 0 00.018 6.691L0 6.675c.32-.265.768-.467.94-.808C1.879 4.023 2.749 2.146 3.643.28L3.361 0z" class="cls-2" transform="translate(68.037 14.691)"/><path id="Path_9502" d="M2.836.056A4.28 4.28 0 000 3.209l.126.1.664-.04-.09.06.755-.72-.075.072.759-.714-.077.072.757-.719-.07.073C2.765.929 2.777.464 2.792 0z" class="cls-2" transform="translate(58.522 101.547)"/><path id="Path_9503" d="M2.054 3.334A4.241 4.241 0 00.1 0L0 .083a6.079 6.079 0 001.751 3.486z" class="cls-2" transform="translate(64.815 41.841)"/><path id="Path_9504" d="M0 2.6C1.394 2.293 1.77 1.178 2.067 0l.018.016a3.216 3.216 0 00-2.048 2.62z" class="cls-2" transform="translate(65.97 21.367)"/><path id="Path_9505" d="M1.96 0A3.258 3.258 0 00.045 2.094L0 2.038l1.391.032-.069.067.842-1.895z" class="cls-2" transform="translate(61.314 99.508)"/><path id="Path_9506" d="M.049 0c.466.357.917.735 1.407 1.055.118.076.365-.043.553-.072C1.938.822 1.9.551 1.786.516 1.2.328.6.2 0 .049z" class="cls-2" transform="translate(50.156 20.873)"/><path id="Path_9507" d="M1.327 0L0 1.366l.282.28q.7-.621 1.4-1.246C1.563.268 1.445.134 1.327 0z" class="cls-2" transform="translate(71.397 13.326)"/><path id="Path_9508" d="M1.335 0L0 1.308l.2.242Q.9.917 1.6.28L1.335 0z" class="cls-2" transform="translate(63.274 98.2)"/><path id="Path_9509" d="M.038 0l1.406.664-.05.05L0 .04z" class="cls-2" transform="translate(48.762 20.208)"/><path id="Path_9510" d="M.838.529Q.516.266.2 0L0 .379l.888.093z" class="cls-2" transform="translate(53.893 22.496)"/><path id="Path_9511" d="M0 0l.048.038z" class="cls-2" transform="translate(105.483 8.34)"/><path id="Path_9512" d="M26.984 21.024c.39 1.7.717 3.421 1.185 5.1.709 2.54 1.527 5.048 2.271 7.577a6.709 6.709 0 01-.025 1.453 90.723 90.723 0 01-3.821-10.463 18.9 18.9 0 01-1.018-3.828c-.265-2.543-2.006-3.96-3.749-5.41a.931.931 0 00-.86-.118 1 1 0 00-.17.87c.4 1.484.91 2.938 1.278 4.43a13.893 13.893 0 01.194 2.271c.483.1.771.276.317.763l-.253-.819c-.982-.846-.512-2.51-1.8-3.187-.059 1.206-.105 2.414-.18 3.619a7.961 7.961 0 01-.5 2.612 72.165 72.165 0 01-.637-7.61A57.063 57.063 0 0018.044 7.8a1.869 1.869 0 00-.292-.524c-.261.171-.621.282-.77.523a10.346 10.346 0 00-1.444 5.015c-.069 1.412-.187 2.819-.257 4.231a5.969 5.969 0 00.567 3.512c.755 1.324.349 2.143-1.009 2.954a2.277 2.277 0 01-.919.363c-.66.061-.641 1.413-1.487.859a1.765 1.765 0 01-.512-2.39c1.253-2.342.988-4.943 1.444-7.414.263-1.421.236-1.584-1.106-1.668a2.308 2.308 0 01-1.882-1.042c-.88-1.109-1.068-1.12-1.584.2-1.568 4-3.112 8.017-4.514 12.08A74.967 74.967 0 00.366 40.87a38.8 38.8 0 00-.3 7.2 10.99 10.99 0 001.646 4.278c1.08 1.892 1.988 2.128 4.042 1.113a2.879 2.879 0 013.812.945c1.479 1.772 2.8 3.676 4.143 5.558 1.216 1.707 2.31 3.5 3.568 5.174a17.2 17.2 0 002.333 2.312 1.925 1.925 0 002.145.416c.382-.153 1.061-.314 1.233-.127 1.095 1.19 2.366.881 3.63.543a7.512 7.512 0 004.108-2.62 6.119 6.119 0 011.429-1.374c1.08-.7 1.243-2.336 2.883-2.5 3.27-.325 6.6-1.491 9.709.414 2.667 1.636 5.561 1.989 8.563 2.124a6.966 6.966 0 004.925-1.582 6.33 6.33 0 011.855-1.362c4.18-1.278 7.2-4.581 11.159-6.258 2.984-1.265 4.5-3.59 4.835-6.928A86.335 86.335 0 0177.8 39.44c.155-.754.386-1.5.5-2.256.11-.712.024-1.332-.99-1.209-.653.08-1.319.049-1.978.091a2.525 2.525 0 00-2.322 1.589c-.4.908-.832 1.805-1.2 2.728a3.313 3.313 0 01-2.91 2.34c-.328.032-.652.127-.98.159a13.933 13.933 0 00-9.081 4.138 17.439 17.439 0 01-2.248 8.786 3.061 3.061 0 01-2.5 1.906c-1.63 1.26-3.557 1.058-5.4.961-2.422-.129-4.833-.449-7.247-.715-2.315-.253-4.43-.064-5.687 2.3a.862.862 0 01-.5.41 1.472 1.472 0 01-.829-.081c-.094-.04-.143-.437-.062-.591a5.237 5.237 0 014.583-2.8c1.536-.107 3.091.091 4.637.115 3.419.051 6.839.076 10.259.113 2.167-1.627 3.039-3.96 3.545-6.5.274-1.374.266-2.863 1.512-3.859.435-2.4 2.328-3.37 4.291-4.071a18.955 18.955 0 014.844-1 3.015 3.015 0 003.063-2.461c.083-.319.256-.612.37-.923.94-2.565 2.637-3.907 5.507-3.786 1.809.076 1.788-.091 2.079-1.751a10.32 10.32 0 00-1.023-7.064c-2.18-3.826-4.122-7.861-7.449-10.869a67.83 67.83 0 00-6.267-4.812c-2.785-1.984-5.663-3.835-8.465-5.8A19.82 19.82 0 0044.682.923C40.928.835 37.174.759 33.423.595a45.929 45.929 0 01-4.56-.548 1.753 1.753 0 00-2.174 1c-.245.555-.432 1.079.309 1.323 1.777.586 3.517 1.23 5.47.478a2.161 2.161 0 013.176 1.377c.212.566 1.127.927 1.783 1.252 2.36 1.162 4.747 2.268 7.124 3.394q.691.337 1.383.671c.212.035.425.059.633.107a1.4 1.4 0 01.29.134c-.164.07-.381.241-.478.188-.167-.089-.261-.319-.386-.489-.526-.091-1.217.159-1.393-.666-1.049-.247-2.121-.422-3.142-.755-1.558-.51-3.064-1.189-4.631-1.665a2.541 2.541 0 00-1.821.12A20.187 20.187 0 0032.515 8.5c.62.723 1.249 1.439 1.853 2.175a2.189 2.189 0 01.245.593l-.072-.064c1.82.3 2.491 1.581 2.6 3.222a25.122 25.122 0 01-.11 2.851q.335.37.668.741l.658.5-.335.271c-.091-.272-.18-.547-.269-.819l-.672-.739c-.838-.041-1.676-.127-2.513-.108-.708.016-1.668.472-2.056.161a4.327 4.327 0 01-1.179-2.237 12.866 12.866 0 01-.161-2.588h.026c-.766-.669-1.526-1.346-2.309-2a.582.582 0 00-.529-.092.659.659 0 00-.156.542c.094.516.249 1.021.379 1.531l-.048-.07a6.847 6.847 0 01.61 1.7c.07.819-.338.9-1.35.308l.065.075c-1.836.465-1.439 1.92-1.423 3.208l-.051-.051a6.052 6.052 0 01.166 1.456c-.092.733-.349 1.45.438 1.968l.112-.123zm4.188 16.76l.223.526-.159-.575-.475-.615.362-.175z" class="cls-1" transform="translate(72.608 90.175)"/><path id="Path_9513" d="M57.086 33.256c1.366.9 2.723 1.818 4.106 2.693.351.22.867.512 1.174.4a9.755 9.755 0 002.2-1.208c.129-.088.019-.626-.081-.923-1.7-5-3.1-10.131-5.215-14.947-1.895-4.307-4.553-8.284-6.947-12.364-1.223-2.08-2.612-4.066-3.917-6.099-.572-.889-1.206-.978-2.23-.588a18.7 18.7 0 01-3.852.808 4.456 4.456 0 00-3.157 1.587c-2.175 2.957-4.849 5.067-8.627 5.552-1.31.169-2.064 1.244-2.7 2.28a29.708 29.708 0 00-1.44 2.969 4.024 4.024 0 01-2.1 2.4l.076-.069a4.84 4.84 0 01-3.49 3.973l.08-.067c-.749 1.836-2.557 2.207-4.09 2.962-1.219.6-1.2.762-.308 1.748a35.323 35.323 0 012.411 3.069 2.782 2.782 0 01.193 2.817c-.59 1.362-1.3 2.669-1.965 4l.048-.094c-.064 1.613.374 3.313-.829 4.725l.048-.092c.044.8.142 1.619-.766 2.065l.06-.084c-.4 1.563-1.044 2.919-2.812 3.326l.081-.067a13.625 13.625 0 01-6.849 4.532l.086-.057-2.107 1.338.078-.07c-.457 1.386-1.645 2.006-2.8 2.663l.065-.083-.757 1.4.061-.084-.754 1.4.046-.073c-.3 4.57-.3 4.564 4.219 4.925a68.565 68.565 0 006.924.54c3.316-.075 5.356 1.568 6.911 4.24.419.722.719 1.332.2 2.087l.462.33-.33.206-.07-.588c-.58-.921-1.163-1.837-1.737-2.761a5.087 5.087 0 00-3.957-2.607c-3.047-.306-6.09-.645-9.14-.921-.343-.03-.715.263-1.076.4a5.124 5.124 0 00.849.835c.648.4 1.4.645 2.017 1.079A8.1 8.1 0 019.1 68.674c.118 1.076.37 2.137.561 3.2l-.072-.054a1.918 1.918 0 011.335 2.108l-.057-.076c.241.333.7.677.685 1a14.126 14.126 0 01-.473 3.544c-.695 2.186-.347 3.117 1.817 3.4a15.537 15.537 0 008.114-.886 1.453 1.453 0 001.082-1.75c-.151-.862-.371-1.713-.555-2.569q-.624-2.892-1.243-5.783-.3-.669-.606-1.337l-.167-.127.112.182.6 1.331a5.516 5.516 0 011.1 1.5c.582 2.011 1.023 4.063 1.523 6.1.25 1.018.789 1.308 1.673.8a24.057 24.057 0 006.5-5.074c3.144-3.692 6.165-7.491 9.358-11.138a135.47 135.47 0 017.289-7.66A17.288 17.288 0 0159.419 50.7c2.205-.1 4.42-.022 6.63-.048a7.778 7.778 0 002.29-.185 1.472 1.472 0 00.778-1.219c-.128-.55-.68-1.007-1.072-1.487-.043-.054-.212-.008-.322 0-2.2.139-4.4.226-6.589.443a16.331 16.331 0 00-2.483.7c-.363.1-.99.284-1.08.15-.724-1.074-1.737-.735-2.709-.688-4.607.218-9.212.427-14.309.661a15.782 15.782 0 012.559-.751c2.744-.261 5.5-.429 8.243-.645a31.954 31.954 0 003.294-.351c.459-.084 1.192-.457 1.224-.758.1-.942-.8-.87-1.4-.921a45.401 45.401 0 00-3.969-.186c-1.436 0-2.87.118-4.3.183-.574.025-.569.024-.365-.881.03-.132.029-.39-.011-.4-.317-.091-.648-.126-.97-.2-.3-.067-.6-.159-.9-.241a2.435 2.435 0 01.746-.2q3.3.2 6.6.457c1.316.1 2.629.3 3.947.33.29.006.784-.478.837-.794a1.21 1.21 0 00-.545-1.02c-1.726-.743-3.506-1.358-5.239-2.081a6.518 6.518 0 01-1.284-.943c-1.648.19-2.954-.692-4.312-1.4-.139-.072-.188-.316-.281-.478.19-.07.438-.255.559-.193 1.34.687 2.661 1.41 3.987 2.124 1.374.344 2.762.642 4.118 1.047 1.16.346 2.269.87 3.434 1.187.252.069.653-.411.986-.637l-1.423-.57-1.173-.854c-.551-.032-1.133-.013-1.262-.754a11.737 11.737 0 01-5.877-2.816l-1.35-.7-2.011-.677a2.073 2.073 0 01-.626.011 3.614 3.614 0 01-.674-.359 2.878 2.878 0 01.83-.035c.167.04.284.284.424.437.757-.032 1.514-.064 2.006.68l1.356.693a9.841 9.841 0 015.882 2.811l1.358.642 1.458.55 1.16.851c1.657-.025 2.808 1.133 4.178 1.78.779.368 1.579.69 2.368 1.034l-.038.037-.547-1.364q-.335-.347-.671-.692a7.793 7.793 0 01-1.428-.725c-1.9-1.512-3.805-3.023-5.631-4.623-1.82-1.582-3.534-3.276-5.291-4.922a4.887 4.887 0 01-3.229-2.755l-2.05-1.286-.041-.115.04.169c.861.131 1.678.325 2 1.289 1.31.644 2.7 1.19 3.225 2.755a9.23 9.23 0 012 .958 582.33 582.33 0 019.5 7.977 5.532 5.532 0 01.854 1.329l.661.7c1.278.186 1.949 1.166 2.685 2.062l-.053-.057c.58.3 1.178.572 1.735.908a13.578 13.578 0 011.173.883c0-.6.233-1.337-.037-1.759a14.635 14.635 0 00-2.465-3.02c-2.687-2.408-5.483-4.693-8.206-7.062A9.946 9.946 0 0157.14 33.2c-1.01-.145-1.935-.4-2.087-1.635z" class="cls-1" transform="translate(10.278 39.935)"/><path id="Path_9514" d="M5.7 41.566c-.335 1.37-.594 2.765-1.02 4.106a33.516 33.516 0 00-1.909 12.6c.018.229.3.44.465.658.178-.233.492-.454.513-.7a75.778 75.778 0 012.467-13.245c.333-1.259.894-2.457 1.337-3.687.341-.951.738-1.5 1.941-.948.282.131 1.063-.813 1.614-1.262l.733-1.241c.076-.167.155-.336.233-.5l-.281.448-.739 1.248c.731 1.727.11 3.4-.217 5.082-.854 4.383-1.737 8.769-2.567 13.162a3.689 3.689 0 00.185 1.2c.4-.276.8-.561 1.206-.824.08-.049.215-.01.325-.011-.476-1.227-.014-2.3.417-3.447.642-1.7 1.456-3.377.746-5.367a1.628 1.628 0 011.313-2.236c1.036-.166 1.385-.894 1.8-1.692a14.732 14.732 0 011.308-1.81l1.425-1.876.75-.661.092-.174-.148.115-.743.671a2 2 0 01-1.246 2.046 3.279 3.279 0 01-.073.978c-.607 1.495-1.517 2.873-1.052 4.667.113.435-.464 1.264-.942 1.593-1.19.822-1.565 2.078-2.081 3.275-.556 1.286-1.087 2.583-1.627 3.875l.934 1.2c.366-.338.872-.607 1.079-1.025 2.205-4.425 4.355-8.876 6.54-13.312a18.4 18.4 0 011.033-1.689c.432-.679.561-1.729 1.77-1.48-.287.661-.59 1.316-.86 1.982-.534 1.31-1.05 2.624-1.574 3.937l-.021-.018c.564-.3 1.426-.991 1.638-.829.816.621.112 1.323-.269 1.931a13.964 13.964 0 01-1.321 1.888c-.867.98-1.4 1.92-.47 3.185.129.177-.287.752-.449 1.144l.045-.06c.644 1.122 1.335.209 2.009.046l-.076.046c1.852-2.368 1.852-2.368 4.54-1.388a55.082 55.082 0 018.356-8.895l.771-.672c.229-.21.457-.422.685-.633l.137-.2-.188.147-.682.636-.779.676c-2 3.646-4.948 6.492-7.932 9.3-.314 2.419-.312 2.425-2.389 2.921a10.885 10.885 0 01-1.232.156l.065-.084c-.064 1.531-1.405 2.166-2.253 3.123-.8.9-1.775 1.644-2.647 2.486a.9.9 0 00.115 1.434 1.145 1.145 0 001.082-.03c2.553-1.912 5.072-3.869 7.588-5.827a.851.851 0 011.383.2 1.143 1.143 0 01-.1 1.085 12.713 12.713 0 01-2.032 1.592c-1.013.658-2.146 1.147-3.1 1.88-.88.68-2.084 1.119-2.323 2.433a15.191 15.191 0 003.2-.532c4.186-1.649 8.667-2.527 12.569-4.94 3.091-1.911 6.278-3.671 9.457-5.437a26.839 26.839 0 019.855-3.586c3.706-.451 7.357-1.38 11.024-2.145a12.426 12.426 0 007.215-3.716c.147-.167-.073-.72-.225-1.047-.062-.132-.394-.156-.607-.2a12.643 12.643 0 01-8.256-5.574c-.931-1.359-2.011-2.616-3.023-3.922a21.56 21.56 0 00-7.41-4 29.3 29.3 0 00-7.019-1.431c-1.049-.075-1.963-.389-1.855-1.742-1.052-2.612-.513-5.263-.217-7.908a27.288 27.288 0 01.166 7.948 25.6 25.6 0 003.083.822 30.511 30.511 0 0111.373 3.783c.948.558 1.911 1.072 2.164 2.275a15.363 15.363 0 011.734 1.444 42.29 42.29 0 012.956 3.539c1.9 2.615 4.677 3.485 7.634 4.108a3.81 3.81 0 003.614-1.076c2.58-2.39 2.376-7.22-.456-9.264-4.451-3.216-8.9-6.438-13.4-9.572-1.431-.994-3.066-1.7-4.588-2.564-2.285-1.3-4.576-2.6-6.82-3.973a5.164 5.164 0 00-3.029-1.09 11.412 11.412 0 01-2.585-.373c-.8-.151-1.275.1-1.367.94-.067.6-.193.9-1 .8-.527-.061-1.13.513-1.7.8l.072-.07a3.714 3.714 0 01-3.472 2.629l.091-.056c-.5.374-.977 1.023-1.509 1.074a17.441 17.441 0 00-6.892 2.061 2.415 2.415 0 01-1.6.277 4.513 4.513 0 01-2.3-1.042 13.737 13.737 0 01-2.975-5.41l.059.08a8.678 8.678 0 01-1.625-1.522 26.525 26.525 0 00-4.838-5.26c-1.182-1.079-2.208-2.33-3.3-3.5l.067.073A6.551 6.551 0 018.907 2.91c-.389-.786-.66-1.63-1-2.441A2.781 2.781 0 007.593 0C7.422.132 7.14.237 7.1.4c-.569 2.237-1.472 4.465-1.569 6.724C5.273 13.1 3.842 18.867 2.8 24.707c-.808 4.54-1.493 9.1-2.188 13.659a38.279 38.279 0 00-.583 5.252c-.064 5.056-.007 10.115.035 15.171a5.526 5.526 0 00.346 1.585c.056.172.355.413.484.381.29-.072.727-.25.779-.464a9.874 9.874 0 00.3-2.274 37.443 37.443 0 01.888-8.871c.5-2.032 1.06-4.054 1.7-6.047a6.157 6.157 0 011.125-1.546l.722-1.275.692-.657.118-.59.323.223-.489.316-.693.655c.041.575.134 1.175-.659 1.341z" class="cls-1" transform="translate(81.941 18.842)"/><path id="Path_9515" d="M19.114 12.237a38.81 38.81 0 01-6.943 1.917c-2 .5-4.165.5-6.369 2.1a82.243 82.243 0 009.809-1.152c2.183-.319 4.382-.527 6.579-.743.26-.025.545.218.819.338a4.577 4.577 0 01-.878.319 38.888 38.888 0 00-4.8.907 19.187 19.187 0 005.461.263 36.742 36.742 0 012.291-.2 3 3 0 01.731.143c-.217.035-.435.062-.65.108-.864.182-1.716.448-2.588.545-6.7.746-13.4 1.46-20.1 2.186A6.2 6.2 0 000 19.63c.758.057 1.515.147 2.274.166 4.2.1 8.409.121 12.607.292 9.362.381 17.3 4.113 24.033 10.506 2.639 2.5 5.1 5.2 7.744 7.7a13.848 13.848 0 014.455 8.633c.244 1.973.5 3.944.708 5.92a5.155 5.155 0 01-.424 2.5 22.193 22.193 0 00-.881 4.839c-.365 2.508-.562 5.048-1.063 7.526A22.949 22.949 0 0144.3 78.287c-.153.178-.1.534-.145.808a1.777 1.777 0 00.61-.041c.5-.233.98-.754 1.458-.744 2.492.049 3.332-1.6 4.084-3.552a7.822 7.822 0 012.464-3.85 3.994 3.994 0 001.084-1.643 16.008 16.008 0 013.579-5.517 3.784 3.784 0 001.05-3.047 9.271 9.271 0 00-.285-2.3 5.029 5.029 0 011.789-5.662c2.642-2.1 3.429-5.352 5.357-7.873a1.6 1.6 0 00-.1-1.5c-1.912-2.395-1.753-5.1-1.487-7.905a42.914 42.914 0 00.159-6.286c-.14-2.632-1.581-4.8-3.021-6.895-.808-1.179-1.78-2.247-2.7-3.345a24.446 24.446 0 01-4.309-7.424 5.478 5.478 0 011.353-6.293l-.067.065c.5-1.209 1.018-2.416 1.507-3.63.3-.757.024-1.412-.733-1.471A29.744 29.744 0 0051.33.045c-5.611.44-11.213 1-16.819 1.487a15.707 15.707 0 00-8.364 2.828 52.78 52.78 0 01-17.1 8.461 10.67 10.67 0 00-1.718.87c.6.833 1.4.325 2.071.223 3.262-.5 6.511-1.074 9.763-1.622.39-.14.779-.288 1.174-.414a.869.869 0 01.315.025c-.088.075-.169.2-.264.217-.422.058-.849.08-1.274.117z" class="cls-1" transform="translate(101.759 69.557)"/><path id="Path_9516" d="M36.306 16.366a12.9 12.9 0 01.462-1.539 2.024 2.024 0 00.014-1.834c-1.421-3.158-1.358-3.306 1.181-5.54.4-.352.844-.655 1.268-.98l-.068.07c.588-1.853 2.194-2.969 3.257-4.481.5-.714 1.084-1.372 1.63-2.056l.05.056c-.876-.25-1.418.309-1.968.825-1.558 1.464-3.107 2.94-4.659 4.411L34.5 9.116a5.752 5.752 0 012.636-4.138q.409-.932.821-1.864l.043.045c-.9-.223-1.335.432-1.86.962-1.182 1.2-2.392 2.368-3.59 3.549l.038-.069a2.182 2.182 0 01-1.437 1.963l-.408.239.464-.178-.027-1.376.056.051-1.241.064c-.276.163-.551.328-.825.492l-.636 1.366-.123.065.166-.078.648-1.294.513-.824c.308-.661.7-1.2 1.538-1.184l-.076.061c1.056-1.931 3.029-2.83 4.639-4.145a5.441 5.441 0 00.876-1.3c-.414-.151-.837-.284-1.24-.459C34.634.7 33.968.6 34 1.862a1.1 1.1 0 01-.182.588c-2.768-.244-3.087 2.738-4.917 3.71a.879.879 0 01-.328.024l-.131.6-.325-.258.5-.295c-.027-.47-.056-.939-.085-1.409l.057.062A85.778 85.778 0 0014.12 19.715 82.481 82.481 0 006.554 31.7c-1.8 3.53-3.781 6.962-5.615 10.472a11.31 11.31 0 00-.915 2.8c-.156.706.468.886 1.02 1.018l-.073.051a4.355 4.355 0 013.435-1.291l-.089.043c3.6-1.431 6.2-.276 7.959 3.544l-.067-.076.719.755-.061-.083.682 1.433-.067-.073a21.152 21.152 0 012.373 3.077c1.968 3.805 5.145 4.815 9.121 4.33 1.745-.214 3.507-.293 5.265-.392a4.675 4.675 0 014.443 2.32 13.4 13.4 0 006.135 4.855 4.782 4.782 0 001.546.532 14.539 14.539 0 016.207 2.124 2.571 2.571 0 002.478.265c2.122-.908 4.357-1.622 5.918-3.472.373-.443.661-1.066.027-1.418-4.215-2.344-6.621-6.358-9.414-10.024a24.779 24.779 0 00-1.996-2.19 3.41 3.41 0 00-2.623-1.2 1.644 1.644 0 01-.331-.014c-5.04-.832-6.989-2.873-7.493-7.951a33.463 33.463 0 01.54-10.507 89.023 89.023 0 014.229-14.894 11.693 11.693 0 00.432-2.586l.051.053a2.634 2.634 0 00-2.412 1.313c-.5.661-1.106 1.244-1.664 1.863-.408.738-.8 1.485-1.241 2.205-.064.1-.341.073-.518.105-.021-.191-.134-.47-.048-.561.577-.61 1.193-1.178 1.799-1.76z" class="cls-1" transform="translate(36.004 97.439)"/><path id="Path_9517" d="M32.768 25.715c.907-1.882 1.767-3.788 2.731-5.641a5.337 5.337 0 014.071-3.061 9.8 9.8 0 006.294-3.969 7.689 7.689 0 015.916-3.173c1.157-.057 2.478 0 3.171-1.307-.612-.892-1.176-1.823-1.844-2.671-2.526-3.208-6.125-4.578-9.88-5.633A8.131 8.131 0 0040.93 0c-1.687.027-3.1.693-3.561 2.411-.613 2.275-2.121 3.759-3.821 5.239-2.659 2.312-4.986 4.989-8 6.919a6.01 6.01 0 00-2.605 4.415 29.8 29.8 0 00-.354 7.881c.2 1.825-.309 3.718-.41 5.585a1.762 1.762 0 01-1.606 1.793c-2.311.4-3.985 1.817-5.568 3.362a11.6 11.6 0 00-2.065 2.543 21.392 21.392 0 01-8.04 8.14 19.935 19.935 0 00-2.691 1.932C.02 52.05-.659 54.563.7 57.011c1.823 3.276 3.9 6.411 5.91 9.58.187.295.668.4 1.012.6.1-.306.18-.62.306-.915.2-.47.433-.926.653-1.388l-.046.073.754-1.4-.061.084.757-1.4-.065.083c.256-1.6 1.568-2.087 2.8-2.663l-.078.07a1.953 1.953 0 012.106-1.335l-.086.057a25.323 25.323 0 016.844-4.535l-.081.067c.744-1.272 1.31-2.695 2.812-3.326l-.06.084c.011-.779-.148-1.622.766-2.065l-.048.092c.177-1.592-.368-3.311.829-4.725l-.048.094a14.391 14.391 0 01.582-3.181c1.017-2.392 1.049-2.921-.617-4.669-.606-.636-1.335-1.15-2-1.727-.985-.854-.964-1.673.188-2.282 1.837-.972 3.735-1.831 5.607-2.738l-.08.067a11.066 11.066 0 013.49-3.973z" class="cls-1" transform="translate(1.804 30.033)"/><path id="Path_9518" d="M32.366 23.18l1.463-3.115a26.283 26.283 0 01-3.139-.931c-2.1-.9-3.02-2.832-3.7-4.822-.532-1.558-.768-3.214-1.184-4.814-.51-1.96-1.106-2.444-3.036-2.121a14.353 14.353 0 00-3.764 1.176c-3.053 1.456-6.243 1.052-9.416.87A1.423 1.423 0 018.182 7.88l.072.072C6.538 7.324 6.4 5.6 5.773 4.256c-.512-1.09-.759-2.3-1.176-3.44A1.131 1.131 0 003.005.1C.926.77.374 1.939.08 4.221-.344 7.5.94 9.707 3.561 11.414c.3.2.392.714.58 1.082l-.067-.073a3.38 3.38 0 011.2.386 54.361 54.361 0 015.317 4.809c1.327 1.488 3.161 2.769 3.254 5.09l-.059-.08c1.617.625 1.912 2.279 2.725 3.523 1.429 2.193 2.28 2.449 4.645 1.413a19.04 19.04 0 013.372-1.257c1.482-.333 3.018-.425 4.532-.623l-.091.056c1.082-.978 2.027-2.134 3.472-2.629z" class="cls-1" transform="translate(91.062 12.94)"/><path id="Path_9519" d="M14.375 37.644c-.182-1.445 1.066-2.1 1.75-3.032a19.1 19.1 0 003.1-5.415 5.952 5.952 0 00-.311-4.756c-.875-1.774-1.969-3.616-1.659-5.619.5-3.23-1.194-5.454-2.983-7.676a10.148 10.148 0 00-2.452-2.169A15.226 15.226 0 014.958.816 3.62 3.62 0 004.37 0a17.07 17.07 0 00-.97 5.9c-.013.233-.341.449-.524.674-.1-.172-.269-.336-.29-.518-.2-1.748-.378-3.5-.561-5.25l.024.03-1.4.631.066-.067a6.755 6.755 0 01-.278 1.91C-.385 5.1.087 6.7.75 8.406c1.1 2.846 3.214 4.981 4.9 7.421a46.934 46.934 0 013.8 6.154c1.541 3.193 1.4 6.638.786 10.055a9.25 9.25 0 00.523 5.815c.709 1.482.983 1.511 2.293.446a7.489 7.489 0 011.4-.715z" class="cls-1" transform="translate(156.291 73.387)"/><path id="Path_9520" d="M27.221 18.608c.727-1.157 1.7-.813 2.576-.316a19.264 19.264 0 012.124 1.565 5.031 5.031 0 003.738 1c.733-.086 1.812-.214 2.075-.688.534-.964-.762-1.036-1.233-1.525a17.882 17.882 0 01-2.747-2.806c-1.358-2.269-3.334-2.671-5.67-2.432-1.748.178-3.495.483-5.244.519-3.54.075-6.484-1.066-8.074-4.538q-.882-1.924-1.772-3.845l.067.073c-.8-.2-.778-.8-.682-1.433l.061.083-.719-.755.067.076c-.285-.137-.674-.2-.84-.424A7.423 7.423 0 003.828.043L3.918 0C3.041 1.147 1.754 1.2.482 1.291l.074-.051c-.194.39-.6.813-.551 1.17.507 3.644 1.707 6.874 5.509 8.353a40.473 40.473 0 004.041 1.467c2.9.784 4.882 2.409 5.635 5.415a11.148 11.148 0 001.01 2.442c.631 1.2 1.1 1.343 2.42 1.187A8.06 8.06 0 0022.7 19.2a4.061 4.061 0 014.578-.653z" class="cls-1" transform="translate(36.493 142.189)"/><path id="Path_9521" d="M2.9 0A37.362 37.362 0 00.5 3.448c-.815 1.487-.692 1.652.8 2.921 1.394 1.184 1.584 1.152 2.916-.1 1.5-1.407 3.045-2.763 4.57-4.14l-.065.084C8.921 1.136 8.2.637 7.431.166L7.507.12c-1.025 1.774-1.48 1.774-2.65 0l-.07-.07H2.843z" class="cls-1" transform="translate(94.44 73.232)"/><path id="Path_9522" d="M8.9 9.049a6.079 6.079 0 01-1.747-3.486C6.2 4.669 5.259 3.769 4.3 2.879 3.026 1.687 1.891.277 0 0c3.977 5.405 7.346 11.2 10.856 16.908l-.041.019c-.446-1.9-.886-3.792-1.34-5.685C9.3 10.507 9.1 9.781 8.9 9.049z" class="cls-1" transform="translate(57.661 36.361)"/><path id="Path_9523" d="M13.806 8.188C10.828 3.3 6.616.361.8 0 .537-.015.266.211 0 .324c.166.255.272.609.507.751a17.666 17.666 0 002.868 1.576 32.891 32.891 0 018.01 4.46A15.19 15.19 0 0013.691 8.3z" class="cls-1" transform="translate(134.769 34.478)"/><path id="Path_9524" d="M6 3.136a5.73 5.73 0 01-.782-.969C3.991-.27 4-.275 1.293.345-.3.71-.136.671.288 2.469a36.888 36.888 0 01.478 4.882 4.155 4.155 0 00.276.849 6.632 6.632 0 00.766-.465c1-.8 1.716-1.684 1.092-3.09a4.11 4.11 0 01-.355-1.6 7.293 7.293 0 01.327-1.574 4.722 4.722 0 011.264.849c.66.872 1.2 1.837 1.781 2.765l-.059.056.082-2.062z" class="cls-1" transform="translate(91.962 94.775)"/><path id="Path_9525" d="M2.443.041a3.915 3.915 0 00-.634 1.037A64.076 64.076 0 000 15.42a23.811 23.811 0 00.263 2.945c.013.1.317.177.5.217.048.011.169-.147.2-.244a2.273 2.273 0 00.12-.641A93.445 93.445 0 012.342 2.631 17.847 17.847 0 002.392 0z" class="cls-1" transform="translate(79.565 48.309)"/><path id="Path_9526" d="M3.28.579C3.274.8 3.334.563 3.267.367 3.213.209 3 0 2.866 0a.647.647 0 00-.5.322C1.551 3.407.746 6.5.01 9.6c-.072.3.252.782.515 1.066.425.461 1.189.325 1.283-.194q.44-2.433.8-4.882c.229-1.522.412-3.05.672-5.011z" class="cls-1" transform="translate(87.513 61.146)"/><path id="Path_9527" d="M8.856.8C6.822-.46 4.612-.007 2.573.633 1.566.951.849 2.182 0 3c.19.178.4.521.567.505a8.055 8.055 0 001.906-.381C4.607 2.377 6.724 1.58 8.856.8z" class="cls-1" transform="translate(105.775 17.393)"/><path id="Path_9528" d="M3.127.075C2.018-.054.792-.19.163 1.272c-.255.6-.282.969.449 1.243.792.3 1.511.787 2.291 1.119.228.1-.041 1.613.709.28a19.113 19.113 0 00.956-1.732C5.453.147 5.587-.143 3.127.075z" class="cls-1" transform="translate(83.694 96.216)"/><path id="Path_9529" d="M.05 0a9.435 9.435 0 001.911 6.514 6.056 6.056 0 001.722 1.442c.194.127.6-.072.915-.123a2.76 2.76 0 00-.172-.564C3.3 5.255 2.187 3.238 1.027 1.245A8.336 8.336 0 000 .046z" class="cls-1" transform="translate(118.461 23.325)"/><path id="Path_9530" d="M4.483 9.938a2.028 2.028 0 00-.029-.647Q2.75 4.869 1.011.459A.5.5 0 00.8.218 1.2 1.2 0 00.218 0C.13.009-.041.369.009.5q1.836 4.73 3.733 9.437c.054.135.339.194.529.244.046.009.139-.155.212-.243z" class="cls-1" transform="translate(75.783 71.905)"/><path id="Path_9531" d="M0 2.022c.08 2.387.129 4.121.217 5.853.006.137.269.346.432.365s.478-.115.516-.242a7.113 7.113 0 00.5-2.185C1.6 4.073 1.377 2.338 1.174.606 1.149.387.868.2.708 0 .511.239.2.453.145.72A7.927 7.927 0 000 2.022z" class="cls-1" transform="translate(160.987 124.151)"/><path id="Path_9532" d="M6.973 2.4c.258-.59.537-1.171.763-1.774A.62.62 0 007.668.07a.62.62 0 00-.566 0 27.489 27.489 0 00-3.035 1.867A6.907 6.907 0 010 3.8c1.816.736 3.426.191 5.011-.54.677-.312 1.356-.62 2.035-.929z" class="cls-1" transform="translate(127.353 152.235)"/><path id="Path_9533" d="M1.034.054C.743.19.231.282.2.467a12 12 0 00.376 5.787c.054.182.352.464.43.432a1.629 1.629 0 00.682-.511c.948-1.272.269-2.773.553-4.143l.057.076A1.968 1.968 0 01.963 0z" class="cls-1" transform="translate(18.903 111.759)"/><path id="Path_9534" d="M1.267 2.488a2.5 2.5 0 00.011-.328c-.027-.312-.067-.623-.1-.934.272-.013.626-.142.8-.018.628.433 1.165 1 1.8 1.425a6.213 6.213 0 001.307.513c-.119-.719-.027-1.9-.4-2.07A17.074 17.074 0 00.638 0C.486-.026-.035.807 0 1.207a1.35 1.35 0 001.324 1.236z" class="cls-1" transform="translate(97.38 93.414)"/><path id="Path_9535" d="M3.421 3.963c.159-.618.28-1.249.486-1.852C4.149 1.394 4.463.7 4.745 0h.045c-.811.845-1.6 1.713-2.44 2.527C1.6 3.257.792 3.922.009 4.613l.069-.07a4.523 4.523 0 00-.041 1.24c.191.786.789.994 1.366.539.47-.37.921-.763 1.38-1.147l-.054.053c-.129-.613-.121-1.157.677-1.28z" class="cls-1" transform="translate(75.158 99.368)"/><path id="Path_9536" d="M1.834 6.014a4.731 4.731 0 01.939.255c.751.376 1.127 0 .9-.636A20.427 20.427 0 002.092 2.4C1.565 1.487 1.275.317 0 .053L.059 0l1.847 6.085z" class="cls-1" transform="translate(97.41 14.806)"/><path id="Path_9537" d="M4.007 5.042l1.417-.022-.052.048C4.9 2.18 2.492 1.217.333.013.266-.024.065.027.059.062c-.035.172-.1.43-.016.521.674.7 1.428 1.334 2.07 2.064.693.787 1.9 1.176 1.966 2.467z" class="cls-1" transform="translate(11.977 102.648)"/><path id="Path_9538" d="M4.471.053A6.373 6.373 0 00.508 1.241 1.545 1.545 0 000 2.291a1.045 1.045 0 00.365.833.884.884 0 00.849.008C2.315 2.121 3.357 1.05 4.417 0z" class="cls-1" transform="translate(73.69 94.019)"/><path id="Path_9539" d="M4.97.557C4.462.31 4.049-.073 3.788.012A19.29 19.29 0 00.84 1.271c-.354.186-.564.645-.84.982A11.936 11.936 0 001.42 2.1a33.44 33.44 0 002.832-.751c.226-.07.372-.397.718-.792z" class="cls-1" transform="translate(85.874 80.259)"/><path id="Path_9540" d="M2.24 1.985l-1.4 1.27L0 5.15A20.947 20.947 0 006.164 0v.043a7.272 7.272 0 00-1.473.435c-.844.449-1.636.999-2.451 1.507z" class="cls-1" transform="translate(62.636 96.495)"/><path id="Path_9541" d="M3.114 3.932c.223-.2.507-.4.488-.432A23.423 23.423 0 001.836.614C1.547.244.886.145.373 0A1.043 1.043 0 000 .686C.356 2.438 1.879 3.05 3.114 3.932z" class="cls-1" transform="translate(93.218 81.005)"/><path id="Path_9542" d="M.412 2.046a16.488 16.488 0 002.773-.723C3.656 1.117 3.93.456 4.294 0a10.034 10.034 0 00-1.572.132A22.767 22.767 0 00.257.905.636.636 0 000 1.433c.014.167.213.331.412.613z" class="cls-1" transform="translate(101.087 85.714)"/><path id="Path_9543" d="M2.105 0C1.267 2.1.633 3.668.026 5.246a.568.568 0 00.088.518.922.922 0 00.6.045c.671-.116 1.256-.349 1.275-1.181.032-1.373.068-2.743.116-4.628z" class="cls-1" transform="translate(21.16 57.764)"/><path id="Path_9544" d="M0 4.043C2.175 3.772 3.128 1.9 4.5.578c.073-.07-.062-.371-.131-.555a.329.329 0 00-.269.01C2.749 1.388.771 2.116.049 4.094z" class="cls-1" transform="translate(7.491 72.184)"/><path id="Path_9545" d="M0 3.179C1.89 3.044 2.918 1.393 4.454.63A.511.511 0 004.49.177a.79.79 0 00-.6-.159A6.613 6.613 0 00.054 3.234z" class="cls-1" transform="translate(76.75 94.119)"/><path id="Path_9546" d="M2.962.878A7.52 7.52 0 001.555.089 4.663 4.663 0 00.1.028C.054.032-.075.811.06.9a3.034 3.034 0 001.367.523c.332.038.693-.223 1.535-.545z" class="cls-1" transform="translate(86.622 76.144)"/><path id="Path_9547" d="M0 3.587a4.179 4.179 0 001.781-3C1.8.4 1.651.2 1.579 0 1.4.075 1.1.112 1.064.231.7 1.364.389 2.513.061 3.657z" class="cls-1" transform="translate(93.537 87.553)"/><path id="Path_9548" d="M.336 2.011A2.322 2.322 0 002.467.449c.04-.108-.145-.3-.225-.449L0 1.52c.112.164.225.327.336.491z" class="cls-1" transform="translate(142.773 145.789)"/><path id="Path_9549" d="M3.351 1.456c-.561-.221-1.125-.433-1.678-.669S.558.288 0 .037L.04 0l1.305 2.765-.072-.065c.945-.013 1.944.061 2.006-1.307z" class="cls-1" transform="translate(103.87 99.99)"/><path id="Path_9550" d="M.059 0c.4.774.814 1.538 1.181 2.325.269.572.472 1.176.7 1.766l-.065-.075q.371-1 .739-2.006l.048.07L0 .057z" class="cls-1" transform="translate(98.531 100.543)"/><path id="Path_9551" d="M1.865 2.548c-.282-.429-.548-.867-.849-1.281C.7.832.351.421.017 0a10.182 10.182 0 00.052 1.861c.209 1 .564 1.093 1.75.612z" class="cls-1" transform="translate(48.154 25.793)"/><path id="Path_9552" d="M3.308 2.121C2.728.6 1.428.225 0 .057L.056 0c.7 1.331 1.625 2.291 3.3 2.072z" class="cls-1" transform="translate(63.714 160.741)"/><path id="Path_9553" d="M.053.508C1.546 1.568 2.833.986 4.066 0l.061.07L0 .564z" class="cls-1" transform="translate(89.47 91.14)"/><path id="Path_9554" d="M2.006.934C2.424.9 2.851.894 3.267.819 3.385.8 3.479.58 3.552.437c.013-.021-.135-.18-.218-.188C2.389.15 1.442.05.492 0 .335-.009.164.222 0 .343.139.48.26.708.421.74c.518.102 1.05.134 1.585.194z" class="cls-1" transform="translate(71.778 86.536)"/><path id="Path_9555" d="M0 .848a4.328 4.328 0 001.246.578c.186.01.6-.467.555-.574A1.5 1.5 0 001.083 0C.888-.053.535.411 0 .848z" class="cls-1" transform="translate(88.702 86.005)"/><path id="Path_9556" d="M.843.049C-.343 1.17.121 2.624.051 3.971L0 3.929C.964 2.76.637 1.332.789 0z" class="cls-1" transform="translate(81.957 44.379)"/><path id="Path_9557" d="M.672 1.224L1.8.324C1.632.211 1.4-.038 1.307 0A14.209 14.209 0 000 .792z" class="cls-1" transform="translate(139.679 148.134)"/><path id="Path_9558" d="M2.554.972C2.146.635 1.78.121 1.318.013.937-.076.443.313 0 .49a3.871 3.871 0 001.033.466A9.791 9.791 0 002.618.92z" class="cls-1" transform="translate(78.942 144.246)"/><path id="Path_9559" d="M.8.056c-1.154.9-.572 2.18-.741 3.3L0 3.3Q.371 1.652.739 0z" class="cls-1" transform="translate(82.746 41.076)"/><path id="Path_9560" d="M.282 0A5.642 5.642 0 000 1.141a3.3 3.3 0 00.226.835 3.475 3.475 0 00.279-.835A5.34 5.34 0 00.282 0z" class="cls-1" transform="translate(86.534 106.086)"/><path id="Path_9561" d="M.332 2.189A16.382 16.382 0 00.508.491C.507.327.32.164.218 0A3.33 3.33 0 000 .832a7.476 7.476 0 00.332 1.357z" class="cls-1" transform="translate(80.128 68.974)"/><path id="Path_9562" d="M.066 1.305a4.264 4.264 0 00.7-.257A9.676 9.676 0 00.51 0C.335.065.018.118.01.2a6.947 6.947 0 00.056 1.105z" class="cls-1" transform="translate(78.324 69.725)"/><path id="Path_9563" d="M.585 0L0 .644q.528.414 1.06.824c.037-.177.15-.384.092-.521A7.369 7.369 0 00.585 0z" class="cls-1" transform="translate(75.475 78.322)"/><path id="Path_9564" d="M1.9.085A.978.978 0 001.579 0C1.052.047.526.114 0 .173c.038.094.053.25.116.274A1.329 1.329 0 001.852.03z" class="cls-1" transform="translate(147.891 148.951)"/><path id="Path_9565" d="M0 1.931C.7 1.456 1.4.983 1.382 0l.054.048C.338.241.131 1.068.051 1.987z" class="cls-1" transform="translate(168.573 112.992)"/><path id="Path_9566" d="M1.362.092l-.328.043L.712.064.789 0 .054 2.073 0 2.025q.655-.989 1.307-1.98z" class="cls-1" transform="translate(169.955 110.967)"/><path id="Path_9567" d="M.694.048a12.518 12.518 0 00-.688 1.31c-.045.11.2.335.306.507.058-.091.157-.174.168-.265C.547 1.064.592.532.643 0z" class="cls-1" transform="translate(77.178 106.013)"/><path id="Path_9568" d="M.054 0c.23 1.021 1.031 1.249 1.906 1.375l-.06.061L0 .057z" class="cls-1" transform="translate(133.896 96.714)"/><path id="Path_9569" d="M1.527.446C1.291.234 1.125-.02 1.01 0A6.062 6.062 0 000 .369a1.686 1.686 0 00.563.236 5.7 5.7 0 00.964-.159z" class="cls-1" transform="translate(128.426 31.56)"/><path id="Path_9570" d="M.191.768A3.177 3.177 0 00.33.21C.336.147.2.07.134 0A3.257 3.257 0 000 .55c-.006.065.123.143.191.218z" class="cls-1" transform="translate(108.367 9.165)"/><path id="Path_9571" d="M.576.257L.489 0a3.4 3.4 0 00-.484.236C-.02.252.058.424.088.523z" class="cls-1" transform="translate(88.184 73.98)"/><path id="Path_9572" d="M.527.3A2.469 2.469 0 00.2 0C.182-.011 0 .136 0 .2a1.989 1.989 0 00.137.465z" class="cls-1" transform="translate(83.732 81.314)"/><path id="Path_9573" d="M1.431.032Q.735.018.04 0C.025.464.013.929 0 1.393A1.618 1.618 0 001.431.032z" class="cls-1" transform="translate(61.274 101.547)"/><path id="Path_9574" d="M.489.1a1.413 1.413 0 00-.26-.1A4.288 4.288 0 000 .462a1.111 1.111 0 00.233.1A4.7 4.7 0 00.489.1z" class="cls-1" transform="translate(95.301 103.349)"/><path id="Path_9575" d="M1.369.763L.019.061.1 0 .056 1.393 0 1.342q.7-.323 1.407-.647z" class="cls-1" transform="translate(67.184 104.346)"/><path id="Path_9576" d="M.037 1.251c.163-.131.435-.236.475-.4A2.807 2.807 0 00.475 0a2.789 2.789 0 00-.456.658c-.062.185.045.427.075.644z" class="cls-1" transform="translate(153.837 142.51)"/><path id="Path_9577" d="M.26.207L.169 0 0 .28z" class="cls-1" transform="translate(82.375 164.747)"/><path id="Path_9578" d="M.043 0a5.391 5.391 0 00.47.384C.555.411.663.341.739.316L0 .049z" class="cls-1" transform="translate(67.022 162.812)"/><path id="Path_9579" d="M1.374.032L.046.652 0 .6 1.338 0z" class="cls-1" transform="translate(149.743 148.385)"/><path id="Path_9580" d="M.547.049Q.272.341 0 .636l.357.232C.4.578.445.29.489 0z" class="cls-1" transform="translate(152.697 145.101)"/><path id="Path_9581" d="M.744.049C.048.255.032.811.057 1.388L0 1.339.687 0z" class="cls-1" transform="translate(153.186 143.762)"/><path id="Path_9582" d="M.12 0L.051 1.519 0 1.471A.956.956 0 00.065.053z" class="cls-1" transform="translate(77.82 104.542)"/><path id="Path_9583" d="M1.289.709L0 .054.056 0l1.278.663z" class="cls-1" transform="translate(99.281 97.206)"/><path id="Path_9584" d="M.642 1.4C.688.83.695.276.008.046L.065 0 .046 1.367 0 1.319l.7.029z" class="cls-1" transform="translate(98.639 95.858)"/><path id="Path_9585" d="M.467.215L.217 0A3.38 3.38 0 000 .559C-.011.612.152.7.235.774L.467.215z" class="cls-1" transform="translate(104.729 95.652)"/><path id="Path_9586" d="M1.361.669L0 .053.054 0l1.361.612z" class="cls-1" transform="translate(132.535 96.102)"/><path id="Path_9587" d="M.527.48L.241 0 0 .284l.58.14z" class="cls-1" transform="translate(88.943 91.224)"/><path id="Path_9588" d="M.424.072A1.25 1.25 0 00.08 0C.045.007.025.121 0 .187z" class="cls-1" transform="translate(100.185 85.476)"/><path id="Path_9589" d="M.559.049L0 .642C.786.913.355.229.5 0z" class="cls-1" transform="translate(99.554 67.356)"/><path id="Path_9590" d="M.73.018C.043.234 0 .773.057 1.361L0 1.311.709 0z" class="cls-1" transform="translate(100.056 66.044)"/><path id="Path_9591" d="M0 .457L.362 0 .056.513z" class="cls-1" transform="translate(83.485 40.619)"/><path id="Path_9592" d="M.041 0l.085.081L0 .019z" class="cls-1" transform="translate(68.476 53.269)"/><path id="Path_9593" d="M.055 0L.2.16 0 .051z" class="cls-1" transform="translate(149.155 43.364)"/><path id="Path_9594" d="M0 .11L.751.7.695.749Q.406.374.115 0z" class="cls-1" transform="translate(148.46 42.666)"/><path id="Path_9595" d="M.641.677L0 0l.641.677z" class="cls-1" transform="translate(57.09 35.748)"/><path id="Path_9596" d="M.077 0L0 .13.029.015z" class="cls-1" transform="translate(37.04 34.493)"/><path id="Path_9597" d="M.1.3A.216.216 0 01.037 0 .219.219 0 01.1.3z" class="cls-1" transform="translate(56.871 35.255)"/><path id="Path_9598" d="M0 .066L.169 0 .048.051z" class="cls-1" transform="translate(37.068 34.442)"/><path id="Path_9599" d="M.13.012L0 .137.126 0z" class="cls-1" transform="translate(48.001 21.509)"/><path id="Path_9600" d="M.091.149L0 0l.14.1z" class="cls-1" transform="translate(118.371 23.222)"/><path id="Path_9601" d="M.052.261L0 0l.112.209z" class="cls-1" transform="translate(97.358 14.597)"/><path id="Path_9602" d="M0 .162L.183 0l-.16.18z" class="cls-1" transform="translate(98.697 69.798)"/><path id="Path_9603" d="M.112.018L0 .1.089 0z" class="cls-1" transform="translate(98.607 69.96)"/><path id="Path_9604" d="M.062.064L0 0z" class="cls-1" transform="translate(65.036 6.657)"/><path id="Path_9605" d="M0 .078L.1 0 .024.107z" class="cls-1" transform="translate(158.319 74.111)"/><path id="Path_9606" d="M.768.054L.062.706 0 .642C.241.429.48.214.719 0z" class="cls-1" transform="translate(65.036 6.015)"/><path id="Path_9607" d="M.666.495C.516-.143.293-.159 0 .415l.07.07.323.032.318-.081z" class="cls-1" transform="translate(99.227 72.87)"/><path id="Path_9608" d="M.72.051L.049.695 0 .642.674 0z" class="cls-1" transform="translate(65.755 5.373)"/><path id="Path_9609" d="M.131.2L0 0l.188.143z" class="cls-1" transform="translate(97.152 73.089)"/><path id="Path_9610" d="M0 .695L.633 0l.052.062-.639.684z" class="cls-1" transform="translate(66.429 4.678)"/><path id="Path_9611" d="M0 .155L.387.011C.331.01.26-.014.225.013a1.128 1.128 0 00-.172.2z" class="cls-1" transform="translate(67.061 4.523)"/><path id="Path_9612" d="M.183.053L0 0l.025.16z" class="cls-1" transform="translate(76.121 1.916)"/><path id="Path_9613" d="M.176 0L0 .076l.129-.05z" class="cls-1" transform="translate(165.456 78.365)"/><path id="Path_9614" d="M.653.051l-.6.714L0 .709.6 0z" class="cls-1" transform="translate(6.887 76.226)"/><path id="Path_9615" d="M.255.057L0 .111.2 0z" class="cls-1" transform="translate(6.687 76.935)"/><path id="Path_9616" d="M.038 0L0 .037z" class="cls-1" transform="translate(74.369 83.937)"/><path id="Path_9617" d="M.338.057L0 .242C.051.233.123.242.151.21A1.053 1.053 0 00.285 0z" class="cls-1" transform="translate(76.111 84.673)"/><path id="Path_9618" d="M0 .11l.188.08L.172 0z" class="cls-1" transform="translate(86.485 87.79)"/><path id="Path_9619" d="M0 .3L.322 0C.249.021.139.021.112.067a.849.849 0 00-.058.285z" class="cls-1" transform="translate(78.107 93.719)"/><path id="Path_9620" d="M.087.164L0 0l.142.111z" class="cls-1" transform="translate(132.448 95.99)"/><path id="Path_9621" d="M0 .066L.136 0 .059.129z" class="cls-1" transform="translate(80.719 96.638)"/><path id="Path_9622" d="M0 .1L.077 0 0 .141z" class="cls-1" transform="translate(68.798 96.397)"/><path id="Path_9623" d="M.652.751Q.324.406 0 .061L.061 0l.6.743z" class="cls-1" transform="translate(135.795 98.089)"/><path id="Path_9624" d="M0 .677L.738 0l.046.048-.728.687z" class="cls-1" transform="translate(97.901 97.177)"/><path id="Path_9625" d="M.723.062L.051.8 0 .741.664 0z" class="cls-1" transform="translate(80.054 96.704)"/><path id="Path_9626" d="M.009 0l.124.136L0 .008z" class="cls-1" transform="translate(136.447 98.831)"/><path id="Path_9627" d="M.72.727L0 .046.045 0Q.372.351.7.7z" class="cls-1" transform="translate(100.57 97.869)"/><path id="Path_9628" d="M.225.055L0 .151.171 0z" class="cls-1" transform="translate(76.578 97.298)"/><path id="Path_9629" d="M.059.135L0 0l.126.073z" class="cls-1" transform="translate(103.138 99.213)"/><path id="Path_9630" d="M0 0l.166.089L.021.025z" class="cls-1" transform="translate(101.27 98.57)"/><path id="Path_9631" d="M.672.741L0 .064.067 0l.645.7z" class="cls-1" transform="translate(103.198 99.285)"/><path id="Path_9632" d="M0 .064L.145 0l-.1.07z" class="cls-1" transform="translate(79.904 99.303)"/><path id="Path_9633" d="M.712.744L0 .056.059 0l.712.687z" class="cls-1" transform="translate(97.818 99.856)"/><path id="Path_9634" d="M0 .07L.274 0 .056.131z" class="cls-1" transform="translate(74.646 99.781)"/><path id="Path_9635" d="M.051.146L0 0l.108.091z" class="cls-1" transform="translate(97.102 101.042)"/><path id="Path_9636" d="M.743.061l-.7.686L0 .7.687 0z" class="cls-1" transform="translate(73.959 99.851)"/><path id="Path_9637" d="M.057 0L.2.161 0 .055z" class="cls-1" transform="translate(97.153 101.133)"/><path id="Path_9638" d="M.618.105L.3.126.025 0H0l.7.057z" class="cls-1" transform="translate(103.784 102.633)"/><path id="Path_9639" d="M.813.065L0 .049.083 0h.658z" class="cls-1" transform="translate(104.403 102.689)"/><path id="Path_9640" d="M0 .032L.288 0 .057.094z" class="cls-1" transform="translate(64.544 102.225)"/><path id="Path_9641" d="M0 0l.182.076-.166-.06z" class="cls-1" transform="translate(78.563 103.315)"/><path id="Path_9642" d="M.757 0L0 .719z" class="cls-1" transform="translate(60.587 102.866)"/><path id="Path_9643" d="M.759 0C.505.237.253.476 0 .714z" class="cls-1" transform="translate(59.905 103.513)"/><path id="Path_9644" d="M.755 0L0 .72.755 0z" class="cls-1" transform="translate(59.225 104.155)"/><path id="Path_9645" d="M0 .051L.126 0 0 .085z" class="cls-1" transform="translate(173.408 108.323)"/><path id="Path_9646" d="M.664 0L0 .04z" class="cls-1" transform="translate(58.648 104.818)"/><path id="Path_9647" d="M.087.034L0 .147.088 0z" class="cls-1" transform="translate(173.321 108.374)"/><path id="Path_9648" d="M0 0l.048.051z" class="cls-1" transform="translate(172.039 110.331)"/><path id="Path_9649" d="M.177.151L0 0l.166.116z" class="cls-1" transform="translate(148.642 109.618)"/><path id="Path_9650" d="M.2.051L0 .19.153 0z" class="cls-1" transform="translate(98.846 107.79)"/><path id="Path_9651" d="M0 .133l.237.1L.222 0z" class="cls-1" transform="translate(73.991 107.392)"/><path id="Path_9652" d="M.825.051L.056.728 0 .68.778 0z" class="cls-1" transform="translate(171.261 110.331)"/><path id="Path_9653" d="M0 0l.094.163L.011.035z" class="cls-1" transform="translate(148.808 109.734)"/><path id="Path_9654" d="M.043.134L0 0l.1.082z" class="cls-1" transform="translate(149.94 111.731)"/><path id="Path_9655" d="M.053 0L.06.165 0 .047z" class="cls-1" transform="translate(17.348 107.667)"/><path id="Path_9656" d="M.058 0l.156.108L0 .052z" class="cls-1" transform="translate(149.983 111.812)"/><path id="Path_9657" d="M0 .1L.226 0 .051.153z" class="cls-1" transform="translate(76.343 110.484)"/><path id="Path_9658" d="M.719.056C.5.271.271.484.048.7L0 .645.668 0z" class="cls-1" transform="translate(167.905 114.924)"/><path id="Path_9659" d="M.252.054L0 .112.2 0z" class="cls-1" transform="translate(167.701 115.569)"/><path id="Path_9660" d="M.064 0l.092.384C.163.335.194.269.174.237A1.261 1.261 0 000 .053z" class="cls-1" transform="translate(81.497 145.166)"/><path id="Path_9661" d="M0 .075L.121 0 .034.106z" class="cls-1" transform="translate(151.082 148.31)"/><path id="Path_9662" d="M1.359 1.307H.701L0 1.251a12.861 12.861 0 00.161 2.588A4.327 4.327 0 001.34 6.076c.387.311 1.348-.145 2.056-.161.837-.019 1.675.067 2.513.108l-.049.049a25.122 25.122 0 00.11-2.851C5.856 1.581 5.185.3 3.365 0 3.3 1.367 2.3 1.294 1.359 1.307z" class="cls-2" transform="translate(103.784 101.382)"/><path id="Path_9663" d="M19.519.259C16.1.223 12.68.2 9.261.146 7.715.122 6.16-.075 4.624.031a5.237 5.237 0 00-4.583 2.8c-.081.155-.032.551.062.591a1.472 1.472 0 00.829.081.862.862 0 00.5-.41C2.693.733 4.807.543 7.122.8c2.414.266 4.825.586 7.247.715 1.844.1 3.77.3 5.4-.961-.082-.1-.169-.198-.25-.295z" class="cls-2" transform="translate(106.921 147.337)"/><path id="Path_9664" d="M5.058.045C3.812 1.041 3.82 2.53 3.545 3.9 3.039 6.441 2.167 8.774 0 10.4c.084.1.167.194.25.292a3.061 3.061 0 002.5-1.906A17.439 17.439 0 005 0z" class="cls-2" transform="translate(126.44 137.196)"/><path id="Path_9665" d="M.739 0Q.369 1 0 2.006c1.012.59 1.42.512 1.35-.308A6.844 6.844 0 00.739 0z" class="cls-2" transform="translate(100.408 102.552)"/><path id="Path_9666" d="M.054 0l.269.819.335-.271L0 .051z" class="cls-2" transform="translate(110.311 108.145)"/><path id="Path_9667" d="M.064 0l.159.575L0 .049z" class="cls-2" transform="translate(103.78 127.91)"/><path id="Path_9668" d="M.411.84L.362 0 0 .175.475.79z" class="cls-2" transform="translate(103.368 127.12)"/><path id="Path_9669" d="M.064 0l.253.819C.771.331.483.155 0 .056z" class="cls-2" transform="translate(94.875 113.026)"/><path id="Path_9670" d="M.059 0c.124.17.218.4.386.489C.542.542.759.371.923.3a1.4 1.4 0 00-.29-.133C.425.12.212.1 0 .061z" class="cls-2" transform="translate(118.543 99.655)"/><path id="Path_9671" d="M1.383.727L0 .056.049 0c.176.825.867.575 1.393.666z" class="cls-2" transform="translate(117.16 98.989)"/><path id="Path_9672" d="M.668.79L0 .049.049 0l.673.739z" class="cls-2" transform="translate(109.643 107.406)"/><path id="Path_9673" d="M0 .108L.123 0 .011.123z" class="cls-2" transform="translate(99.592 111.092)"/><path id="Path_9674" d="M6.5 0C4.632.907 2.734 1.766.9 2.738-.255 3.346-.276 4.165.709 5.019c.666.577 1.4 1.092 2 1.727 1.665 1.748 1.633 2.277.617 4.669a14.383 14.383 0 00-.58 3.185c.661-1.331 1.375-2.637 1.965-4a2.782 2.782 0 00-.193-2.817A35.322 35.322 0 002.107 4.71c-.888-.986-.911-1.146.307-1.748C3.947 2.207 5.756 1.836 6.5 0z" class="cls-2" transform="translate(24.734 59.586)"/><path id="Path_9675" d="M.056 0c1.757 1.646 3.475 3.34 5.285 4.925 1.826 1.6 3.73 3.11 5.631 4.623a7.8 7.8 0 001.428.725l-.049.046a5.55 5.55 0 00-.851-1.327A562.76 562.76 0 002 1.015a9.23 9.23 0 00-2-.958z" class="cls-2" transform="translate(60.751 71.645)"/><path id="Path_9676" d="M6.844 0A25.323 25.323 0 000 4.535 13.626 13.626 0 006.844 0z" class="cls-2" transform="translate(16.466 83.959)"/><path id="Path_9677" d="M.045 0a11.737 11.737 0 005.876 2.816l-.041.046A9.833 9.833 0 000 .051z" class="cls-2" transform="translate(58.004 76.218)"/><path id="Path_9678" d="M3.49 0A11.066 11.066 0 000 3.973 4.84 4.84 0 003.49 0z" class="cls-2" transform="translate(31.159 55.68)"/><path id="Path_9679" d="M4.546 2.137C3.22 1.423 1.9.7.559.013.438-.05.19.135 0 .205c.092.163.142.407.281.478 1.358.7 2.664 1.585 4.312 1.4z" class="cls-2" transform="translate(54.699 77.479)"/><path id="Path_9680" d="M2.812 0C1.31.631.744 2.054 0 3.326 1.769 2.919 2.412 1.563 2.812 0z" class="cls-2" transform="translate(23.228 80.701)"/><path id="Path_9681" d="M.054 0a4.887 4.887 0 003.227 2.755l-.056.057C2.7 1.248 1.31.7 0 .057z" class="cls-2" transform="translate(57.526 68.89)"/><path id="Path_9682" d="M2.8 0C1.568.575.257 1.066 0 2.663 1.152 2.006 2.339 1.386 2.8 0z" class="cls-2" transform="translate(11.727 89.705)"/><path id="Path_9683" d="M.829 0C-.368 1.413.177 3.133 0 4.725 1.2 3.313.765 1.613.829 0z" class="cls-2" transform="translate(26.699 74.088)"/><path id="Path_9684" d="M2.033 1.692L0 0c.153 1.238 1.077 1.49 2.088 1.635z" class="cls-2" transform="translate(65.331 71.499)"/><path id="Path_9685" d="M.008 0a1.968 1.968 0 001.336 2.108A1.918 1.918 0 00.008 0z" class="cls-2" transform="translate(19.858 111.759)"/><path id="Path_9686" d="M2.107 0A1.954 1.954 0 000 1.339z" class="cls-2" transform="translate(14.445 88.436)"/><path id="Path_9687" d="M0 0l2.054 1.286L2 1.343C1.678.379.86.185 0 .054z" class="cls-2" transform="translate(55.526 67.604)"/><path id="Path_9688" d="M1.254.46C1.114.307 1 .063.83.024A2.877 2.877 0 000 .059a3.614 3.614 0 00.674.358A2.073 2.073 0 001.3.406z" class="cls-2" transform="translate(53.388 74.436)"/><path id="Path_9689" d="M.046 0l2.011.677-.051.058C1.514-.01.757.022 0 .054z" class="cls-2" transform="translate(54.642 74.842)"/><path id="Path_9690" d="M.771 0C-.144.443.015 1.286 0 2.065.912 1.619.815.8.771 0z" class="cls-2" transform="translate(25.976 78.72)"/><path id="Path_9691" d="M.6 1.385L0 .054.056 0q.3.669.606 1.337z" class="cls-2" transform="translate(29.91 109.402)"/><path id="Path_9692" d="M.062 0l.07.588.33-.206L0 .053z" class="cls-2" transform="translate(28.643 106.662)"/><path id="Path_9693" d="M.754 0L0 1.4z" class="cls-2" transform="translate(10.342 93.598)"/><path id="Path_9694" d="M.757 0L0 1.4z" class="cls-2" transform="translate(11.035 92.285)"/><path id="Path_9695" d="M0 .37l1.423.569.077-.09Q.923.424.339 0C.225.123.112.245 0 .37z" class="cls-2" transform="translate(66.36 80.274)"/><path id="Path_9696" d="M0 .065l1.174.854q.167-.184.339-.368Q.787.274.057 0z" class="cls-2" transform="translate(65.186 79.722)"/><path id="Path_9697" d="M1.358.688L0 .046.04 0C.169.741.751.722 1.3.754z" class="cls-2" transform="translate(63.886 79.034)"/><path id="Path_9698" d="M.051 0Q.725.351 1.4.7l-.044.051L0 .057z" class="cls-2" transform="translate(56.648 75.519)"/><path id="Path_9699" d="M.039.169L0 0l.041.115z" class="cls-2" transform="translate(55.487 67.49)"/><path id="Path_9700" d="M.049 0Q.386.344.72.692L.66.749 0 .048z" class="cls-2" transform="translate(73.102 81.918)"/><path id="Path_9701" d="M.112.182L0 0l.167.128z" class="cls-2" transform="translate(29.798 109.274)"/><path id="Path_9702" d="M5.785 0a14.733 14.733 0 00-1.308 1.817c-.414.8-.763 1.527-1.8 1.692a1.628 1.628 0 00-1.312 2.235c.711 1.99-.1 3.663-.746 5.367-.432 1.149-.894 2.22-.419 3.447l-.062-.045c.54-1.292 1.071-2.589 1.627-3.875.516-1.2.891-2.452 2.081-3.275.479-.329 1.054-1.163.943-1.593-.465-1.794.445-3.17 1.052-4.67a3.281 3.281 0 00.073-.976z" class="cls-2" transform="translate(91.726 61.939)"/><path id="Path_9703" d="M.051 0c-.108 1.353.806 1.667 1.855 1.742a29.3 29.3 0 017.019 1.431 21.561 21.561 0 017.41 4l.285-.253c-.253-1.2-1.216-1.718-2.164-2.275A30.511 30.511 0 003.083.862 25.6 25.6 0 010 .04z" class="cls-2" transform="translate(125.814 45.472)"/><path id="Path_9704" d="M15.273 3.056c-1.514.2-3.05.29-4.532.623A19.042 19.042 0 007.37 4.937c-2.365 1.036-3.216.779-4.645-1.413C1.912 2.279 1.617.625 0 0a13.736 13.736 0 002.967 5.408 4.512 4.512 0 002.3 1.042 2.415 2.415 0 001.6-.277 17.441 17.441 0 016.897-2.043c.536-.051 1.007-.699 1.509-1.074z" class="cls-2" transform="translate(104.846 35.567)"/><path id="Path_9705" d="M0 2.005c.768.472 1.49.97 1.287 2.049A10.885 10.885 0 002.519 3.9C4.6 3.4 4.594 3.4 4.908.977L4.54.617C1.852-.363 1.852-.363 0 2.005z" class="cls-2" transform="translate(101.871 71.393)"/><path id="Path_9706" d="M9.768 10.284c-.093-2.32-1.927-3.6-3.254-5.09A54.354 54.354 0 001.2.386 3.379 3.379 0 000 0c1.1 1.173 2.123 2.424 3.3 3.5a26.521 26.521 0 014.838 5.26 8.678 8.678 0 001.63 1.524z" class="cls-2" transform="translate(95.137 25.363)"/><path id="Path_9707" d="M.368 9.3C3.353 6.492 6.3 3.646 8.3 0l.056.048A55.084 55.084 0 000 8.943l.368.357z" class="cls-2" transform="translate(106.41 63.067)"/><path id="Path_9708" d="M.57 7.948A27.29 27.29 0 00.4 0C.1 2.645-.435 5.3.617 7.908z" class="cls-2" transform="translate(125.244 37.564)"/><path id="Path_9709" d="M3.472 0C2.027.5 1.082 1.651 0 2.629A3.714 3.714 0 003.472 0z" class="cls-2" transform="translate(120.028 36.05)"/><path id="Path_9710" d="M.641 0L.323.081 0 .049c1.17 1.77 1.625 1.77 2.65 0C1.976.209 1.284 1.122.641 0z" class="cls-2" transform="translate(99.297 73.306)"/><path id="Path_9711" d="M.129 2.049A2 2 0 001.377 0l.048.049L0 1.925z" class="cls-2" transform="translate(97.511 60.014)"/><path id="Path_9712" d="M.722.053L0 1.327l.011.011C.8 1.174.714.575.672 0z" class="cls-2" transform="translate(87.63 59.069)"/><path id="Path_9713" d="M0 .539L.489.223.166 0C.126.2.086.394.048.59z" class="cls-2" transform="translate(88.995 57.876)"/><path id="Path_9714" d="M.787.056Q.419.677.054 1.3L0 1.248.739 0z" class="cls-2" transform="translate(92.995 56.633)"/><path id="Path_9715" d="M0 .448L.281 0C.2.167.124.336.048.5z" class="cls-2" transform="translate(93.734 56.185)"/><path id="Path_9716" d="M0 .115L.149 0 .057.173z" class="cls-2" transform="translate(99.63 59.229)"/><path id="Path_9717" d="M0 .655L.693 0l.048.051-.692.656z" class="cls-2" transform="translate(88.302 58.415)"/><path id="Path_9718" d="M.8.059L.048.72 0 .671.743 0z" class="cls-2" transform="translate(98.888 59.344)"/><path id="Path_9719" d="M0 .147L.187 0 .052.2z" class="cls-2" transform="translate(116.172 61.609)"/><path id="Path_9720" d="M.733.053L.048.685 0 .636.682 0z" class="cls-2" transform="translate(115.49 61.756)"/><path id="Path_9721" d="M.827.049L.056.723 0 .676.779 0z" class="cls-2" transform="translate(114.711 62.392)"/><path id="Path_9722" d="M0 .369C.425.332.852.31 1.275.252c.1-.013.177-.142.264-.217A.869.869 0 001.224.01C.829.136.44.284.049.424z" class="cls-2" transform="translate(120.873 81.425)"/><path id="Path_9723" d="M0 .592a7.423 7.423 0 017.12 3.12c.166.225.555.287.84.424C6.2.316 3.6-.839 0 .592z" class="cls-2" transform="translate(40.321 141.64)"/><path id="Path_9724" d="M2.635 0A5.752 5.752 0 000 4.138L2.975.32z" class="cls-2" transform="translate(70.503 102.417)"/><path id="Path_9725" d="M1.831 0C1.227.582.609 1.15.032 1.758c-.086.091.027.37.048.561.177-.032.454 0 .518-.105.438-.72.833-1.468 1.241-2.205z" class="cls-2" transform="translate(70.479 113.805)"/><path id="Path_9726" d="M0 1.292C1.271 1.2 2.559 1.149 3.435 0A4.355 4.355 0 000 1.292z" class="cls-2" transform="translate(36.975 142.188)"/><path id="Path_9727" d="M1.437 0Q.735.325.03.647l.026 1.377L0 1.963A2.182 2.182 0 001.437 0z" class="cls-2" transform="translate(67.154 105.041)"/><path id="Path_9728" d="M1.5 1.393L1.538 0C.7-.02.308.523 0 1.185l.257.272z" class="cls-2" transform="translate(65.742 104.346)"/><path id="Path_9729" d="M.047 0c-.1.631-.121 1.23.682 1.433Q.39.715.047 0z" class="cls-2" transform="translate(48.825 146.372)"/><path id="Path_9730" d="M0 1.366L.636 0l.056.059Q.366.7.043 1.353z" class="cls-2" transform="translate(64.537 106.295)"/><path id="Path_9731" d="M.5.043L0 .338.325.6.456 0z" class="cls-2" transform="translate(64.126 103.623)"/><path id="Path_9732" d="M.569 0C.4.274.226.548.056.824L0 .765C.274.6.55.435.826.272L.569 0z" class="cls-2" transform="translate(65.173 105.53)"/><path id="Path_9733" d="M.464.061L0 .239.408 0z" class="cls-2" transform="translate(66.746 107.004)"/><path id="Path_9734" d="M.166 0L0 .079.123.013z" class="cls-2" transform="translate(64.414 107.647)"/><path id="Path_9735" d="M0 0l.719.755z" class="cls-2" transform="translate(48.214 145.7)"/></g></g></svg>