<svg width="506" height="504" viewBox="0 0 506 504" fill="none" xmlns="http://www.w3.org/2000/svg">
<g clip-path="url(#clip0)">
<path d="M138.3 97.1C138.3 97.1 146.3 70.7 155.1 79C163.9 87.3 147 87.3 138.3 97.1Z" fill="white"/>
<path d="M157.5 100C157.5 100 180 80.4001 192.2 90.2001C204.4 100 182.5 100.5 157.5 100Z" fill="white"/>
<path d="M147.9 114.2C147.9 114.2 169.5 105 177.9 120.1C186.3 135.2 166.2 124.9 147.9 114.2Z" fill="white"/>
<path d="M394.7 503.3C389.5 503.5 384.2 503.5 378.6 503.2C378.1 503.2 377.5 503.1 377 503.1C372.7 502.8 368.3 502.4 363.8 501.8C358.7 501.1 353.5 500.3 348.2 499.2C340.6 497.7 332.8 495.6 324.7 493.2C313.3 489.7 301.4 485.3 288.9 479.8C272.3 472.5 240.3 479.5 204.6 487.4C197.2 489 189.6 490.7 182 492.3C177.3 493.3 172.7 494.2 168 495.1C155.7 497.5 143.4 499.4 131.6 500.5C100.4 503.4 72.4997 500 55.9997 481.3C8.29969 427.3 58.7997 249 160.7 206.3C262.6 163.6 327.9 198.5 360.4 246.2C392.9 293.9 376.3 338.1 458.8 344.8C535.9 351.2 519.3 498.2 394.7 503.3Z" fill="#DAEDEC"/>
<path d="M471.4 302.4C453.1 318.6 415 318 382.4 241.7C359.7 188.4 327.5 185.1 299.7 160.4C272 135.8 275.9 47.5 356.8 38.9C409.1 33.3 357.3 117.9 460.3 141.4C515.5 154 505.4 272.4 471.4 302.4Z" fill="#DAEDEC"/>
<path d="M142.5 82.6C158.2 70 168.5 9.50003 227 0.80003C285.5 -7.89997 290 135.8 227 147.8C164 159.7 115.5 177.6 75.7998 227C36.0998 276.4 -22.7002 203.5 9.09979 147.7C27.3998 115.5 70.7998 140.1 142.5 82.6Z" fill="#DAEDEC"/>
<path d="M269.3 271.3C269.3 271.3 266 265.5 266.4 263.6C266.8 261.7 259.9 246.4 257.7 244.8C255.4 243.2 258.8 253.3 256.6 255.4C254.5 257.5 237.7 240.8 234.2 241.8C230.8 242.7 226.3 255.8 229.8 261.5C233.4 267.2 244.2 281.1 247.3 282.9C250.3 284.8 260.9 288.3 260.9 288.3L269.3 271.3Z" fill="#EDB1AE"/>
<path d="M268 268.6L251 294.1C251 294.1 293.5 339.4 309.8 336.5C326.1 333.6 351.9 311.3 351.9 311.3L353.6 251.9C353.6 251.9 328.7 301.4 313.8 298.6C296.9 295.3 268 268.6 268 268.6Z" fill="#69BCB8"/>
<path d="M371.8 481.4L363.8 501.9C351.6 500.3 338.5 497.5 324.6 493.2C327.8 463.6 339.4 375 339.4 375C339.4 375 361.9 371.8 362.7 373.1C363.6 374.4 371.8 481.4 371.8 481.4Z" fill="#0C6D6A"/>
<path d="M393 426.3C393.2 427.7 394 477.7 394.7 503.4C385.1 503.8 374.8 503.3 363.8 501.9C358.7 501.2 353.5 500.4 348.2 499.3L344 425.9C344 425.9 339.8 423.8 336.9 418.8C334 413.8 336.9 379.1 336.9 379.1H405.5C407.8 413.3 392.7 424.4 393 426.3Z" fill="#137F7F"/>
<path d="M379.8 375.4L378.6 503.2C378.1 503.2 377.5 503.1 377 503.1L378.2 375.4H379.8Z" fill="#0C6D6A"/>
<path d="M378.6 419.4C374.7 419.3 371.3 417.8 368.5 414.9C364.5 410.7 361.7 403.8 360.3 394.2C359.3 387.2 359.4 381.2 359.4 381.2H361C361 381.4 360.6 404.3 369.6 413.8C372.1 416.4 375.1 417.7 378.5 417.8L378.6 419.4Z" fill="#0C6D6A"/>
<path d="M386 231.2L368.6 233.4L364.4 233.9C362.5 225.9 357.3 223.8 357.3 223.8L370 215.4L380.5 208.5L384.6 218.8L386 231.2Z" fill="#F7BCB7"/>
<path d="M365.9 225.3C366.3 227.4 367.5 230.7 368.6 233.4L364.4 233.9C362.5 225.9 357.3 223.8 357.3 223.8L370 215.4C370.9 215.5 371.4 215.6 371.4 215.6C371.4 215.6 365.2 221.2 365.9 225.3Z" fill="#DB9795"/>
<path d="M356.8 243.7C356.8 243.7 359.3 233.7 359.8 233.2C360.3 232.7 387 227 387 227L388.1 235.3L356.8 243.7Z" fill="#137F7F"/>
<path d="M415 384.2C415 384.2 373.7 381.5 364 383.3C354.3 385.1 333.4 385.3 326.1 377.1C326.1 377.1 327.2 371.2 329.1 361.9C329.9 358.1 330.7 353.8 331.7 349C333.5 340.2 335.6 330.1 337.8 319.7C345.3 284.2 354.1 245 356.9 243.6C356.9 243.6 361.9 241 365.3 239.6C368.8 238.2 389 231 394.4 238.2C400 245.8 415 302 415 384.2Z" fill="#79CCCA"/>
<path d="M360.2 276.2C360.2 281 337.7 319.7 337.7 319.7C345.2 284.2 354 245 356.8 243.6C356.8 243.6 365.9 245.4 365.9 246.4C365.9 247.4 348.4 262.5 351.8 265.5C355.2 268.5 360.2 271.5 360.2 276.2Z" fill="#FFCF50"/>
<path d="M405.7 314.4C403.9 345.5 392.9 377.7 388.1 378.9C384.5 379.8 347.3 367.9 329 362C329.8 358.2 330.6 353.9 331.6 349.1L348.3 336.5C348.3 336.5 368.6 348.1 370.5 350C372.5 351.9 395.5 340.8 395.5 340.8L397 255.5C397 255.5 407.5 283.3 405.7 314.4Z" fill="#69BCB8"/>
<path d="M388.1 370.9C378.1 370.9 334.8 352.6 334.8 352.6C334.8 352.6 329.1 348.5 321.8 343.5C314.6 338.5 323.3 314.9 323.5 314.4C323.5 314.4 366.8 334.1 368.1 331.5C369.4 328.9 367 292.1 367 273.3C367 254.5 386.3 247.1 396.9 255.6C407.6 264 398 370.9 388.1 370.9Z" fill="#79CCCA"/>
<path d="M334.7 352.7C334.7 352.7 329 348.6 321.7 343.6C319.8 342.3 319 339.7 318.9 336.6C318.5 327.8 323.3 314.8 323.4 314.5C323.4 314.5 327.3 326 330.4 336.5C332.7 343.5 334.5 350.1 334.7 352.7Z" fill="#5CADA7"/>
<path d="M329.6 367.6C329.6 367.5 329.3 359.4 325.3 351.4C320.1 340.9 311.3 335.6 299.2 335.6C290.9 335.6 284.3 338.1 279.4 343C270.2 352.3 270.2 367.3 270.2 367.4H267C267 366.7 267 351 277.1 340.7C282.6 335.1 290 332.3 299.2 332.3C331.3 332.3 332.8 367 332.8 367.3L329.6 367.6Z" fill="#F9AF38"/>
<path d="M330.5 336.4L320.4 334.8C320.4 334.8 319.8 335.5 318.9 336.6C317.2 338.7 314.5 342.2 313.8 343.9C312.7 346.5 291.2 342.7 289.8 341.7C288.5 340.6 288.5 332.3 289.8 326.7C290.5 324 295.2 321.7 299.9 320C299.9 319.9 299.9 319.8 299.9 319.7C299.6 313.7 311.9 311.7 316 311.6C317.9 311.5 320.8 312.9 323.4 314.4C323.5 314.4 327.4 325.9 330.5 336.4Z" fill="#F7BCB7"/>
<path d="M345.3 372.6V429.9C345.3 432.7 343 435 340.2 435H259.2C256.4 435 254.1 432.7 254.1 429.9V372.6C254.1 369.8 256.4 367.5 259.2 367.5H340.2C343.1 367.5 345.3 369.8 345.3 372.6Z" fill="#FFCF50"/>
<path d="M345.3 372.6L341.4 397.9C341 400.4 338.9 402.2 336.4 402.2H262.8C260.3 402.2 258.1 400.4 257.8 397.9L254.1 372.7C254.1 369.9 256.4 367.6 259.2 367.6H340.2C343.1 367.5 345.3 369.8 345.3 372.6Z" fill="#2A425B"/>
<path d="M341.6 374.2L338.1 395.3C337.8 397.4 335.8 398.9 333.5 398.9H265.9C263.6 398.9 261.6 397.4 261.3 395.3L257.9 374.2C257.9 371.8 260 369.9 262.6 369.9H337C339.5 370 341.6 371.9 341.6 374.2Z" fill="#137F7F"/>
<path d="M271.7 396.4C272.7 396.4 273.6 397.2 273.6 398.3V405.4C273.6 406.4 272.8 407.3 271.7 407.3C270.7 407.3 269.8 406.5 269.8 405.4V398.3C269.9 397.2 270.7 396.4 271.7 396.4Z" fill="#F9AF38"/>
<path d="M328.9 396.4C329.9 396.4 330.8 397.2 330.8 398.3V405.4C330.8 406.4 330 407.3 328.9 407.3C327.9 407.3 327 406.5 327 405.4V398.3C327.1 397.2 327.9 396.4 328.9 396.4Z" fill="#F9AF38"/>
<path d="M272.8 365.1H264.2V367.5H272.8V365.1Z" fill="#2A425B"/>
<path d="M335.5 365.1H326.9V367.5H335.5V365.1Z" fill="#2A425B"/>
<path d="M355.2 183.1C355.1 183.5 353.4 196.4 352.8 200.2C352.7 200.6 352.5 200.9 352.3 201.1L349.1 203.7C348.4 204.2 348.4 205.2 348.9 205.9L351.1 208.4C351.4 208.7 351.5 209 351.5 209.4C351.5 212.3 351.5 225 352.7 225.3C354 225.6 367.4 219.6 371.4 215.7C374.7 212.4 382.3 212.9 384.8 213.2C385.3 213.3 385.8 213.1 386.1 212.7L392.1 205.5C392.4 205.2 392.5 204.8 392.4 204.4C392.1 201.4 390.8 188.2 390.8 187.9C390.8 187.6 373.1 176.8 372.4 176.7C371.8 176.5 356 177.5 355.2 183.1Z" fill="#F7BCB7"/>
<path d="M377.3 197.5C377.3 197.5 376 187 372.4 188.4C368.8 189.8 357.1 195 353.3 189.3C349.5 183.6 356.8 179 356.8 179L382.4 179.7L377.3 197.5Z" fill="#DB9795"/>
<path d="M377.3 197.5C377.3 197.5 380.3 192.5 384.1 194.7C387.9 196.9 384.4 209.9 377.3 210C377.3 210 373.2 220 377.3 221.2C381.4 222.4 381 219.9 384.9 222.4C388.9 224.9 409.2 200.5 409 198.3C408.8 196 405.6 172.2 394.4 169.8C383.2 167.4 364.7 168.9 361.4 165.3C358.1 161.7 355.7 153.6 351 154.3C346.2 155 335.3 184.5 354 191.2L355.6 186.2C355.6 186.2 356.6 190 359.2 189.3C361.8 188.6 372.1 185.3 374.3 187.9C376.6 190.4 377.3 197.5 377.3 197.5Z" fill="#2A425B"/>
<path d="M383.5 197.6C383.5 197.6 377.4 197.1 378.5 203.2C378.5 203.1 378.8 199.1 383.5 197.6Z" fill="#DB9795"/>
<path d="M204.6 487.4C192.7 490 180.3 492.8 168 495.2V387.2L200.9 391.3L204.6 487.4Z" fill="#0C6D6A"/>
<path d="M190.4 433.2L181.9 492.3C177.2 493.3 172.6 494.2 167.9 495.1C155.6 497.5 143.3 499.4 131.5 500.5C133.4 481.8 137 446.7 137.2 445.4C137.5 443.7 116.8 444 125.8 396.3L198.5 393C198.5 393.1 200.2 431.3 190.4 433.2Z" fill="#137F7F"/>
<path d="M181.1 241.7C181.1 241.7 205 341 227 348.2C227 348.2 217.5 378.6 197.1 377.6L181.1 241.7Z" fill="#5CADA7"/>
<path d="M135.8 246.2C135.8 246.2 89.8998 309.8 85.5998 323C81.3998 336.2 116.3 384.4 116.3 384.4C116.3 384.4 124 381 126.4 377.5C128.8 374 124.3 339.3 124.3 339.3C124.3 339.3 119.8 332 117.7 328.1C115.6 324.2 127.5 311.5 127.5 311.5L135.8 246.2Z" fill="#69BCB8"/>
<path d="M190.8 202C190.7 203.1 190.5 204.2 190.3 205.3C190.2 205.6 190.2 205.9 190.1 206.1C189.1 210.5 187.5 214 185.4 216.6C181.2 221.9 175.2 223.3 169.3 221C166.4 219.9 163.2 212.7 161.6 208.8C161 207.3 160.7 206.3 160.7 206.3L142.6 199.5L148.2 187C148.2 187 179.2 156.6 185.1 173.5C185.1 173.5 187.1 177.8 188.7 183.9C190.1 189.2 191.3 195.8 190.8 202Z" fill="#F7BCB7"/>
<path d="M169.1 224.7C169.4 225.7 165.7 227.1 161.1 228.4C154.3 230.4 145.5 232.2 145.5 232.2L147.3 209L156.4 206.3L157.2 206.1L164.3 204L164.9 205.9L169.9 221.5C170 221.3 168.4 222.2 169.1 224.7Z" fill="#F7BCB7"/>
<path d="M161.4 179.8L167.8 177.9C167.8 177.9 174.4 188.8 181.1 183.4C187.8 177.9 186.5 174.9 186.5 174.9L176.7 171.3C176.7 171.3 160.4 170.4 160 170.9C159.7 171.4 161.4 179.8 161.4 179.8Z" fill="#DB9795"/>
<path d="M169.1 224.7C169.4 225.7 165.7 227.1 161.1 228.4C161.4 227.1 161.9 225 162.8 222.1C164.3 217 158.6 211.5 158.6 211.5L156.4 206.2L156.3 206C156.3 206 156.6 206 157.2 206C158.8 205.9 162.2 205.8 164.9 205.7L169.9 221.3C170 221.3 168.4 222.2 169.1 224.7Z" fill="#DB9795"/>
<path d="M176.9 134.5C156.5 129.5 149.9 154.4 144.7 154.3C139.5 154.2 132.9 158.4 133.5 168.5C134 178.6 124.2 183 126.6 196.8C130.8 221.1 147 214.1 147 214.1C147 214.1 147 214.1 154.5 213C158.1 212.5 160.3 210.6 161.6 208.8C161.7 209.5 163.7 221 171.1 223.8C178.7 226.7 186.7 218.2 186.4 217.2C186.3 217 186 216.8 185.5 216.6C183.5 215.8 178.8 214.5 178.6 210C178.4 205.9 186.1 205.9 190.2 206.2C190.3 205.9 190.3 205.6 190.4 205.4C190.6 204.3 190.8 203.2 190.9 202.1C184.3 201.1 169.1 198.8 167.5 198.1C165.4 197.2 165.2 195.4 164.7 192.4C164 187.9 161.8 179.7 161.8 179.7L168.6 175.2C168.6 175.2 171.1 184.9 178.9 184C186.5 183.1 184.7 175.7 184.6 175.3L188.8 184C209.4 176.1 197.3 139.5 176.9 134.5ZM162.6 193.4L163.8 202.5L162.9 205C151.6 203.6 151.9 188.6 156.9 187.4C161.8 186.2 162.6 193.4 162.6 193.4Z" fill="#2A425B"/>
<path d="M142.5 238.4C142.5 238.4 139.3 231.6 141.4 230.5C143.5 229.3 167.4 222.3 171.1 225.3C174.8 228.4 177 230.9 177 230.9L142.5 238.4Z" fill="#FFCF50"/>
<path d="M207.3 384.3C207.3 384.3 181.5 422.6 119.1 396.4C119.1 396.4 121.2 244.9 142.5 238.4C145.7 237.4 174.4 227.4 178.1 231.5C180.1 233.6 188.1 276.3 195.2 316C196.8 324.7 198.3 333.3 199.7 341.3C200.9 348 202 354.3 203 359.9C205.6 374.5 207.3 384.3 207.3 384.3Z" fill="#79CCCA"/>
<path d="M195.3 316C195.3 316 167.3 262 167 260.6C166.7 259.1 181.2 248.5 179.8 247.8C178.5 247 163.1 242.5 163.9 240.9C164.7 239.3 178.1 231.5 178.1 231.5C180.2 233.6 188.2 276.3 195.3 316Z" fill="#137F7F"/>
<path d="M203.1 359.9C188 366.6 150.2 382.1 142.6 372.8C133.1 361.1 134.6 265.1 134.6 265.1L166.7 350.1L199.8 341.4C201 348 202.1 354.3 203.1 359.9Z" fill="#69BCB8"/>
<path d="M234.3 302.4C234.3 302.4 238.3 298 239.2 294.9C240.1 291.7 242.6 275.4 245.7 276.2C248.7 277 247.3 287.9 249 288.4C250.7 288.9 261.2 286.4 263 284.3C264.8 282.2 272.3 271.5 273.6 272.5C274.9 273.6 274.9 293.9 273.6 297.1C272.3 300.3 264.3 312.9 262.6 314.5C260.9 316.1 239.6 323.1 239.6 323.1L234.3 302.4Z" fill="#F7BCB7"/>
<path d="M236.6 299.4C236.6 299.4 246.1 315.9 242.2 332.4C242.2 332.4 173.1 369.3 156.8 369.9C140.5 370.5 132.6 270.8 135 259.3C137.4 247.8 156.8 236.7 161 259.3C165.2 281.9 171.5 329.8 174.9 330.2C178.3 330.6 236.6 299.4 236.6 299.4Z" fill="#79CCCA"/>
<path d="M155.8 191.8C155.8 191.8 161 188.8 161.4 194.2C161.8 199.7 159.5 199.8 159.5 199.8C159.5 199.8 162.6 191.9 155.8 191.8Z" fill="#DB9795"/>
<path d="M442.989 185.177C451.473 190.075 462.325 187.163 467.227 178.671C472.129 170.18 469.226 159.326 460.742 154.428C452.257 149.529 441.405 152.442 436.503 160.933C431.601 169.424 434.504 180.278 442.989 185.177Z" fill="#FFAA40"/>
<path d="M443.254 190.068L436.666 186.264C434.863 185.223 434.245 182.897 435.284 181.098L437.935 176.505C438.174 176.092 438.706 175.949 439.119 176.188L450.764 182.911C451.177 183.149 451.32 183.682 451.081 184.095L448.43 188.687C447.383 190.489 445.057 191.109 443.254 190.068Z" fill="#FFAA40"/>
<path d="M438.961 185.278L439.157 185.055C444.339 179.114 447.691 174.369 449.111 170.954C449.367 170.336 449.56 169.769 449.689 169.245C449.082 168.794 448.518 168.34 448.009 167.919C447.156 167.198 446.459 166.533 445.988 165.999C445.411 165.336 445.222 164.918 445.377 164.638C445.479 164.462 445.712 164.361 446.078 164.344C447.095 164.292 448.948 164.838 449.769 166.011C450.29 166.749 450.408 167.778 450.137 169.073C450.626 169.436 451.128 169.787 451.63 170.117C451.805 170.231 451.971 170.34 452.141 170.452C452.995 169.695 453.872 169.187 454.757 169.039C455.51 168.909 457.513 168.58 458.405 169.687C459.101 170.552 459.043 172.165 458.298 172.77C457.248 173.622 454.693 172.523 452.176 170.95C450.808 172.237 449.371 174.331 447.879 177.206C446.484 179.889 445.08 183.205 443.818 186.798L443.75 186.987L438.961 185.278ZM450.035 169.505C449.904 170.001 449.72 170.54 449.485 171.11C448.067 174.519 444.76 179.223 439.658 185.095L443.505 186.469C444.952 182.392 448.146 174.289 451.837 170.734C451.222 170.345 450.617 169.928 450.035 169.505ZM452.49 170.674C455.258 172.393 457.305 173.058 458.048 172.458C458.626 171.992 458.648 170.627 458.095 169.945C457.351 169.024 455.516 169.329 454.826 169.442C454.076 169.567 453.293 169.981 452.49 170.674ZM448.462 165.391C447.736 164.972 446.871 164.761 446.291 164.742C445.901 164.732 445.75 164.807 445.728 164.834C445.698 164.931 445.94 165.501 447.402 166.842C448.091 167.475 448.91 168.15 449.78 168.807C449.982 167.713 449.867 166.854 449.437 166.236C449.197 165.896 448.85 165.615 448.462 165.391Z" fill="white"/>
<path d="M438.037 193.777L436.148 192.686C433.076 190.913 432.02 186.949 433.792 183.879L435.681 180.608L448.736 188.145L446.847 191.417C445.075 194.486 441.109 195.551 438.037 193.777Z" fill="#5F6386"/>
<path d="M447.009 190.943L434.044 183.634L433.93 183.837L446.894 191.145L447.009 190.943Z" fill="#30354F"/>
<path d="M444.039 193.913L433.028 187.734L432.914 187.937L443.925 194.116L444.039 193.913Z" fill="#30354F"/>
<path d="M131.602 135.89C143.243 135.89 152.68 126.466 152.68 114.841C152.68 103.217 143.243 93.7928 131.602 93.7928C119.961 93.7928 110.524 103.217 110.524 114.841C110.524 126.466 119.961 135.89 131.602 135.89Z" fill="#FFAA40"/>
<path d="M127.049 118.779C127.049 118.312 127.09 117.845 127.151 117.419C127.212 116.993 127.334 116.567 127.517 116.161C127.7 115.755 127.964 115.389 128.309 115.044C128.655 114.699 129.102 114.375 129.671 114.09C129.956 113.948 130.322 113.766 130.789 113.522C131.257 113.278 131.704 113.015 132.151 112.71C132.598 112.406 132.964 112.04 133.289 111.655C133.614 111.249 133.777 110.802 133.777 110.315C133.777 109.645 133.513 109.097 133.005 108.732C132.497 108.346 131.907 108.163 131.236 108.163C130.81 108.163 130.423 108.245 130.098 108.387C129.773 108.549 129.468 108.732 129.204 108.935C128.94 109.158 128.696 109.402 128.513 109.666C128.309 109.929 128.147 110.173 128.005 110.376L124.691 108.163C125.24 106.905 126.135 105.931 127.354 105.241C128.574 104.551 129.935 104.185 131.46 104.185C132.273 104.185 133.086 104.307 133.919 104.53C134.732 104.754 135.464 105.119 136.115 105.606C136.765 106.093 137.293 106.743 137.7 107.514C138.107 108.306 138.31 109.239 138.31 110.356C138.31 111.533 138.066 112.507 137.558 113.299C137.05 114.09 136.298 114.78 135.322 115.389C134.875 115.674 134.407 115.937 133.96 116.161C133.493 116.384 133.066 116.628 132.679 116.871C132.293 117.115 131.988 117.399 131.745 117.703C131.501 118.008 131.399 118.373 131.399 118.82H127.049V118.779ZM127.151 126.33V121.702H131.379V126.33H127.151Z" fill="white"/>
<path d="M70.7078 217.867C68.6096 217.867 66.6779 216.967 65.3125 215.367L51.0582 198.635C49.9259 197.302 49.3264 195.635 49.3597 193.935C49.3597 193.802 49.3597 193.668 49.393 193.535C49.5595 191.402 50.6919 189.402 52.4237 188.169C52.5902 188.069 52.7568 187.936 52.9233 187.836C53.6227 187.436 54.3887 187.136 55.2213 187.002L76.8025 183.036C77.4019 182.936 78.0347 182.903 78.6342 182.936C78.7674 182.936 78.9006 182.969 79.0671 182.969C81.1986 183.236 83.0637 184.469 84.196 186.336C85.3284 188.169 85.5615 190.402 84.8288 192.435L77.4685 213.134C77.1022 214.134 76.5693 215 75.8699 215.734C75.77 215.834 75.6701 215.934 75.5702 216.034C74.3046 217.167 72.706 217.833 70.9742 217.867C70.8743 217.867 70.8077 217.867 70.7078 217.867ZM52.2572 193.968C52.2572 195.002 52.5902 195.968 53.2896 196.768L67.5439 213.5C68.4098 214.5 69.5754 215.034 70.9076 215C71.94 214.967 72.9058 214.567 73.6718 213.9C73.7385 213.834 73.8051 213.8 73.8384 213.734C74.2713 213.3 74.6044 212.767 74.8042 212.167L82.1644 191.469C82.5974 190.235 82.4642 188.935 81.7981 187.836C81.132 186.736 79.9997 185.969 78.7341 185.802C78.6675 185.802 78.5676 185.769 78.501 185.769C78.1346 185.736 77.7683 185.769 77.4019 185.836L55.8208 189.802C55.3212 189.902 54.8549 190.069 54.4553 190.302C54.3554 190.369 54.2554 190.435 54.1555 190.502C53.1231 191.235 52.457 192.435 52.3571 193.702C52.2572 193.802 52.2572 193.868 52.2572 193.968Z" fill="#FFAA40"/>
<path d="M451.899 300.634C451.932 299.168 452.631 297.801 453.797 296.868L465.953 287.169C466.919 286.402 468.118 286.002 469.317 286.069C469.417 286.069 469.516 286.069 469.616 286.102C471.115 286.269 472.514 287.102 473.347 288.369C473.413 288.469 473.48 288.602 473.546 288.735C473.813 289.235 474.013 289.802 474.079 290.369L476.377 305.767C476.444 306.201 476.444 306.634 476.41 307.067C476.41 307.167 476.377 307.267 476.377 307.367C476.144 308.867 475.212 310.167 473.879 310.934C472.547 311.7 470.982 311.8 469.55 311.234L455.062 305.534C454.363 305.267 453.764 304.867 453.264 304.334C453.197 304.268 453.131 304.168 453.064 304.101C452.298 303.201 451.865 302.034 451.865 300.801C451.899 300.734 451.899 300.701 451.899 300.634Z" fill="#5F6386"/>
<path d="M58.0015 481.464C69.1112 481.464 78.1173 472.451 78.1173 461.332C78.1173 450.213 69.1112 441.2 58.0015 441.2C46.8919 441.2 37.8857 450.213 37.8857 461.332C37.8857 472.451 46.8919 481.464 58.0015 481.464Z" fill="#FFAA40"/>
<path d="M416.679 127.098C424.349 127.098 430.567 120.875 430.567 113.199C430.567 105.523 424.349 99.3 416.679 99.3C409.009 99.3 402.792 105.523 402.792 113.199C402.792 120.875 409.009 127.098 416.679 127.098Z" fill="#EBEDFC"/>
<path d="M54.6906 281.216C58.8108 281.216 62.1508 277.873 62.1508 273.75C62.1508 269.627 58.8108 266.284 54.6906 266.284C50.5705 266.284 47.2305 269.627 47.2305 273.75C47.2305 277.873 50.5705 281.216 54.6906 281.216Z" stroke="#EBEDFC" stroke-width="10" stroke-miterlimit="10"/>
<path d="M198.99 123.028H310.91C317.09 123.028 322.096 118.029 322.096 111.857V55.3894C322.096 51.7791 320.365 48.57 317.708 46.5334C315.823 45.0832 313.474 44.2192 310.91 44.2192H198.99C192.81 44.2192 187.804 49.218 187.804 55.3894V111.857C187.804 118.029 192.81 123.028 198.99 123.028Z" fill="#494E6D"/>
<path d="M201.194 104.946L199.887 136.884L215.512 122.468L201.194 104.946Z" fill="#494E6D"/>
<path d="M208.94 69.676H299.6C301.393 69.676 302.845 68.2258 302.845 66.4361C302.845 64.6464 301.393 63.1961 299.6 63.1961H208.94C207.148 63.1961 205.695 64.6464 205.695 66.4361C205.695 68.2258 207.148 69.676 208.94 69.676Z" fill="white"/>
<path d="M242.343 86.4004H299.6C301.393 86.4004 302.845 84.9501 302.845 83.1604C302.845 81.3707 301.393 79.9205 299.6 79.9205H242.343C240.55 79.9205 239.098 81.3707 239.098 83.1604C239.098 84.9193 240.55 86.4004 242.343 86.4004Z" fill="white"/>
<path d="M221.424 104.945H299.601C301.393 104.945 302.845 103.495 302.845 101.705C302.845 99.9158 301.393 98.4655 299.601 98.4655H221.424C219.631 98.4655 218.179 99.9158 218.179 101.705C218.179 103.495 219.631 104.945 221.424 104.945Z" fill="white"/>
<path d="M320.427 63.1344C329.967 63.1344 337.7 55.4117 337.7 45.8854C337.7 36.359 329.967 28.6364 320.427 28.6364C310.887 28.6364 303.154 36.359 303.154 45.8854C303.154 55.4117 310.887 63.1344 320.427 63.1344Z" fill="#FFAA40"/>
<path d="M316.688 49.0945C316.688 48.6933 316.719 48.323 316.781 47.9836C316.842 47.6442 316.935 47.2739 317.09 46.9653C317.244 46.6259 317.46 46.3174 317.738 46.0396C318.017 45.7619 318.387 45.4842 318.851 45.2682C319.067 45.1448 319.376 44.9905 319.778 44.8054C320.149 44.6202 320.52 44.3734 320.89 44.1265C321.261 43.8797 321.57 43.5711 321.817 43.2625C322.095 42.9231 322.219 42.5528 322.219 42.1517C322.219 41.5963 322.003 41.1643 321.57 40.8557C321.138 40.5471 320.674 40.3928 320.118 40.3928C319.778 40.3928 319.438 40.4546 319.191 40.578C318.913 40.7014 318.666 40.8557 318.449 41.0408C318.233 41.226 318.048 41.4111 317.893 41.6271C317.738 41.8431 317.584 42.0282 317.46 42.2134L314.741 40.3928C315.205 39.3746 315.915 38.5723 316.935 37.986C317.924 37.3997 319.067 37.122 320.303 37.122C320.983 37.122 321.632 37.2146 322.312 37.3997C322.992 37.5849 323.579 37.8934 324.104 38.2946C324.629 38.6957 325.062 39.2203 325.402 39.8683C325.742 40.5163 325.896 41.2877 325.896 42.1825C325.896 43.1391 325.68 43.9414 325.278 44.5894C324.876 45.2374 324.258 45.7928 323.455 46.2865C323.084 46.5334 322.713 46.7185 322.343 46.9036C321.972 47.0888 321.601 47.2739 321.292 47.4899C320.983 47.7059 320.705 47.9219 320.52 48.1688C320.334 48.4156 320.241 48.7242 320.241 49.0945H316.688V49.0945ZM316.781 55.2967V51.5013H320.241V55.2967H316.781Z" fill="white"/>
</g>
<defs>
<clipPath id="clip0">
<rect width="505.4" height="503.1" fill="white" transform="translate(0 0.400024)"/>
</clipPath>
</defs>
</svg>
