<svg xmlns="http://www.w3.org/2000/svg" width="220" height="220"><defs><clipPath id="clip-path"><circle id="Ellipse_2" cx="110" cy="110" r="110" fill="#fff" stroke="#707070" transform="translate(0 -.263)"/></clipPath><style>.cls-4{fill:#a0616a}.cls-5{fill:#693544}.cls-8{fill:#2f2e41}</style></defs><g id="Group_81" transform="translate(0 .263)"><circle id="Ellipse_19" cx="110" cy="110" r="110" fill="#fefdf3" transform="translate(0 -.263)"/><g id="Mask_Group_1" clip-path="url(#clip-path)"><g id="Group_80" transform="translate(19.515 33.484)"><path id="Path_12556" d="M882.443 566.725a11.731 11.731 0 0 1-10.11-14.877l-34.15-23.907 20.141-7.976 29.342 23.926a11.794 11.794 0 0 1-5.222 22.835z" class="cls-4" transform="translate(-790.241 -360.527)"/><path id="Path_12557" d="M894.5 564.414a5.261 5.261 0 0 0 2.131-.456 5.2 5.2 0 0 0 3.008-3.7l10.875-16.005a5.257 5.257 0 0 0-1.663-5.046L888.6 521.38l19.991-41.885a12.8 12.8 0 0 0-22.14-12.693l-25.6 37.763a24.66 24.66 0 0 0-3.729 19.232 25.73 25.73 0 0 0 12.409 16.609l22.346 23.294a5.221 5.221 0 0 0 2.623.714z" class="cls-5" transform="translate(-821.88 -370.318)"/><path id="Path_12558" fill="#fec3b1" d="M820.021 528.658a11.73 11.73 0 0 1-17.262-5.057l-41.56 3.254 10.478-18.96 37.859-.184a11.794 11.794 0 0 1 10.485 20.947z" transform="translate(-630.273 -362.685)"/><circle id="Ellipse_17" cx="28.652" cy="28.652" r="28.652" fill="#ffc3b1" transform="translate(61.71 9.391)"/><path id="Path_12559" d="M511.021 625.077 524.728 621l-9.208-54.814-20.231 6.014z" class="cls-4" transform="translate(-336.297 -195.073)"/><path id="Path_12560" d="m745.636 767.972 44.2-13.151-.166-.559a17.949 17.949 0 0 0-22.322-12.086l-27 8.032z" class="cls-8" transform="translate(-570.455 -323.641)"/><path id="Path_12561" d="M617.686 623.943h14.3l6.8-55.164h-14.103z" class="cls-4" transform="translate(-593.144 -194.641)"/><path id="Path_12562" d="M870.967 765.828h46.115v-.583a17.949 17.949 0 0 0-17.95-17.949h-28.166z" class="cls-8" transform="translate(-850.071 -322.663)"/><path id="Path_12563" d="M916.3 772.649h14.36a5.25 5.25 0 0 0 5.163-6.2l-20.113-109.5c.019-79.777-31.368-125.985-31.685-126.443l-.383-.553-70.184 15.88L766.5 765.188a5.249 5.249 0 0 0 4.833 6.534l16.134.783a5.225 5.225 0 0 0 5.129-3.293l61.819-154.532a1.671 1.671 0 0 1 1.665-1.1 1.716 1.716 0 0 1 1.612 1.175l53.646 154.368a5.254 5.254 0 0 0 4.959 3.526z" class="cls-8" transform="translate(-746.847 -358.864)"/><path id="Path_12564" d="m830.285 559.625.448-.035 62.458-5.006-10.955-73.994c-2.469-16.963-15.154-30.179-31.173-32.475q-.72-.107-1.449-.209a35.042 35.042 0 0 0-32.764 13.925 40.669 40.669 0 0 0-6.25 37.369z" class="cls-5" transform="translate(-753.385 -372.584)"/><path id="Path_12565" d="M795.7 533.479a24.7 24.7 0 0 0 18.193 5.29l36.148-3.891a5.25 5.25 0 0 0 4.216-7.4l-4.819-10.578a5.244 5.244 0 0 0-4.426-3.062l-26.347-1.766-8.65-45.591a12.813 12.813 0 0 0-12.573-10.411 12.667 12.667 0 0 0-9.531 4.258 13.207 13.207 0 0 0-3.242 9.4l1.675 45.2a24.658 24.658 0 0 0 8.591 17.911q.379.331.765.64z" class="cls-5" transform="translate(-687.03 -371.17)"/><path id="Path_12566" d="M934.51 416.23c-.694-1.137-3.307-12.032-12.262-19.966s-17.376-11.569-24.891-11.771c-15.352-.412-24.511 6.206-31.181 18.793s-8.814 23.648-9.229 37.617c-.1 3.407-1.131 12.222-1.131 12.222s-20.278 41.849-28.461 59.778c14.22 6.622 19.381 40.312 33.569 42.974-2.609-5.492 12.322-9.513 25.018-15.374 19.875-9.177 42.7-19.826 44.533-24.78 2.985-8.382 11.578-33.487 4.153-44.415-3.979-5.857-24.938-20.242-24.736-21.567.673-4.4 2.71-12.713 1.321-16.973-.558-1.833-.2-5.492 2.271-9.185 1.016-1.521 4.835-5.057 7.942-5.92a45.152 45.152 0 0 1 8.168-1.05" class="cls-8" transform="translate(-815.184 -384.475)"/><path id="Path_12567" fill="#ccc" d="M720.575 765.1h241.478a1.167 1.167 0 1 0 0-2.333H720.575a1.167 1.167 0 1 0 0 2.333z" transform="translate(-719.408 -320.086)"/></g></g></g></svg>