<svg xmlns="http://www.w3.org/2000/svg" width="90.864" height="97.09" viewBox="0 0 90.864 97.09"><defs><style>.cls-1{fill:#693544}.cls-2{fill:#f5ebdd}</style></defs><g id="Group_97" transform="translate(1.668)"><path id="Path_7608" d="M52.386 37.977a9.791 9.791 0 01-1.823-.414 22.357 22.357 0 00-8.122-1.692 44.756 44.756 0 00-12.921 1.514A46.062 46.062 0 0018.173 42.1a37.255 37.255 0 00-9.739 8.342 33.927 33.927 0 00-5.678 9.347 37.006 37.006 0 00-2.362 8.35 28.755 28.755 0 001.365 14.72A19.581 19.581 0 009.871 93.1a16.137 16.137 0 008.482 2.451 24.458 24.458 0 0013.057-3.879 41.223 41.223 0 0010.132-9.032 65.837 65.837 0 006.776-10.469A56.317 56.317 0 0052.5 62.026a41.134 41.134 0 001.874-8.294 63.467 63.467 0 00.346-7.564 17.348 17.348 0 00-.227-2.245 1.278 1.278 0 01.487-1.337c.513-.393.8.041 1.165.242a1.214 1.214 0 00.464.038c0-.12.042-.273-.015-.354-.536-.756-.27-1.258.447-1.7a4.107 4.107 0 00.977-.894.73.73 0 00.065-.652c-.165-.32-.1-.389.219-.492a66.356 66.356 0 0111.086-2.5c.223-.031.656.059.664.131a1.386 1.386 0 01-.136.855 2.282 2.282 0 01-.728.592c-.211.135-.462.208-.688.324a18.4 18.4 0 00-6.846 6.057c-2.778 3.989-4.128 8.5-5.111 13.153a40.469 40.469 0 00-.267 14.916 24.322 24.322 0 004.135 10.712c1.654 2.254 3.528 4.3 6.349 5.193a10.5 10.5 0 007.774-.271 15.544 15.544 0 004.675-3.2 25.486 25.486 0 005.55-8.3 29.133 29.133 0 001.147-19.1 29.046 29.046 0 00-3.2-7.489 37.084 37.084 0 00-6.584-7.82c-1.161-1.077-2.347-2.124-3.509-3.2a.837.837 0 01-.172-.456c0-.027.207-.1.325-.134.184-.046.379-.051.558-.108.32-.1.7.481.924-.063.029-.069-.431-.368-.687-.525-.352-.217-.293-.518-.217-.829.109-.438.245-.87.759-.989.246-.057.5-.053.754-.1a40.408 40.408 0 019.078-.44c1.326.058 2.656.035 3.984.042a3.367 3.367 0 00.751-.048.7.7 0 00.407-1.057 3.18 3.18 0 00-2.9-1.427c-2.26.273-4.549.3-6.817.515a10.845 10.845 0 00-2.154.652 3.919 3.919 0 01-.7.255 851 851 0 01-6.779.75c-.37.039-.663-.064-.477-.515a20.482 20.482 0 011.15-2.585A36.151 36.151 0 0075.263 18.1 17.62 17.62 0 0073.57 7.2a12.017 12.017 0 00-4.37-4.662A17.893 17.893 0 0057.33.18a20.894 20.894 0 00-8.545 2.957 17.2 17.2 0 00-7.745 9.679 15.946 15.946 0 001.229 12.5 15.329 15.329 0 005.727 5.97 22.813 22.813 0 0010.053 3.2c2.459.212 4.925.318 7.386.5a7.071 7.071 0 011.249.321.493.493 0 01.1-.142c.028-.019.088.005.133.01l-.244.086c-1.526.341-3.054.674-4.579 1.026-.973.226-1.941.474-2.909.723-.663.169-1.312.468-1.853-.308a.88.88 0 00-.834-.094 30.406 30.406 0 00-2.829 1.757c-.711.505-.679.562-1.216-.053-.071-.082-.062-.236-.09-.356zm4.566 29.306l.013-.158-.056.167.115.542c.047.1.132.2.129.294 0 .058-.144.109-.224.164a.474.474 0 010-.165c.037-.1.094-.2.143-.3a38.114 38.114 0 01-.12-.544zM44.879 40.218l-.536.135a11.771 11.771 0 01-1.256.778c-3.436 1.591-6.9 3.125-10.315 4.76a31.924 31.924 0 00-3.18 1.989 3.187 3.187 0 001.056-.181 113.311 113.311 0 0115.274-7.062 14.383 14.383 0 014.539-1.183l.009.019c.084-.2.176-.569.25-.566a2.375 2.375 0 011.095.234c.79.484 1.75.772 2.188 1.711-.388.638-.77 1.279-1.166 1.91a5.428 5.428 0 01-.551.77C50.6 45.41 48.92 47.3 47.2 49.145c-2.893 3.1-5.727 6.254-8.752 9.217a186.1 186.1 0 01-14.1 12.4c-4.648 3.718-9.363 7.349-14.042 11.026-.393.309-.736.681-1.1 1.024l-.013-.038a2.128 2.128 0 00.684-.2c2.952-2.171 5.928-4.31 8.824-6.554 2.6-2.011 5.087-4.157 7.649-6.212a172.259 172.259 0 0013.707-12.245 115.805 115.805 0 0011.2-12.334c.558-.742 1.248-1.384 1.877-2.072a17.206 17.206 0 01-1.617 3.424 109.935 109.935 0 01-9.405 13.336c-3.172 3.775-6.455 7.448-9.912 10.966-.968.985-1.846 2.059-2.764 3.092l-.012-.031c.7.126.993-.473 1.357-.846 2.065-2.117 4.122-4.243 6.128-6.418A112.364 112.364 0 0048.7 52.157c.482-.738 1-1.453 1.508-2.171a1.08 1.08 0 01.292-.2c.022.144.105.315.057.43-.557 1.331-1.146 2.654-1.712 3.984a5.146 5.146 0 00-.793 2.491 10.224 10.224 0 00.911-1.425 102.182 102.182 0 004.369-10.877c.045-.145.234-.247.355-.369l.2.515c.356.9-.351 1.683-.3 2.552l.071-.01-.084-.006c-.732 1.675-1.5 3.336-2.189 5.028-2.526 6.19-4.844 12.47-7.922 18.424a68.623 68.623 0 01-4.453 7.7c-1.874 2.7-3.718 5.42-5.575 8.133.27-.122.629-.17.8-.376a82.1 82.1 0 006.047-8.493 56.862 56.862 0 002.914-5.1 212.974 212.974 0 004.444-9.639c1.816-4.241 3.513-8.531 5.242-12.809.177-.44.145-.982.741-1.136a12.789 12.789 0 01.2 1.267 4.3 4.3 0 01-.091.938 77.033 77.033 0 01-2 9.641 65.422 65.422 0 01-6.1 14.261 50.06 50.06 0 01-9.975 12.32 33.9 33.9 0 01-5.695 4.079 1.572 1.572 0 01-.546.084c.077-.206.094-.478.239-.606a5.6 5.6 0 001.805-2.132c-.988.247-1.48 1.139-2.06 1.8a11.221 11.221 0 01-6.8 3.675c-1.168.2-2.359.279-3.543.366-.363.027-.773-.045-.842-.55a4.6 4.6 0 01-3.106.2 16.725 16.725 0 01-5.522-2.452 19.614 19.614 0 01-6-7.22C2.419 82.2 2.045 79.7 1.4 77.281a11.064 11.064 0 01-.107-4.51c.03-.209.261-.388.4-.581-.6-.219-.649-.706-.611-1.244a27.492 27.492 0 011.587-7.986c.554-1.435 1.1-2.9 1.737-4.3a34.567 34.567 0 016.684-9.63 39.081 39.081 0 0112.11-8.365A43.557 43.557 0 0138.218 36.9a27.8 27.8 0 0110.165.835c.558.166 1.285.085 1.611.773a11.208 11.208 0 01-1.742.681c-.8.174-1.64.168-2.452.3-1.055.174-2.1.409-3.148.618l.033.134 1.665.155.537-.132.12-.016zm38.09-5.92l-.1.028.106.013.065-.037zm-14.66-4.866l-.34-.225-.642.978c.074.276.153.551.216.83.009.039-.078.141-.088.137-.091-.038-.255-.1-.25-.143.036-.279.107-.554.166-.83-.062-.61-.107-1.222-.193-1.829-.13-.916-.288-1.828-.434-2.742-.058.462-.106.924-.179 1.384-.062.395-.153.785-.23 1.177l.087.062-.045-.069c-.488-1.27-.948-2.554-1.482-3.8a4.258 4.258 0 00-.8-.948l.045-.01a2.959 2.959 0 00.08.71c.583 1.571 1.222 3.122 1.769 4.7a21.7 21.7 0 01.6 2.523.309.309 0 01-.153.264.413.413 0 01-.3-.137c-.21-.218-.4-.458-.6-.689a.92.92 0 00-.049.362c.161.528.347 1.049.525 1.572-.765.194-1.063-.52-1.513-.853a24.852 24.852 0 01-2.546-2.256 102.939 102.939 0 01-9.091-10.4c-1-1.287-2.1-2.5-3.16-3.743a7.732 7.732 0 00.657 1.317c1.028 1.363 2.117 2.681 3.161 4.032a93.627 93.627 0 007.914 8.961c.894.893 1.914 1.657 2.84 2.52.372.347 1.072.318 1.148 1-.467-.171-.936-.337-1.4-.515a4.926 4.926 0 01-.693-.3 55 55 0 01-9.629-7.078c-3.6-3.283-6.981-6.794-10.327-10.334a6.614 6.614 0 00-.562-.508c-.04-.034-.117-.025-.176-.036-.01.088-.062.206-.024.257a9.4 9.4 0 00.6.729c3.079 3.36 6.208 6.673 9.583 9.739a51.721 51.721 0 0010.022 7.485c.221.12.317.473.471.717l1.487.462c.146.009.294.012.439.034.019 0 .025.1.036.152l-.459-.049a3.4 3.4 0 01-.727.091c-1.757-.156-3.51-.4-5.271-.484a21.509 21.509 0 01-7.509-1.764 17.373 17.373 0 01-4.553-2.655c-3.236-2.815-5.421-6.278-5.484-10.763a5.223 5.223 0 00.064-.941 11.882 11.882 0 011.471-6.569c1.246-2.544 1.14-2.044 2.772-.262.47.513.885 1.074 1.355 1.585.424.46.889.881 1.336 1.319a3.715 3.715 0 00-.406-.813c-.981-1.152-2-2.275-2.986-3.418-.344-.4-.585-.835-.215-1.362a1.248 1.248 0 011.5-.456 3.171 3.171 0 01.494.277 36.782 36.782 0 016.87 5.9 59.735 59.735 0 017.735 10.038 9.613 9.613 0 00.967 1.13 4.526 4.526 0 00-.327-1.023 58.413 58.413 0 00-6.021-8.246 39.691 39.691 0 00-9.344-8.212c-.734-.435-.713-.9-.029-1.472a24.523 24.523 0 017.728-4.277 2.538 2.538 0 013.092.588c-.42-1.12-.421-1.141.742-1.216.935-.061 1.88 0 2.808-.106a2.65 2.65 0 012.778 1.476c.208-.308-.183-1.118.521-.946 1.938.472 3.915.957 5.044 2.88a.89.89 0 011.162.184 13.407 13.407 0 014.071 9.333 31.131 31.131 0 01-3.94 15.809c-.634 1.225-1.312 2.427-1.942 3.655-.155.3-.048.84-.623.662-.083-.026-.059-.526-.017-.8.049-.309.183-.6.262-.908.767-2.922 1.557-5.838 2.273-8.773a11.763 11.763 0 00.124-2.2 12.281 12.281 0 00-.531 1.387c-.279 1.1-.485 2.216-.76 3.317-.165.658-.4 1.3-.61 1.945-.456-.659-.171-1.372-.145-2.063a7.578 7.578 0 00-.178-3.333 2.137 2.137 0 00-.283.659q-.148 2.584-.236 5.171a4.25 4.25 0 00.15.873l.429-.334-.113.512.013.076zM56.968 65.909q0-.681-.008-1.362a2.163 2.163 0 01-.182-.715 59.07 59.07 0 011.875-10.8 28 28 0 014.811-9.585 15.8 15.8 0 014.248-3.747 26.41 26.41 0 01-2.388 3.39c-1.076 1.4-2.07 2.858-3.078 4.306-.082.119 0 .354.012.535q2.664-3.571 5.333-7.14c.451-.6.946-1.169 1.434-1.74.073-.085.223-.105.337-.156a1.231 1.231 0 01.036.469 2.055 2.055 0 01-.323.465 37.294 37.294 0 00-3.78 6.767 57.965 57.965 0 00-3.6 11.344 5.139 5.139 0 00-.265 2.767 8.286 8.286 0 00.532-1.384 69.584 69.584 0 011.8-7.157 50.86 50.86 0 013.513-8.766c.615-1.17 1.436-2.232 2.161-3.343.306-.47.61-.283.916 0 .081-.167.173-.33.24-.5.044-.114.022-.261.082-.361.086-.139.227-.35.335-.345a.544.544 0 01.4.305c.225.828.407 1.668.6 2.5l.443-.64-.027-.085.013.086.418.751c.244-.268.475-.7.9-.363a9.383 9.383 0 011.156 1.214c.279.324.516.685.772 1.031h.081l-.1-.012a1.448 1.448 0 00.544 1.326l.2-.455a1.787 1.787 0 01.41.4c.064.12 0 .307 0 .464q.451.7.9 1.393.348.533.7 1.065c.019-.06.064-.124.055-.18-.093-.548-.2-1.1-.3-1.644.719.086.957.73 1.339 1.189.443.533.828 1.114 1.234 1.678a28.853 28.853 0 014.665 11.282 26.008 26.008 0 010 10.342 23.685 23.685 0 01-2.532 7.306c-.383.668-.587 1.481-1.414 1.8.141-.731.241-1.473.43-2.192a33.75 33.75 0 00.951-9.953 56.883 56.883 0 00-1.168-8.818c-.193-.972-.153-2.028-.912-2.82a17.224 17.224 0 00.213 1.862 57.3 57.3 0 011.366 12.009 39.177 39.177 0 01-2.217 12.028 4.271 4.271 0 01-.916 1.417 15.654 15.654 0 01-1.746 1.735 21.962 21.962 0 01-1.849 1.269c-.381-.869.542-1.3.678-2a4.7 4.7 0 01.372-.866A55.583 55.583 0 0080.519 68.3a2.452 2.452 0 00-.238-.872c-.179.8-.426 1.586-.528 2.393a52.673 52.673 0 01-2.365 9.911 36.77 36.77 0 01-2.788 6.402 2.346 2.346 0 01-1.934 1.311.886.886 0 01-.5-.2c-.032-.021.041-.23.091-.341.7-1.55 1.49-3.066 2.079-4.656.471-1.27 1.141-2.533.908-3.98-.321.748-.662 1.487-.958 2.245-.779 1.992-1.474 4.02-2.329 5.979-.573 1.312-1.183 1.548-2.586 1.343a6.385 6.385 0 01-1.459-.391.69.69 0 01-.3-.574 5.47 5.47 0 01.318-1.086 85.052 85.052 0 002.87-12.353c.077-.451.4-.971-.06-1.424a17.4 17.4 0 00-.574 1.777c-.514 2.4-.927 4.816-1.5 7.2-.426 1.769-1.023 3.5-1.588 5.232a.956.956 0 01-.627.579 1.525 1.525 0 01-1.492-1.523 5.533 5.533 0 00-.417-2.741c-.047.678-.092 1.356-.144 2.033-.019.245-.059.489-.088.733-.229-.186-.565-.327-.666-.568a37 37 0 01-1.343-3.5 38.194 38.194 0 01-1.148-6.9A7.6 7.6 0 0060.8 73.1a4.894 4.894 0 00-.147 1.293c.393 2.543.835 5.079 1.265 7.616a3.953 3.953 0 01.127.544c0 .08-.138.175-.23.24a.186.186 0 01-.178-.008 5.032 5.032 0 01-.725-.837 24.274 24.274 0 01-2.584-7.448c-.229-1.172-.44-2.348-.659-3.522-.226.01-.53.122-.514-.261 0-.088.271-.165.416-.246a1.911 1.911 0 00.18-.526c.085-2.575.164-5.151.216-7.727a3.02 3.02 0 00-.255-.863c-.129.595-.251 1.192-.388 1.785-.109.47-.237.936-.355 1.4.381.469.153.919-.041 1.372a.511.511 0 01.1.122c.012.027-.019.072-.032.11zm27.367-31.562l-.13-.058.135.1c.811-.286 1.612-.615 2.441-.831.24-.062.572.187.845.326a.374.374 0 01.18.3.356.356 0 01-.262.225c-1.069-.009-2.144-.038-3.209-.062zm-29.4 5.726c-.193-.03-.356-.009-.4-.071a2.221 2.221 0 01-.2-.485c.116.023.272.007.338.077a2.125 2.125 0 01.266.478zm17.852-4l.006-.134.107.061z" class="cls-1"/><path id="Path_7609" d="M0 0l.1.024-.076-.01z" class="cls-1" transform="translate(52.362 37.963)"/><path id="Path_7610" d="M46.94 17.786a5.145 5.145 0 01.793-2.491c.567-1.332 1.151-2.655 1.711-3.989.049-.115-.035-.286-.057-.43a1.079 1.079 0 00-.292.2c-.511.717-1.026 1.433-1.508 2.171A112.363 112.363 0 0135.8 27.772c-2.006 2.174-4.062 4.3-6.128 6.418-.364.374-.654.972-1.357.846a3.964 3.964 0 01-2.553 2.4c-.286.635-.462 1.379-1.381 1.379a23.761 23.761 0 01-4.124 3.906c-.057.048-.224-.03-.34-.049-.26.5-.409 1.115-1.164 1.078-.2.4-.443.751-.961.742a4.3 4.3 0 01-2.126 1.769 7.039 7.039 0 01-3.078 2.489c-.116.115-.118.515-.419.168l.431-.124a7.169 7.169 0 013.08-2.494 3.83 3.83 0 012.126-1.774c.237-.356.371-.839.952-.77.245-.514.465-1.055 1.174-1.046a20.275 20.275 0 014.278-3.876c.038-.027.122.011.185.019.353-.568.564-1.279 1.384-1.379a6.206 6.206 0 012.55-2.41c.918-1.033 1.8-2.107 2.765-3.092 3.457-3.518 6.74-7.191 9.912-10.966a109.928 109.928 0 009.405-13.333 17.2 17.2 0 001.617-3.423c-.629.688-1.32 1.33-1.877 2.072a115.813 115.813 0 01-11.2 12.334A172.253 172.253 0 0125.237 30.9c-2.562 2.054-5.052 4.2-7.649 6.212-2.9 2.244-5.872 4.383-8.824 6.554a2.128 2.128 0 01-.684.2c-.19.414-.4.805-.956.757-.29.313-.571.633-.877.929-.053.051-.207 0-.315-.007.049-.093.075-.223.153-.272.343-.217.7-.409 1.052-.611.242-.349.385-.824.957-.758.366-.343.708-.715 1.1-1.024 4.678-3.677 9.393-7.308 14.042-11.022a186.138 186.138 0 0014.1-12.4c3.025-2.963 5.858-6.121 8.752-9.217 1.724-1.845 3.4-3.735 5.09-5.612a5.424 5.424 0 00.551-.77c.4-.632.779-1.272 1.166-1.91C52.454 1.006 51.493.718 50.7.234A2.375 2.375 0 0049.609 0c-.074 0-.166.367-.25.566l.071-.014-.08-.005a14.383 14.383 0 00-4.54 1.182 113.31 113.31 0 00-15.274 7.062 3.187 3.187 0 01-1.056.181l.055-.015a1.786 1.786 0 01-.35.434q-3.7 2.368-7.41 4.706c-.086.054-.237 0-.358 0l.055-.024c-.463.418-.906.861-1.393 1.247-2.02 1.6-4.061 3.178-6.079 4.781a71.809 71.809 0 00-7.142 6.706 25.021 25.021 0 00-4.6 5.914c-.123.248-.473.381-.718.568l.043-.011c-.138.193-.369.372-.4.581a11.065 11.065 0 00.107 4.51c.648 2.421 1.022 4.915 2.192 7.191a19.613 19.613 0 006 7.22A16.725 16.725 0 0014 55.237a4.6 4.6 0 003.105-.2l-.036.022c.3-.481.6-.962 1.219-1.079l-.048.029c.26-.353.422-.834 1.005-.76l-.052.03a6.3 6.3 0 012.6-2.446l-.048.034c.889-.976 1.785-1.947 2.666-2.929 2.742-3.054 5.542-6.06 8.193-9.191 1.709-2.02 3.193-4.231 4.789-6.347.251-.334.439-.812 1.016-.668l-.047.035a4.512 4.512 0 011.195-2.3 76.9 76.9 0 004.931-7.75c.734-1.372 1.628-2.658 2.449-3.983zm3.392-16.61l-.563.087-.721.439-.532.1a1.245 1.245 0 01-1.275.531 6.1 6.1 0 01-1.035.736 27.516 27.516 0 01-5 2.056 2.585 2.585 0 01-1.992 1.028l-.767.336a3.737 3.737 0 01-2.216 1.237 2.206 2.206 0 01-2.024.944 3.154 3.154 0 01-2.438 1.543c-.161.3-.333.571-.744.464a4.005 4.005 0 01-2.437 1.534l-.746.449c-.243.344-.384.82-.957.729-.216.377-.388.812-.955.732l-.95.767a2.183 2.183 0 01-1.7 1.055c-.29.475-.47 1.067-1.168 1.113-1.047.957-2.081 1.929-3.149 2.862a6.805 6.805 0 01-1.1.652c-.13.19-.255.385-.392.569-.029.04-.1.05-.154.074 0-.107-.051-.275 0-.31a3.743 3.743 0 01.562-.29c1.242-1.144 2.479-2.293 3.734-3.422.11-.1.342-.068.516-.1a1.718 1.718 0 011.166-1.111 2.216 2.216 0 011.7-1.058c.235-.357.322-.9.952-.764.24-.346.374-.833.956-.732a1.114 1.114 0 01.955-.73c.166-.288.345-.553.747-.447a3.766 3.766 0 012.437-1.538l.745-.457a3.9 3.9 0 012.436-1.545 2.574 2.574 0 012.026-.941 2.4 2.4 0 012.217-1.24l.727-.472a2.285 2.285 0 012.031-.889 15.868 15.868 0 012.04-1.267 14.529 14.529 0 013.986-1.53 1.309 1.309 0 011.273-.527l.532-.1.724-.431.561-.088.154-.014zM8.982 51.41a.526.526 0 01.129-.1c.026-.009.068.028.1.045l-.239.008-.319.247c.008-.041.006-.11.028-.118a2.744 2.744 0 01.301-.082zm-5.3-11.923c-.249.352-.411.808-.961.794-.185.235-.363.475-.558.7-.054.063-.16.081-.243.121.022-.106.007-.26.072-.31.232-.175.492-.315.741-.469l.96-.8.954-.728c.268-.31.413-.78.957-.726a3.17 3.17 0 011.906-1.431c.239-.356.389-.823.959-.766l1.911-1.486a4.207 4.207 0 01.592-.722q3.921-3.068 7.868-6.1c.08-.061.234-.025.355-.034.208-.393.395-.814.956-.77a6.276 6.276 0 012.865-2.187 7.179 7.179 0 013.084-2.515c.735-1.167 1.978-1.744 3.007-2.563q8.9-7.085 17.841-14.122c.94-.743 1.908-1.452 2.873-2.164a1.26 1.26 0 01.436-.113 1.652 1.652 0 01-.259.48c-.422.381-.867.738-1.312 1.092-2.767 2.2-5.528 4.411-8.307 6.6-2.828 2.226-5.675 4.428-8.51 6.645-1.542 1.205-3.067 2.435-4.626 3.617a5.088 5.088 0 01-1.156.488 6.156 6.156 0 01-3.078 2.533 4.958 4.958 0 01-2.87 2.171c-.239.356-.362.856-.958.767a8.771 8.771 0 01-.975 1.09c-1.863 1.505-3.724 3.019-5.65 4.441-.676.5-1.189 1.335-2.185 1.33-.519.649-.907 1.466-1.916 1.482-.2.4-.381.832-.957.768a2.558 2.558 0 01-1.91 1.428c-.223.368-.361.847-.956.728-.216.376-.36.844-.953.731zm7.015 10.829c.134-.189.265-.381.407-.566.033-.043.1-.06.151-.09.007.105.059.274.015.305a4.38 4.38 0 01-.585.305c-.2.215-.394.44-.612.635-.042.037-.189-.045-.287-.071.036-.09.048-.235.111-.26.256-.105.529-.174.798-.258zm3.243-25.953l-.124.057.133-.011c.172-.244.335-.494.522-.727.049-.062.169-.069.257-.1-.012.108.017.27-.042.314a8.792 8.792 0 01-.746.467zm2.539-2.34l.1-.077-.111.037c-.143.189-.277.386-.432.565a1.425 1.425 0 01-.279.2c.01-.11-.021-.274.037-.318a6.62 6.62 0 01.685-.406zm-7.345 7.369a1.1 1.1 0 01-.176.329 1.772 1.772 0 01-.391.208 1.771 1.771 0 01.234-.451c.061-.066.228-.034.346-.047l1.8-2.057c.684-.7 1.13-1.67 2.218-2.044a5.1 5.1 0 01-2.226 2c-.462.813-.845 1.691-1.805 2.062zM7.95 30.744c-.052.263-.035.422-.107.5-2.209 2.362-3.82 5.164-5.724 7.75-.057.077-.192.1-.543.257a48.076 48.076 0 016.374-8.507zM5.005 46.372l-.368.238c-.013-.054-.055-.136-.034-.157.108-.108.232-.2.35-.3zM51.312 2.257l-.072.155-.14-.155a.678.678 0 01.138-.093c.008-.004.048.06.074.093z" class="cls-2" transform="translate(1.111 38.907)"/><path id="Path_7611" d="M43.281 3.621l-1.665-.155c-.457.181-.9.4-1.374.538q-2.769.828-5.551 1.613c-.536.152-1.086.252-1.629.376-1.519.644-3.034 1.3-4.561 1.924a6.021 6.021 0 01-1.06.228 2.612 2.612 0 01-2.031.882 3.226 3.226 0 01-.562.482 725.208 725.208 0 01-7.8 4c-.163.082-.444-.07-.671-.114-.185.419-.362.846-.941.8a12.572 12.572 0 01-1.311 1.055 62.114 62.114 0 00-6.954 4.868 10.4 10.4 0 01-1.406.826 1.867 1.867 0 01-.278.49c-.543.506-1.109.989-1.666 1.481-.016-.91.972-1.007 1.333-1.624.1-.167.41-.207.624-.306a14.2 14.2 0 011.1-1.261c2.373-2.177 5.2-3.714 7.837-5.52.17-.116.471-.04.71-.054l.968-.716a19.129 19.129 0 011.7-1.14q2.828-1.5 5.7-2.911a9.835 9.835 0 011.587-.48 3.075 3.075 0 012.007-.964A15.777 15.777 0 0133 5.764c1.482-1.028 3.259-1.258 4.929-1.74a8.274 8.274 0 013.653-.693c1.049-.208 2.094-.444 3.148-.618.813-.133 1.651-.128 2.452-.3a11.209 11.209 0 001.742-.681c-.326-.688-1.053-.607-1.611-.773A27.8 27.8 0 0037.149.123a43.556 43.556 0 00-15.018 3.768 39.082 39.082 0 00-12.111 8.362 34.566 34.566 0 00-6.684 9.63c-.636 1.4-1.183 2.868-1.737 4.3A27.489 27.489 0 00.01 34.172c-.038.537.009 1.025.61 1.244l-.043.011a3.1 3.1 0 00.381-.65 5.571 5.571 0 011.82-2.818 6.6 6.6 0 00.7-.892c1.1-1.293 2.159-2.626 3.323-3.86a93.216 93.216 0 0112.533-10.591c.361-.268.682-.57 1.18-.406l-.055.024a5.708 5.708 0 011-1.093c2-1.279 4.038-2.514 6.078-3.736a4.41 4.41 0 011.042-.314l-.055.015A31.922 31.922 0 0131.7 9.117c3.415-1.635 6.879-3.169 10.315-4.76a11.781 11.781 0 001.256-.778z" class="cls-2" transform="translate(1.069 36.774)"/><path id="Path_7612" d="M11.337.851A2.538 2.538 0 008.245.264 24.524 24.524 0 00.517 4.541c-.684.57-.7 1.037.029 1.472a39.694 39.694 0 019.344 8.212 58.412 58.412 0 016.021 8.246 4.52 4.52 0 01.327 1.023l-.016-.053c.271.2.611.356.441.8l-.025-.054a9.478 9.478 0 012.53 4.509l-.023-.056c.3.182.6.364.439.8l-.016-.058c.2.231.386.471.6.689a.412.412 0 00.3.137.309.309 0 00.153-.264 21.7 21.7 0 00-.6-2.523c-.547-1.583-1.186-3.134-1.769-4.7a2.959 2.959 0 01-.08-.71c-.135-.131-.317-.237-.4-.395-1.05-2.017-2.086-4.041-3.125-6.064-.331-.459-.685-.9-.99-1.379a46.123 46.123 0 00-9.8-11.327 26.587 26.587 0 012.51 1.71 45.554 45.554 0 018.069 9.983c.177.281.5.611.171 1.012.318.279.74.5.936.846a140.649 140.649 0 012.606 4.915c.092.182-.01.463-.023.7a4.258 4.258 0 01.8.948c.535 1.251.994 2.534 1.482 3.8l-.042.006c.078-.392.168-.782.23-1.177.073-.46.121-.922.179-1.384l.006.06c-.081-.091-.22-.174-.237-.275q-.435-2.691-.832-5.388c-.024-.165.1-.352.154-.528l.011.058a4.853 4.853 0 01-.943-3.445l.016.058a3.05 3.05 0 01-.741-2.386l.018.057a4.479 4.479 0 01-.605-.926 35.766 35.766 0 00-2.848-5.979 3.249 3.249 0 01-.212-.675l.025.055c-.255-.206-.59-.368-.441-.8l.027.054C12.915 3.292 12.254 1.927 11.309.8z" class="cls-2" transform="translate(45.971 1.4)"/><path id="Path_7613" d="M.091 43.686a5.532 5.532 0 01.417 2.741A1.525 1.525 0 002 47.949a.956.956 0 00.627-.579c.566-1.733 1.162-3.463 1.588-5.232.573-2.381.986-4.8 1.5-7.2a17.387 17.387 0 01.574-1.777l.006.059a5.074 5.074 0 01-.124-1.088q.57-5.695 1.187-11.384c.066-.616.2-1.225.3-1.837v.06a21.357 21.357 0 01.148-6.4v.059a9.055 9.055 0 01-.078-4.707l.006.059a1.764 1.764 0 01-.1-1.96v.058c-.258-.479-.44-.957.009-1.431v.057a2.062 2.062 0 01-.1-1.959V2.8c-.2-.835-.378-1.675-.6-2.5a.544.544 0 00-.384-.3c-.108 0-.249.207-.335.345-.06.1-.038.247-.082.361-.067.173-.159.335-.239.5l-.008-.05a14.965 14.965 0 01-.138 1.872q-.824 4.172-1.723 8.33a12.616 12.616 0 01-.552 1.566v-.059a3.959 3.959 0 01.055.887q-.687 4.2-1.411 8.394c-.234 1.36-.5 2.714-.744 4.072v-.059a1.715 1.715 0 01-.225 1.747v-.057c.347.348.132.627-.112.9v-.059a6.55 6.55 0 01.133 1.267q-.262 3.108-.603 6.21a8.139 8.139 0 01-.325 1.238v-.058a10.643 10.643 0 01-.242 4.494L0 41.782a1.589 1.589 0 01.1 1.96z" class="cls-2" transform="translate(64.449 38.842)"/><path id="Path_7614" d="M.036 49.924c.068.505.479.578.842.55 1.184-.088 2.375-.165 3.543-.366a11.221 11.221 0 006.807-3.674c.58-.661 1.072-1.553 2.06-1.8l-.047.018c.6-.859.961-1.935 2.074-2.341l-.057.025c1.857-2.713 3.7-5.432 5.575-8.133a68.613 68.613 0 004.453-7.7c3.078-5.954 5.4-12.234 7.922-18.424.692-1.693 1.456-3.354 2.192-5.029l.013.016c-.048-.868.66-1.647.3-2.552-.068-.172-.136-.343-.2-.515-.122.122-.311.224-.355.369a102.169 102.169 0 01-4.369 10.877 10.224 10.224 0 01-.911 1.425v-.053a3.8 3.8 0 01-.238 1.035c-1.034 1.861-2.206 3.651-3.138 5.56a64.8 64.8 0 01-4.471 6.948c-.148.226-.481.332-.728.493l.047-.035c-.3.485-.572.986-.895 1.453-1.973 2.864-4.188 5.535-6.4 8.213-2.341 2.829-4.878 5.462-7.424 8.092-.552.57-1.038 1.281-1.941 1.377l.048-.034a5.936 5.936 0 01-2.6 2.446l.052-.03c-.2.433-.428.828-1.005.76l.048-.029C.876 49.3.758 49.983 0 49.946z" class="cls-2" transform="translate(18.178 44.022)"/><path id="Path_7615" d="M5.254.752L4.836 0h.015l-.443.64V.587a1.869 1.869 0 01.1 1.959v-.057a1.12 1.12 0 01-.014 1.431v-.058c.558.627.291 1.3.1 1.96l-.006-.059a10.518 10.518 0 01.078 4.707v-.059a12.736 12.736 0 01-.148 6.4v-.06a4.14 4.14 0 01.2 2.584q-.441 4.99-.981 9.972a8.541 8.541 0 01-.585 1.754L3.131 31c.458.452.137.972.06 1.424A85.052 85.052 0 01.32 44.772 5.467 5.467 0 000 45.858a.69.69 0 00.3.574 6.385 6.385 0 001.459.391c1.4.206 2.013-.03 2.586-1.343.855-1.958 1.555-3.986 2.333-5.98.3-.758.637-1.5.958-2.245v.062a5.014 5.014 0 01-.044-.9c.336-2.565.7-5.128 1.039-7.692.132-.987-.135-2.022.353-2.968v.058a1.126 1.126 0 01.005-1.429v.055a3.642 3.642 0 01-.288-.847 366.472 366.472 0 01-.528-6.943 8.931 8.931 0 01.138-1.461l.01.058A12.092 12.092 0 017.3 9.9l.012.056-.113-.585.008.058a4.706 4.706 0 01-.378-.854q-.667-2.938-1.283-5.889c-.1-.479-.133-.972-.2-1.458l.015.056L5.249.7z" class="cls-2" transform="translate(67.608 41.011)"/><path id="Path_7616" d="M7.045 4.4c-.447-.438-.912-.859-1.336-1.319-.471-.511-.885-1.072-1.355-1.585C2.722-.29 2.828-.79 1.582 1.755A11.882 11.882 0 00.111 8.324a5.223 5.223 0 01-.064.941L0 9.283c.275.08.651.077.8.26a5.665 5.665 0 01.6 1.152l-.026-.048a4.713 4.713 0 01.551.517 33.877 33.877 0 007.634 6.98 38.9 38.9 0 009.8 5.229c.652.218 1.282.5 1.922.751l-.06-.005.9.112-.045.012c-.154-.244-.25-.6-.471-.717a51.719 51.719 0 01-10.011-7.486C8.22 12.974 5.091 9.661 2.012 6.3a9.4 9.4 0 01-.6-.729c-.038-.051.014-.169.024-.257.059.011.136 0 .176.036a6.618 6.618 0 01.562.508C5.516 9.4 8.893 12.91 12.5 16.193a55 55 0 009.627 7.073 4.923 4.923 0 00.693.3c.464.178.933.345 1.4.515-.076-.68-.776-.651-1.148-1-.926-.863-1.946-1.627-2.84-2.52a93.627 93.627 0 01-7.914-8.961c-1.045-1.351-2.133-2.67-3.161-4.032a7.736 7.736 0 01-.657-1.31l.016.054c-.374-.246-.841-.421-.76-1.009l.029.053-.763-1.007z" class="cls-2" transform="translate(41.203 9.201)"/><path id="Path_7617" d="M0 33.333a7.592 7.592 0 01.352 1.227 38.189 38.189 0 001.148 6.9 37 37 0 001.343 3.5c.1.24.438.381.666.568.029-.244.069-.488.088-.733.052-.677.1-1.355.144-2.033l.008.057a2.3 2.3 0 01-.1-1.96l.005.059a8.725 8.725 0 01-.138-3.467 4.291 4.291 0 01.38-1.027v.058c-.53-1.036-.127-2.11-.012-3.131.209-1.865.092-3.789.81-5.583v.059c-.317-.345-.144-.628.112-.9v.057a1.319 1.319 0 01.225-1.747v.059a2.552 2.552 0 01-.073-1.996q.849-5.182 1.742-10.355a4.661 4.661 0 01.432-1.005v.058c-.05-.174-.172-.363-.14-.52Q8.068 6.181 9.185.893a2.608 2.608 0 01.359-.66l.008.05c-.306-.28-.61-.466-.916 0C7.911 1.4 7.09 2.46 6.475 3.63a50.86 50.86 0 00-3.515 8.763 69.56 69.56 0 00-1.8 7.157 8.276 8.276 0 01-.532 1.384v-.062a9.3 9.3 0 01-.341 3.965v-.058c.255.337.126.626-.111.9v-.057A2.368 2.368 0 01.053 27.9v-.055a19.5 19.5 0 01.068 5.393c-.012.057-.07.1-.105.156z" class="cls-2" transform="translate(60.8 39.768)"/><path id="Path_7618" d="M2.044 39.851a5.6 5.6 0 01-1.8 2.132c-.145.128-.163.4-.239.606a1.572 1.572 0 00.541-.089 33.907 33.907 0 005.694-4.074 50.062 50.062 0 009.975-12.32 65.422 65.422 0 006.1-14.261 77.012 77.012 0 002-9.641 4.3 4.3 0 00.091-.938A12.807 12.807 0 0024.2 0c-.6.154-.564.7-.741 1.136-1.73 4.277-3.428 8.564-5.244 12.809a213.55 213.55 0 01-4.443 9.639 56.863 56.863 0 01-2.914 5.1 82.094 82.094 0 01-6.047 8.493c-.167.206-.526.254-.8.376l.057-.025c-.541.914-.8 2.075-2.074 2.341z" class="cls-2" transform="translate(29.421 48.806)"/><path id="Path_7619" d="M3.086 36.993c.233 1.447-.437 2.71-.908 3.98C1.589 42.563.8 44.08.1 45.63c-.05.111-.123.32-.091.341a.886.886 0 00.5.2 2.346 2.346 0 001.931-1.312 36.766 36.766 0 002.791-6.406 52.668 52.668 0 002.369-9.91c.1-.807.349-1.6.528-2.393l.006.059a6.866 6.866 0 01.127-3.647l.006.059a4.862 4.862 0 01-.311-1.058A59.306 59.306 0 005.375 7.984 8.173 8.173 0 015.193 6.7l.017.057A2.007 2.007 0 014.574 4.9l.016.058a1.214 1.214 0 01-.54-1.33l.006.055a1.448 1.448 0 01-.544-1.326l.018.013c-.256-.345-.493-.706-.772-1.031A9.388 9.388 0 001.6.125C1.179-.216.948.22.7.488V.433l.113.587L.8.964c.153.188.392.356.444.568A297.606 297.606 0 012.759 8.09a3.553 3.553 0 01-.106 1.077l-.008-.058.113.585-.012-.056a3.9 3.9 0 01.575 1.122c.2 1.4.314 2.814.46 4.222l-.01-.058a3.761 3.761 0 01.323.87c.216 1.938.48 3.875.558 5.819.034.835.393 1.757-.2 2.563v-.055c.431.478.225.954-.005 1.429v-.058a2.742 2.742 0 01.257.85 42.64 42.64 0 01-.813 8.036c-.214.9-.117 1.907-.792 2.676z" class="cls-2" transform="translate(72.157 41.275)"/><path id="Path_7620" d="M5.245 8C6.3 9.247 7.4 10.458 8.406 11.745a102.939 102.939 0 009.091 10.4 24.857 24.857 0 002.549 2.255c.45.333.748 1.046 1.513.853-.177-.523-.364-1.044-.524-1.572a.921.921 0 01.049-.362l.016.058c-.292-.186-.6-.36-.439-.8l.023.056a14.484 14.484 0 01-2.53-4.509l.025.054-.441-.8.016.053a9.625 9.625 0 01-.967-1.13A59.731 59.731 0 009.05 6.269 36.78 36.78 0 002.18.367 3.173 3.173 0 001.686.09a1.248 1.248 0 00-1.5.456c-.37.526-.13.963.215 1.362.991 1.143 2.005 2.267 2.986 3.418a3.717 3.717 0 01.406.813l-.024-.047c.319.286.808.443.762 1.006L4.5 7.046c.348.264.875.4.76 1.009z" class="cls-2" transform="translate(44.456 7.457)"/><path id="Path_7621" d="M.119 32.092c.219 1.174.43 2.351.659 3.522a24.272 24.272 0 002.582 7.445 5.036 5.036 0 00.725.837.186.186 0 00.178.008c.092-.066.231-.16.23-.24a3.957 3.957 0 00-.127-.544c-.43-2.537-.872-5.072-1.265-7.616a4.892 4.892 0 01.147-1.293l.013.058a12.154 12.154 0 01-.082-5.411c.009-.052.079-.092.12-.138v.055a1.983 1.983 0 01.122-2.275v.057c-.382-.353-.1-.622.112-.9v.058a5.312 5.312 0 01.341-3.965v.062a5.14 5.14 0 01.265-2.767A57.966 57.966 0 017.744 7.7a37.3 37.3 0 013.78-6.766 2.059 2.059 0 00.323-.465A1.231 1.231 0 0011.811 0c-.114.051-.264.071-.337.156-.488.571-.983 1.141-1.434 1.74Q7.361 5.458 4.707 9.037v-.062a1.847 1.847 0 01-.067.7A32.688 32.688 0 00.874 20.421a13.886 13.886 0 01-.7 2.1l-.008-.056a3.02 3.02 0 01.255.863 641.523 641.523 0 01-.221 7.73 1.912 1.912 0 01-.18.526L0 31.546l.113.586z" class="cls-2" transform="translate(57.551 38.89)"/><path id="Path_7622" d="M2.591 9.816c.759.792.719 1.848.912 2.82a56.879 56.879 0 011.168 8.818 33.749 33.749 0 01-.951 9.953c-.188.718-.289 1.46-.43 2.192.827-.32 1.031-1.132 1.414-1.8a23.684 23.684 0 002.533-7.306 26.008 26.008 0 000-10.342A28.854 28.854 0 002.573 2.867c-.406-.567-.791-1.145-1.234-1.678C.957.73.719.086 0 0l.3 1.644c0 .056-.04.12-.06.18L.226 1.77a16.634 16.634 0 012.083 6.516l-.014-.058a1.347 1.347 0 01.313 1.645z" class="cls-2" transform="translate(78.186 45.997)"/><path id="Path_7623" d="M6.586 1.5A2.65 2.65 0 003.807.022C2.879.127 1.934.067 1 .128-.165.2-.164.225.257 1.345L.229 1.3a8.693 8.693 0 012.862 3.344l-.027-.054.44.8-.024-.057a7.446 7.446 0 01.864.956A27.488 27.488 0 017.112 12.2a2.619 2.619 0 01.033.717l-.018-.057a2.8 2.8 0 01.741 2.386l-.016-.058a5.758 5.758 0 01.943 3.445l-.011-.058c.353 1.763.72 3.524 1.046 5.293a2.859 2.859 0 01-.131.9l-.006-.06c.146.914.3 1.826.434 2.742.086.607.131 1.219.193 1.829l-.045.005q.322-.488.642-.978l.009.054a4.248 4.248 0 01-.15-.873q.089-2.587.236-5.171a2.137 2.137 0 01.283-.659l.007.059c-.522-.654-.351-1.441-.4-2.18a53.656 53.656 0 00-2.465-12.8 17.08 17.08 0 01-.406-2l.017.055a4.476 4.476 0 01-1.058-2.6l.024.056-.442-.8z" class="cls-2" transform="translate(57.051 .907)"/><path id="Path_7624" d="M4.727 21.123a7.579 7.579 0 01.178 3.333c-.026.691-.311 1.4.145 2.063.206-.648.445-1.287.61-1.945.275-1.1.482-2.217.76-3.317a12.292 12.292 0 01.531-1.387v.061a18.912 18.912 0 01-.01-2.206 32.758 32.758 0 00.038-8.24 5.663 5.663 0 01.16-1.441l.01.057c-.089-.083-.23-.151-.257-.25-.442-1.663-.873-3.329-1.307-4.993v.046C4.453.981 2.475.5.537.024-.166-.148.225.662.016.97L0 .917l.442.8-.023-.057a3.252 3.252 0 011.058 2.6L1.46 4.2c.885.982.954 2.271 1.329 3.453A53.379 53.379 0 014.9 19.143a11.626 11.626 0 01-.169 2.039z" class="cls-2" transform="translate(63.62 1.435)"/><path id="Path_7625" d="M2.7 17.1a11.76 11.76 0 01-.124 2.2C1.858 22.235 1.068 25.151.3 28.073c-.08.305-.214.6-.262.908-.042.271-.067.771.016.8.576.178.468-.358.623-.662.63-1.227 1.308-2.43 1.942-3.655A31.132 31.132 0 006.561 9.652 13.407 13.407 0 002.49.319.891.891 0 001.328.135V.089A7.65 7.65 0 012.9 5.332l-.01-.057a4.456 4.456 0 01.32.863 38.012 38.012 0 01-.044 10.012 3.564 3.564 0 01-.466 1.013z" class="cls-2" transform="translate(67.873 4.204)"/><path id="Path_7626" d="M4.754 17.762a2.45 2.45 0 01.238.872 55.584 55.584 0 01-3.85 14.974 4.708 4.708 0 00-.372.866c-.136.7-1.059 1.135-.678 2a21.977 21.977 0 001.848-1.265 15.643 15.643 0 001.746-1.735 4.269 4.269 0 00.914-1.417A39.179 39.179 0 006.829 20.02 57.3 57.3 0 005.463 8.011 17.232 17.232 0 015.25 6.15l.017.058a1.4 1.4 0 01-.313-1.645l.014.058c-.281-.61-.589-1.208-.835-1.832C3.767 1.867 3.446.93 3.107 0l-.255.073A3.005 3.005 0 002.9.636a61.606 61.606 0 012.109 11.17 17.616 17.616 0 01-.116 2.427l-.006-.059a4.364 4.364 0 01-.127 3.647z" class="cls-2" transform="translate(75.527 49.663)"/><path id="Path_7627" d="M23.575 15.439l-1.487-.462.045-.012-.9-.112.06.005a9.6 9.6 0 01-4.667-1.288 46.109 46.109 0 01-12.57-8.6 8.575 8.575 0 01-2.674-3.589l.026.048L0 .017.047 0C.109 4.486 2.294 7.948 5.53 10.763a17.373 17.373 0 004.553 2.655 21.51 21.51 0 007.509 1.764c1.76.083 3.513.328 5.271.484a3.4 3.4 0 00.728-.091z" class="cls-2" transform="translate(41.203 18.466)"/><path id="Path_7628" d="M5.483 8.231c-.008-.181-.094-.416-.012-.535 1.008-1.449 2-2.909 3.078-4.306A26.418 26.418 0 0010.937 0a15.8 15.8 0 00-4.248 3.751 28 28 0 00-4.811 9.585A59.069 59.069 0 000 24.137a2.163 2.163 0 00.182.715h.009c.119-.467.247-.933.356-1.4.137-.593.26-1.19.388-1.785l.008.056a11.654 11.654 0 01.029-1.485A30.16 30.16 0 013.4 11.944c.6-1.305 1.387-2.52 2.091-3.775z" class="cls-2" transform="translate(56.774 39.696)"/><path id="Path_7629" d="M0 .795C1.069.82 2.14.849 3.209.857a.356.356 0 00.262-.225.374.374 0 00-.18-.3C3.019.2 2.686-.052 2.447.01 1.618.225.817.554.006.841z" class="cls-2" transform="translate(84.335 33.552)"/><path id="Path_7630" d="M1.7 2.47q-.356-.532-.7-1.064Q.541.711.092.013L.135 0 .016.878 0 .821a1.93 1.93 0 01.636 1.858l-.017-.057 1.029 1.763.252-.073-.222-1.9z" class="cls-2" transform="translate(76.731 45.351)"/><path id="Path_7631" d="M0 1.372C.194.919.422.469.041 0H.032q0 .68.008 1.362z" class="cls-2" transform="translate(56.927 64.545)"/><path id="Path_7632" d="M.6.557a2.12 2.12 0 00-.26-.48C.272.007.116.023 0 0a2.215 2.215 0 00.2.485c.042.062.2.041.4.072z" class="cls-2" transform="translate(54.341 39.516)"/><path id="Path_7633" d="M.616.861C.621.7.683.516.619.4A1.788 1.788 0 00.208 0l-.2.455L0 .4l.659.448z" class="cls-2" transform="translate(76.208 44.503)"/><path id="Path_7634" d="M.166 0C.107.276.036.551 0 .83c-.006.038.158.1.25.143.01 0 .1-.1.088-.137A17.182 17.182 0 00.122.005z" class="cls-2" transform="translate(67.204 30.179)"/><path id="Path_7635" d="M.416.038C.271.12.005.2 0 .284c-.016.384.289.272.514.262l-.005.04A17.862 17.862 0 01.4 0z" class="cls-2" transform="translate(57.155 70.436)"/><path id="Path_7636" d="M.15 0a3.242 3.242 0 00-.142.3.472.472 0 000 .165C.09.411.231.36.234.3.234.2.153.1.105.006z" class="cls-2" transform="translate(56.919 67.826)"/><path id="Path_7637" d="M.016.136l.458.05C.463.133.458.037.439.034.294.012.146.009 0 0z" class="cls-2" transform="translate(64.778 33.905)"/><path id="Path_7638" d="M0 .28L.34.5.324.512.438 0 .009.334z" class="cls-2" transform="translate(67.969 28.927)"/><path id="Path_7639" d="M.135.1L0 0l.13.058z" class="cls-2" transform="translate(84.205 34.288)"/><path id="Path_7640" d="M0 0h.074L.009.041z" class="cls-2" transform="translate(82.969 34.298)"/><path id="Path_7641" d="M.107.041L0 .028.1 0z" class="cls-2" transform="translate(82.871 34.298)"/><path id="Path_7642" d="M.016 0v.084L0 .007z" class="cls-2" transform="translate(68.292 29.431)"/><path id="Path_7643" d="M.042 0l.045.068L0 .006z" class="cls-2" transform="translate(66.334 28.164)"/><path id="Path_7644" d="M0 .134L.113.061.005 0z" class="cls-2" transform="translate(72.791 35.936)"/><path id="Path_7645" d="M0 .1L.244.017C.2.013.139-.012.111.007a.493.493 0 00-.1.142z" class="cls-2" transform="translate(66.672 35.164)"/><path id="Path_7646" d="M.013.086L0 0l.027.085z" class="cls-2" transform="translate(72.431 40.926)"/><path id="Path_7647" d="M0 0l.1.012H.019z" class="cls-2" transform="translate(75.67 43.632)"/><path id="Path_7648" d="M0 0l.13.03-.12.015z" class="cls-2" transform="translate(44.879 40.218)"/><path id="Path_7649" d="M0 .135L.536 0l.009.046-.538.131z" class="cls-2" transform="translate(44.344 40.218)"/><path id="Path_7650" d="M0 0l.085.006-.072.01z" class="cls-2" transform="translate(53.574 47.072)"/><path id="Path_7651" d="M.04 0l.03.239C.083.2.114.157.1.13A.509.509 0 000 .008z" class="cls-2" transform="translate(56.927 65.909)"/><path id="Path_7652" d="M0 .167L.056 0 .043.158z" class="cls-2" transform="translate(56.909 67.125)"/><path id="Path_7653" d="M.115.551L0 .009.043 0 .16.543z" class="cls-2" transform="translate(56.909 67.283)"/><path id="Path_7654" d="M0 18.921a5.087 5.087 0 001.156-.488c1.559-1.183 3.084-2.412 4.626-3.617 2.835-2.216 5.682-4.416 8.51-6.646 2.778-2.188 5.54-4.4 8.307-6.6A28 28 0 0023.911.478 1.653 1.653 0 0024.17 0a1.259 1.259 0 00-.436.113c-.965.712-1.934 1.421-2.874 2.165Q11.93 9.327 3.02 16.4c-1.029.818-2.272 1.4-3.007 2.562z" class="cls-1" transform="translate(27.197 42.004)"/><path id="Path_7655" d="M19.936.047c-.5-.165-.819.138-1.18.406A93.215 93.215 0 006.223 11.044C5.059 12.278 4 13.61 2.9 14.9a6.611 6.611 0 01-.7.892A5.571 5.571 0 00.38 18.61a3.1 3.1 0 01-.381.65c.245-.186.595-.32.718-.568a25.019 25.019 0 014.6-5.914 71.815 71.815 0 017.142-6.706c2.019-1.6 4.06-3.179 6.079-4.781.493-.383.935-.827 1.398-1.244z" class="cls-1" transform="translate(1.647 52.938)"/><path id="Path_7656" d="M0 19.162c.9-.1 1.389-.807 1.941-1.377 2.546-2.63 5.082-5.263 7.424-8.092 2.217-2.679 4.432-5.349 6.4-8.213.323-.467.6-.968.895-1.453-.578-.143-.765.335-1.016.668-1.6 2.117-3.08 4.327-4.789 6.347-2.651 3.131-5.451 6.137-8.193 9.191-.877.982-1.773 1.953-2.662 2.929z" class="cls-1" transform="translate(22.855 70.614)"/><path id="Path_7657" d="M0 14.035c.248-.161.58-.267.728-.493A64.794 64.794 0 005.2 6.595c.931-1.909 2.1-3.7 3.138-5.56A3.8 3.8 0 008.574 0c-.821 1.325-1.715 2.611-2.449 3.983a76.9 76.9 0 01-4.931 7.75A4.511 4.511 0 000 14.035z" class="cls-1" transform="translate(39.472 56.64)"/><path id="Path_7658" d="M8.824.04C8.7.049 8.549.013 8.469.074Q4.525 3.112.6 6.175a4.21 4.21 0 00-.591.725L0 6.861c1 .005 1.509-.83 2.185-1.33C4.111 4.109 5.972 2.6 7.835 1.09A8.756 8.756 0 008.81 0z" class="cls-1" transform="translate(11.482 66.396)"/><path id="Path_7659" d="M8.118 0a4.408 4.408 0 00-1.041.314A241.135 241.135 0 001 4.051a5.711 5.711 0 00-1 1.093c.122 0 .272.05.358 0Q4.072 2.8 7.768.434A1.786 1.786 0 008.118 0z" class="cls-1" transform="translate(21.528 47.865)"/><path id="Path_7660" d="M6.374 0A48.073 48.073 0 000 8.506c.351-.162.486-.18.543-.257C2.447 5.663 4.058 2.861 6.267.5c.072-.078.055-.237.107-.5z" class="cls-1" transform="translate(2.688 69.651)"/><path id="Path_7661" d="M0 2.792A27.514 27.514 0 005 .736 6.1 6.1 0 006.035 0l.009.038a14.528 14.528 0 00-3.986 1.534A15.872 15.872 0 00.011 2.837z" class="cls-1" transform="translate(42.317 41.239)"/><path id="Path_7662" d="M4.476.04C4.414.032 4.33-.005 4.292.021A20.279 20.279 0 00.014 3.9L0 3.857c.116.019.283.1.34.049A23.757 23.757 0 004.464 0z" class="cls-1" transform="translate(21.03 77.723)"/><path id="Path_7663" d="M4.264.039c-.175.028-.406 0-.516.1C2.492 1.264 1.256 2.413.014 3.557L0 3.513a6.806 6.806 0 001.1-.652C2.171 1.929 3.2.957 4.251 0z" class="cls-1" transform="translate(18.967 55.963)"/><path id="Path_7664" d="M2.564.031a6.206 6.206 0 00-2.55 2.41L0 2.4A3.964 3.964 0 002.553 0z" class="cls-1" transform="translate(26.876 73.943)"/><path id="Path_7665" d="M3.09.041A7.17 7.17 0 00.012 2.532L0 2.489A7.04 7.04 0 003.078 0z" class="cls-1" transform="translate(13.702 85.169)"/><path id="Path_7666" d="M0 2.533A6.156 6.156 0 003.078 0l.013.041A7.179 7.179 0 00.007 2.555z" class="cls-1" transform="translate(24.119 60.925)"/><path id="Path_7667" d="M0 2.446A5.935 5.935 0 002.6 0 6.3 6.3 0 000 2.446z" class="cls-1" transform="translate(20.303 89.742)"/><path id="Path_7668" d="M0 2a5.1 5.1 0 002.226-2C1.138.374.693 1.339.008 2.044z" class="cls-1" transform="translate(12.051 64.238)"/><path id="Path_7669" d="M2.877.022A6.276 6.276 0 00.012 2.209L0 2.171A4.957 4.957 0 002.87 0z" class="cls-1" transform="translate(21.25 63.458)"/><path id="Path_7670" d="M2.448.042A3.9 3.9 0 00.012 1.587L0 1.543A3.155 3.155 0 002.438 0z" class="cls-1" transform="translate(32.879 47.577)"/><path id="Path_7671" d="M0 1.534A4.005 4.005 0 002.437 0l.011.037A3.766 3.766 0 00.012 1.576z" class="cls-1" transform="translate(29.698 49.584)"/><path id="Path_7672" d="M0 1.769A4.3 4.3 0 002.126 0l.012.037A3.831 3.831 0 00.012 1.81z" class="cls-1" transform="translate(16.78 83.4)"/><path id="Path_7673" d="M0 1.237A3.736 3.736 0 002.216 0l.012.042a2.4 2.4 0 00-2.217 1.24z" class="cls-1" transform="translate(37.342 45.395)"/><path id="Path_7674" d="M1.922.038a3.17 3.17 0 00-1.909 1.43L0 1.428A2.558 2.558 0 001.91 0z" class="cls-1" transform="translate(6.699 75.507)"/><path id="Path_7675" d="M1.925.037L.014 1.523 0 1.482C1.009 1.466 1.4.649 1.916 0z" class="cls-1" transform="translate(9.566 73.257)"/><path id="Path_7676" d="M2.031.045A2.285 2.285 0 000 .934l.027.094A2.585 2.585 0 002.02 0z" class="cls-1" transform="translate(40.298 44.031)"/><path id="Path_7677" d="M0 2.056C.961 1.685 1.344.808 1.806 0l.008.039L.013 2.1z" class="cls-1" transform="translate(10.245 66.243)"/><path id="Path_7678" d="M0 .944A2.206 2.206 0 002.024 0l.011.045A2.574 2.574 0 00.009.986z" class="cls-1" transform="translate(35.318 46.633)"/><path id="Path_7679" d="M0 1.379C.919 1.379 1.095.635 1.381 0L1.4.04C.576.141.365.851.012 1.419z" class="cls-1" transform="translate(25.495 76.344)"/><path id="Path_7680" d="M1.714.037A2.216 2.216 0 00.011 1.1L0 1.055A2.183 2.183 0 001.7 0z" class="cls-1" transform="translate(24.386 53.795)"/><path id="Path_7681" d="M1.2.039C.853.24.5.433.153.65.075.7.049.829 0 .922c.108.006.262.059.315.007C.622.633.9.313 1.193 0z" class="cls-1" transform="translate(7.044 83.53)"/><path id="Path_7682" d="M0 .531A1.245 1.245 0 001.275 0l.007.042A1.309 1.309 0 00.009.569z" class="cls-1" transform="translate(48.352 40.708)"/><path id="Path_7683" d="M1.179.041A1.718 1.718 0 00.013 1.152L0 1.113C.7 1.067.878.475 1.168 0z" class="cls-1" transform="translate(23.218 54.85)"/><path id="Path_7684" d="M.72.04a6.626 6.626 0 00-.682.407C-.021.491.01.655 0 .765a1.423 1.423 0 00.279-.2C.434.386.569.189.711 0z" class="cls-1" transform="translate(16.87 60.891)"/><path id="Path_7685" d="M0 .78A8.793 8.793 0 00.746.314C.805.27.776.108.788 0 .7.031.58.037.531.1.345.332.181.582.009.826z" class="cls-1" transform="translate(15.051 62.49)"/><path id="Path_7686" d="M.912.045C.643.128.37.2.111.3.048.329.036.474 0 .564.1.59.245.672.287.635.505.44.7.215.9 0z" class="cls-1" transform="translate(10.894 89.178)"/><path id="Path_7687" d="M0 1.079C.758 1.116.876.431 1.219 0 .6.117.3.6 0 1.079z" class="cls-1" transform="translate(18.178 92.889)"/><path id="Path_7688" d="M.813.043C.564.2.3.336.072.512.007.561.022.716 0 .822.083.782.189.764.243.7.439.475.617.235.8 0z" class="cls-1" transform="translate(3.028 79.188)"/><path id="Path_7689" d="M1.177.04C.468.032.248.573 0 1.087v-.009C.755 1.115.9.5 1.164 0z" class="cls-1" transform="translate(19.867 81.58)"/><path id="Path_7690" d="M0 .728C.595.847.733.368.956 0l.013.039C.425-.016.28.455.012.765z" class="cls-1" transform="translate(5.743 76.936)"/><path id="Path_7691" d="M.964.009C.383-.06.249.422.012.779L0 .742C.518.751.759.4.961 0z" class="cls-1" transform="translate(18.905 82.658)"/><path id="Path_7692" d="M0 .768C.576.832.752.4.957 0l.014.04C.4-.016.25.45.012.806z" class="cls-1" transform="translate(8.609 74.739)"/><path id="Path_7693" d="M.964.037L.01.765 0 .73C.592.845.737.376.952 0z" class="cls-1" transform="translate(4.791 77.664)"/><path id="Path_7694" d="M.971.035l-.96.8L0 .794C.55.808.713.352.961 0z" class="cls-1" transform="translate(3.829 78.394)"/><path id="Path_7695" d="M.969.038C.4-.028.254.447.012.8L0 .757C.557.805.766.414.956 0z" class="cls-1" transform="translate(8.236 82.773)"/><path id="Path_7696" d="M0 .768C.578.836.806.441 1.005.008.422-.066.26.415 0 .768z" class="cls-1" transform="translate(19.35 92.15)"/><path id="Path_7697" d="M.58.04C.461.053.3.021.234.087A1.767 1.767 0 000 .537 1.773 1.773 0 00.391.329 1.1 1.1 0 00.568 0z" class="cls-1" transform="translate(9.678 68.299)"/><path id="Path_7698" d="M0 .611A4.381 4.381 0 00.585.305C.63.274.578.105.57 0 .519.029.452.047.419.09.278.274.147.466.013.655z" class="cls-1" transform="translate(11.793 88.568)"/><path id="Path_7699" d="M.408.219L.356 0C.238.1.114.192.006.3-.015.321.027.4.04.457z" class="cls-1" transform="translate(5.709 85.059)"/><path id="Path_7700" d="M0 .767C.6.856.719.356.958 0L.97.037C.408-.007.222.414.014.807z" class="cls-1" transform="translate(20.292 65.629)"/><path id="Path_7701" d="M.584.044a3.748 3.748 0 00-.562.29c-.048.035 0 .2 0 .31C.076.62.149.61.178.569.315.385.44.19.57 0z" class="cls-1" transform="translate(18.397 59.476)"/><path id="Path_7702" d="M.962.04C.332-.1.245.447.01.8L0 .767.951 0z" class="cls-1" transform="translate(26.09 53.028)"/><path id="Path_7703" d="M.968.04C.386-.06.252.426.012.772L0 .732C.567.812.739.377.955 0z" class="cls-1" transform="translate(27.04 52.296)"/><path id="Path_7704" d="M.968.039A1.114 1.114 0 00.013.77L0 .729C.573.82.714.344.957 0z" class="cls-1" transform="translate(27.995 51.567)"/><path id="Path_7705" d="M.756.045L.011.5 0 .464C.411.571.583.3.744 0z" class="cls-1" transform="translate(32.135 49.119)"/><path id="Path_7706" d="M.739 0L.012.472 0 .43.767.094z" class="cls-1" transform="translate(39.558 44.965)"/><path id="Path_7707" d="M.758.041C.355-.065.176.2.011.488L0 .449.746 0z" class="cls-1" transform="translate(28.952 51.118)"/><path id="Path_7708" d="M.731.045L.007.476 0 .439.721 0z" class="cls-1" transform="translate(50.159 40.17)"/><path id="Path_7709" d="M.215.093C.188.06.149 0 .138 0A.679.679 0 000 .093l.143.155z" class="cls-1" transform="translate(52.209 41.071)"/><path id="Path_7710" d="M.327.042a2.732 2.732 0 00-.3.087C.006.137.008.206 0 .247L.319 0z" class="cls-1" transform="translate(9.766 90.275)"/><path id="Path_7711" d="M.43.044L0 .168C.3.515.3.115.419 0z" class="cls-1" transform="translate(13.283 87.658)"/><path id="Path_7712" d="M.133.046L0 .056.124 0z" class="cls-1" transform="translate(14.927 63.271)"/><path id="Path_7713" d="M0 .054L.239.046C.2.03.163-.008.137 0a.526.526 0 00-.129.1z" class="cls-1" transform="translate(10.085 90.221)"/><path id="Path_7714" d="M0 .037L.111 0 .01.077z" class="cls-1" transform="translate(17.581 60.854)"/><path id="Path_7715" d="M0 0l.163.03-.155.014z" class="cls-1" transform="translate(51.443 40.083)"/><path id="Path_7716" d="M0 0l.08.006-.071.013z" class="cls-1" transform="translate(50.461 39.453)"/><path id="Path_7717" d="M.571.044L.01.132 0 .087.563 0z" class="cls-1" transform="translate(50.88 40.083)"/><path id="Path_7718" d="M.539.037l-.532.1L0 .1.532 0z" class="cls-1" transform="translate(49.627 40.609)"/><path id="Path_7719" d="M9.657.012c-.24.014-.54-.062-.71.054-2.637 1.806-5.465 3.343-7.838 5.52a14.2 14.2 0 00-1.1 1.261L0 6.807a10.4 10.4 0 001.406-.826A62.108 62.108 0 018.36 1.112 12.558 12.558 0 009.67.058z" class="cls-1" transform="translate(6.834 50.908)"/><path id="Path_7720" d="M9 0a9.836 9.836 0 00-1.584.48q-2.872 1.409-5.7 2.911a19.139 19.139 0 00-1.7 1.14L0 4.492c.227.044.508.2.671.114a643.707 643.707 0 007.8-4 3.228 3.228 0 00.563-.48z" class="cls-1" transform="translate(17.446 45.674)"/><path id="Path_7721" d="M.061 2.708c.539-.124 1.093-.224 1.629-.376q2.781-.79 5.551-1.613c.47-.14.917-.357 1.374-.538L8.582.046a8.273 8.273 0 00-3.653.693c-1.67.482-3.446.712-4.929 1.74.019.076.04.153.061.229z" class="cls-1" transform="translate(34.071 40.059)"/><path id="Path_7722" d="M5.616 0A15.776 15.776 0 000 2.171c.018.069.036.139.056.208a6.02 6.02 0 001.06-.228C2.643 1.529 4.158.873 5.677.228A8.477 8.477 0 015.616 0z" class="cls-1" transform="translate(28.455 42.538)"/><path id="Path_7723" d="M1.958.04c-.214.1-.526.139-.624.306C.973.963-.015 1.06 0 1.97.558 1.479 1.123 1 1.666.49A1.866 1.866 0 001.944 0z" class="cls-1" transform="translate(4.89 57.715)"/><path id="Path_7724" d="M2.007 0A3.074 3.074 0 000 .964l.032.126A2.612 2.612 0 002.063.208L2.007 0z" class="cls-1" transform="translate(26.448 44.71)"/><path id="Path_7725" d="M.968.038L0 .754.014.8C.593.846.77.419.955 0z" class="cls-1" transform="translate(16.491 50.166)"/><path id="Path_7726" d="M10.754 12.715c.333-.4.006-.73-.171-1.012a45.555 45.555 0 00-8.069-9.982A26.59 26.59 0 000 0a46.123 46.123 0 019.8 11.327c.305.475.659.92.99 1.379z" class="cls-1" transform="translate(49.824 4.236)"/><path id="Path_7727" d="M3.665 7.58a2.618 2.618 0 00-.033-.717A27.489 27.489 0 00.864.956 7.446 7.446 0 000 0a3.253 3.253 0 00.212.675A35.771 35.771 0 013.06 6.654a4.473 4.473 0 00.605.926z" class="cls-1" transform="translate(60.531 6.24)"/><path id="Path_7728" d="M3.52 6.469c.013-.235.115-.516.023-.7C2.7 4.119 1.843 2.472.936.855.74.507.318.288 0 .009L.04 0c1.039 2.023 2.075 4.047 3.125 6.064.082.158.264.264.4.395z" class="cls-1" transform="translate(60.578 16.942)"/><path id="Path_7729" d="M1.071 6.192a2.858 2.858 0 00.131-.9C.877 3.524.509 1.763.157 0 .1.176-.021.363 0 .528q.4 2.698.835 5.389c.016.101.155.183.236.275z" class="cls-1" transform="translate(65.678 19.477)"/><path id="Path_7730" d="M0 0a14.483 14.483 0 002.53 4.509A9.478 9.478 0 000 0z" class="cls-1" transform="translate(62.61 25.584)"/><path id="Path_7731" d="M2.862 3.347A8.693 8.693 0 000 0c.944 1.123 1.606 2.489 2.862 3.347z" class="cls-1" transform="translate(57.28 2.204)"/><path id="Path_7732" d="M.948 3.445A5.757 5.757 0 00.005 0a4.854 4.854 0 00.943 3.445z" class="cls-1" transform="translate(64.897 16.091)"/><path id="Path_7733" d="M.76 2.386A2.8 2.8 0 00.018 0 3.05 3.05 0 00.76 2.386z" class="cls-1" transform="translate(64.159 13.763)"/><path id="Path_7734" d="M.046 0c-.165.437.147.611.438.8C.642.364.344.182.046 0z" class="cls-1" transform="translate(65.071 30.038)"/><path id="Path_7735" d="M0 0l.441.8C.61.356.271.2 0 0z" class="cls-1" transform="translate(62.193 24.841)"/><path id="Path_7736" d="M.477.8L.037 0c-.149.43.185.592.44.8z" class="cls-1" transform="translate(60.078 5.497)"/><path id="Path_7737" d="M.131 14.309a8.539 8.539 0 00.585-1.754q.547-4.98.981-9.972A4.14 4.14 0 001.5 0c-.1.612-.239 1.221-.3 1.837Q.581 7.528.007 13.221a5.078 5.078 0 00.124 1.088z" class="cls-1" transform="translate(70.614 57.757)"/><path id="Path_7738" d="M2.346 0a4.662 4.662 0 00-.432 1.005Q1.014 6.178.169 11.36a2.553 2.553 0 00.077 1.993C.495 12 .756 10.642.99 9.282Q1.711 5.087 2.4.887A3.955 3.955 0 002.346 0z" class="cls-1" transform="translate(65.589 51.708)"/><path id="Path_7739" d="M2.558 0A2.609 2.609 0 002.2.66Q1.08 5.947.005 11.245c-.032.157.09.346.14.52A12.551 12.551 0 00.7 10.2q.9-4.157 1.723-8.328A14.948 14.948 0 002.558 0z" class="cls-1" transform="translate(67.786 40.001)"/><path id="Path_7740" d="M1.065 0C.347 1.794.464 3.718.255 5.583.14 6.6-.263 7.678.267 8.714a8.133 8.133 0 00.325-1.238q.336-3.1.606-6.209A6.557 6.557 0 001.065 0z" class="cls-1" transform="translate(64.431 67.533)"/><path id="Path_7741" d="M.175 6.4A12.737 12.737 0 00.323 0a21.355 21.355 0 00-.148 6.4z" class="cls-1" transform="translate(71.94 51.421)"/><path id="Path_7742" d="M.486 0a4.294 4.294 0 00-.38 1.027 8.725 8.725 0 00.138 3.467A10.643 10.643 0 00.486 0z" class="cls-1" transform="translate(64.211 76.19)"/><path id="Path_7743" d="M.352 4.707A10.517 10.517 0 00.274 0a9.056 9.056 0 00.078 4.707z" class="cls-1" transform="translate(71.916 46.773)"/><path id="Path_7744" d="M.3 1.959A1.869 1.869 0 00.2 0a2.062 2.062 0 00.1 1.959z" class="cls-1" transform="translate(71.815 41.598)"/><path id="Path_7745" d="M.17 0a2.3 2.3 0 00.1 1.96A1.589 1.589 0 00.17 0z" class="cls-1" transform="translate(64.279 80.624)"/><path id="Path_7746" d="M.348 1.96C.539 1.3.807.627.248 0a1.764 1.764 0 00.1 1.96z" class="cls-1" transform="translate(71.849 44.872)"/><path id="Path_7747" d="M.465 0a1.319 1.319 0 00-.224 1.747A1.715 1.715 0 00.465 0z" class="cls-1" transform="translate(65.37 65.002)"/><path id="Path_7748" d="M.264 1.431A1.12 1.12 0 00.273 0C-.175.474.006.952.264 1.431z" class="cls-1" transform="translate(71.837 43.5)"/><path id="Path_7749" d="M.284 0C.028.273-.146.557.171.9.415.627.631.348.284 0z" class="cls-1" transform="translate(65.326 66.691)"/><path id="Path_7750" d="M0 2.341C1.27 2.075 1.533.914 2.074 0 .961.407.6 1.482 0 2.341z" class="cls-1" transform="translate(31.419 86.333)"/><path id="Path_7751" d="M.056 11.562c.675-.769.579-1.774.792-2.676A42.64 42.64 0 001.661.85 2.743 2.743 0 001.4 0c-.488.946-.221 1.98-.353 2.968C.708 5.532.348 8.095.012 10.66a5.009 5.009 0 00.044.902z" class="cls-1" transform="translate(75.188 66.768)"/><path id="Path_7752" d="M.821 9.252c.6-.806.237-1.727.2-2.563C.946 4.745.682 2.808.467.87A3.763 3.763 0 00.143 0a8.935 8.935 0 00-.138 1.461C.156 3.777.339 6.091.533 8.4a3.64 3.64 0 00.288.852z" class="cls-1" transform="translate(75.785 56.2)"/><path id="Path_7753" d="M1.855 8.2a3.551 3.551 0 00.106-1.077A280.02 280.02 0 00.444.568C.392.356.153.188 0 0c.065.486.1.979.2 1.458q.618 2.95 1.279 5.891a4.7 4.7 0 00.376.851z" class="cls-1" transform="translate(72.955 42.239)"/><path id="Path_7754" d="M1.035 5.345C.888 3.936.777 2.522.575 1.122A3.906 3.906 0 000 0a12.092 12.092 0 001.035 5.345z" class="cls-1" transform="translate(74.903 50.913)"/><path id="Path_7755" d="M.254 1.429C.484.954.691.478.259 0a1.126 1.126 0 00-.005 1.429z" class="cls-1" transform="translate(76.342 65.396)"/><path id="Path_7756" d="M.113.587L0 0z" class="cls-1" transform="translate(72.856 41.708)"/><path id="Path_7757" d="M.113.585L0 0z" class="cls-1" transform="translate(74.802 50.384)"/><path id="Path_7758" d="M0 0a8.576 8.576 0 002.673 3.588 46.11 46.11 0 0012.57 8.6 9.6 9.6 0 004.666 1.288c-.64-.252-1.27-.533-1.922-.751A38.9 38.9 0 018.185 7.5 33.875 33.875 0 01.551.517 4.711 4.711 0 000 0z" class="cls-1" transform="translate(42.585 19.847)"/><path id="Path_7759" d="M0 0l1.407 1.411A5.671 5.671 0 00.8.26C.651.077.275.08 0 0z" class="cls-1" transform="translate(41.203 18.484)"/><path id="Path_7760" d="M.762 1.006C.808.443.319.286 0 0z" class="cls-1" transform="translate(48.225 13.55)"/><path id="Path_7761" d="M.769 1.009C.884.4.358.264.009 0c-.081.588.386.763.76 1.009z" class="cls-1" transform="translate(48.949 14.504)"/><path id="Path_7762" d="M0 0l.9.112z" class="cls-1" transform="translate(62.435 33.319)"/><path id="Path_7763" d="M.384 0C.343.046.273.086.264.138a12.155 12.155 0 00.082 5.411c.036-.052.093-.1.105-.156A19.5 19.5 0 00.384 0z" class="cls-1" transform="translate(60.466 67.609)"/><path id="Path_7764" d="M.6 0a5.313 5.313 0 00-.345 3.965A9.3 9.3 0 00.6 0z" class="cls-1" transform="translate(60.831 60.639)"/><path id="Path_7765" d="M.422 0A1.983 1.983 0 00.3 2.273 2.368 2.368 0 00.422 0z" class="cls-1" transform="translate(60.55 65.391)"/><path id="Path_7766" d="M.3 0C.091.28-.194.549.188.9.426.626.554.337.3 0z" class="cls-1" transform="translate(60.785 64.545)"/><path id="Path_7767" d="M1.029 1.763L0 0a8.169 8.169 0 00.183 1.286A59.308 59.308 0 012.76 14.865a4.861 4.861 0 00.311 1.058 17.626 17.626 0 00.116-2.423 61.608 61.608 0 00-2.11-11.174 3 3 0 01-.048-.563z" class="cls-1" transform="translate(77.35 47.973)"/><path id="Path_7768" d="M.2 3.647A4.364 4.364 0 00.327 0 6.867 6.867 0 00.2 3.647z" class="cls-1" transform="translate(80.087 63.837)"/><path id="Path_7769" d="M.681 1.858A1.93 1.93 0 00.045 0a2.007 2.007 0 00.636 1.858z" class="cls-1" transform="translate(76.687 46.172)"/><path id="Path_7770" d="M.693.448L.034 0a1.214 1.214 0 00.54 1.326z" class="cls-1" transform="translate(76.173 44.903)"/><path id="Path_7771" d="M4.551 0c-.7 1.256-1.5 2.47-2.091 3.775a30.159 30.159 0 00-2.421 8.289 11.665 11.665 0 00-.029 1.485 13.886 13.886 0 00.7-2.1A32.688 32.688 0 014.484.7a1.845 1.845 0 00.067-.7z" class="cls-1" transform="translate(57.711 47.865)"/><path id="Path_7772" d="M0 0c.037.2.075.39.113.586C.076.39.037.2 0 0z" class="cls-1" transform="translate(57.551 70.436)"/><path id="Path_7773" d="M0 0l.222 1.9c.339.93.661 1.867 1.025 2.788.247.623.555 1.222.835 1.832A16.634 16.634 0 000 0z" class="cls-1" transform="translate(78.412 47.768)"/><path id="Path_7774" d="M.152 0a1.4 1.4 0 00.313 1.645A1.347 1.347 0 00.152 0z" class="cls-1" transform="translate(80.329 54.225)"/><path id="Path_7775" d="M3.275 16.98a11.626 11.626 0 00.169-2.039A53.379 53.379 0 001.329 3.453C.954 2.271.885.982 0 0a17.068 17.068 0 00.406 2 53.654 53.654 0 012.465 12.8c.053.739-.118 1.525.404 2.18z" class="cls-1" transform="translate(65.08 5.638)"/><path id="Path_7776" d="M1.058 2.6A3.252 3.252 0 000 0a4.476 4.476 0 001.058 2.6z" class="cls-1" transform="translate(64.039 3.095)"/><path id="Path_7777" d="M.442.8L0 0z" class="cls-1" transform="translate(63.62 2.353)"/><path id="Path_7778" d="M.044 11.887a3.565 3.565 0 00.464-1.013A38.012 38.012 0 00.552.863 4.454 4.454 0 00.232 0a5.663 5.663 0 00-.16 1.441 32.763 32.763 0 01-.038 8.24 18.905 18.905 0 00.01 2.206z" class="cls-1" transform="translate(70.531 9.479)"/><path id="Path_7779" d="M1.568 5.242A7.65 7.65 0 000 0c.434 1.664.865 3.33 1.312 4.992.026.099.168.167.256.25z" class="cls-1" transform="translate(69.205 4.293)"/></g></svg>