<svg xmlns="http://www.w3.org/2000/svg" width="220" height="220"><defs><clipPath id="clip-path"><circle id="Ellipse_18" cx="110" cy="110" r="110" fill="#fff" stroke="#707070"/></clipPath><style>.cls-4{fill:#ffb8b8}.cls-5{fill:#2f2e41}.cls-6{fill:#fec3b1}.cls-7{fill:#693544}.cls-9{fill:none;stroke:#2f2e41;stroke-width:1.5px}</style></defs><g id="Group_82"><circle id="Ellipse_1" cx="110" cy="110" r="110" fill="#fefdf3"/><g id="Mask_Group_2" clip-path="url(#clip-path)"><g id="Group_79" transform="translate(-108.259 22.156)"><path id="Path_12507" d="M140.97 460.553h13.968l2.087-53.877h-16.057z" class="cls-4" transform="translate(118.732 -11.567)"/><path id="Path_12508" d="M305.755 684.562h45.039v-.57a17.53 17.53 0 0 0-17.531-17.53h-27.509z" class="cls-5" transform="translate(-49.614 -222.035)"/><path id="Path_12509" d="M240.167 460.553H226.2l-2.088-53.877h16.058z" class="cls-4" transform="translate(-59.14 -11.567)"/><path id="Path_12510" d="M453.125 666.462h-27.51a17.53 17.53 0 0 0-17.53 17.531v.569h45.039z" class="cls-5" transform="translate(-268.535 -222.035)"/><path id="Path_12511" d="M347.765 688.6a5.15 5.15 0 0 0 5.006-4.013l34.621-151.008a1.66 1.66 0 0 1 1.668-1.338h.009a1.662 1.662 0 0 1 1.664 1.354l31.793 149.99a5.152 5.152 0 0 0 5.016 4.063h15.145a5.127 5.127 0 0 0 5.118-5.43l-11.281-190.106-4.539-1.343h-.085l-89.163.78-18.99 189.9a5.125 5.125 0 0 0 4.69 5.608l18.918 1.527q.206.016.41.016z" class="cls-5" transform="translate(-167.105 -246.518)"/><circle id="Ellipse_3" cx="27.984" cy="27.984" r="27.984" class="cls-6" transform="translate(189.497 14.273)"/><path id="Path_12512" d="M400.34 533.169a48.3 48.3 0 0 0 14.5-2.041 32.013 32.013 0 0 0 19.412-16.378 5.134 5.134 0 0 0 .382-3.822c-3.086-10.533-18-65.285-8.484-108.811a46.126 46.126 0 0 0-6.557-35.45 45.548 45.548 0 0 0-29.54-19.868 68.327 68.327 0 0 0-4.716-.752 45.387 45.387 0 0 0-36.753 12.092 46.509 46.509 0 0 0-14.6 36.87l7.316 117.356a5.082 5.082 0 0 0 2.732 4.219c8.419 4.416 33.721 16.585 56.308 16.585z" class="cls-7" transform="translate(-165.716 -266.732)"/><path id="Path_12513" d="M337.658 506.5a12.24 12.24 0 0 1-4.377-18.251l-9.152-89.484h19.779l7.274 87.377a12.306 12.306 0 0 1-13.524 20.358z" class="cls-6" transform="translate(-75.273 -259.337)"/><path id="Path_12514" d="M338.109 361.627a16.212 16.212 0 0 0-12.978 17.024l2.726 39.015a4.557 4.557 0 0 0 5.88 4.04l32.841-10.053a4.557 4.557 0 0 0 2.92-5.994L356.433 371.7a16.211 16.211 0 0 0-18.324-10.073z" class="cls-7" transform="translate(-90.652 -264.558)"/><path id="Path_12515" d="M351.228 298.048a34.358 34.358 0 0 1 37.658-21.173l-8.823 7.13c10.962.369 22.5-.416 30.329 7.268-2.492-.069-5.758 5.261-8.25 5.192 4.659.092 8.883 3.365 10.941 7.546a21.494 21.494 0 0 1 1.269 13.669c-.92 4.568-7.939 15.269-9.828 19.529.325-11.132-21.59-37.683-32.291-34.912a29.363 29.363 0 0 1 13.559 10.294 39.768 39.768 0 0 0-23.586-3.859 16.69 16.69 0 0 1-5.623.315 6.865 6.865 0 0 1-4.07-10.97z" class="cls-5" transform="translate(-165.36 -276.39)"/><path id="Path_12516" fill="#3f3d56" d="M188.238 683.779h434.091a1.139 1.139 0 0 0 0-2.279H188.238a1.139 1.139 0 1 0 0 2.279z" transform="translate(-187.098 -219.94)"/><path id="Path_12524" d="M433.782 456.653a11.994 11.994 0 0 0-1.853.364l-42.892-36.783 2.507-13.5-19.873-6.446-6.76 23.461a9.115 9.115 0 0 0 3.884 10.226l54.321 34.375a11.96 11.96 0 1 0 10.666-11.7z" class="cls-6" transform="translate(-212.848 -259.125)"/><path id="Path_12525" d="M428.806 362.863a16.212 16.212 0 0 0-18.622 10.557l-12.819 36.949a4.557 4.557 0 0 0 3.82 6.025l34.15 3.656a4.557 4.557 0 0 0 5.039-4.365l1.326-36.36a16.211 16.211 0 0 0-12.894-16.462z" class="cls-7" transform="translate(-244.621 -264.389)"/><g id="Rectangle_9" class="cls-9" transform="translate(182.296 35.445)"><rect width="5.697" height="13.672" rx="1"/><rect width="4.197" height="12.172" x=".75" y=".75" rx=".25"/></g><path id="Line_1" d="M21.061.545 0 0" class="cls-9" transform="translate(188.562 41.711)"/></g></g></g></svg>