<svg xmlns="http://www.w3.org/2000/svg" width="68" height="68" class="injected-svg" data-src="https://puncatan.sirv.com/wedding/ico-mic.svg"><defs><filter id="a-340" width="68" height="68" x="0" y="0" filterUnits="userSpaceOnUse"><feOffset dy="3"/><feGaussianBlur result="b" stdDeviation="3"/><feFlood flood-opacity=".161"/><feComposite in2="b" operator="in"/><feComposite in="SourceGraphic"/></filter><style>.b{fill:#ffb100}</style></defs><g filter="url(#a-340)"><rect width="50" height="50" fill="#fefdf3" rx="10" transform="translate(9 6)"/></g><path d="M34.348 39.5a6.012 6.012 0 0 0 6.006-6.005v-13.49a6.005 6.005 0 0 0-12.011 0v13.489a6.012 6.012 0 0 0 6.005 6.006z" class="b"/><path d="M44 29.903h-1.2a.7.7 0 0 0-.7.7v2.445a7.761 7.761 0 1 1-15.521 0v-2.449a.7.7 0 0 0-.7-.7h-1.2a.7.7 0 0 0-.7.7v2.445a10.5 10.5 0 0 0 9.054 10.265v1.732h-5.321a.7.7 0 0 0-.7.7v1.2a.7.7 0 0 0 .7.7h13.27a.7.7 0 0 0 .7-.7v-1.2a.7.7 0 0 0-.7-.7h-5.34v-1.732a10.5 10.5 0 0 0 9.054-10.265v-2.445a.7.7 0 0 0-.696-.696z" class="b"/></svg>