<svg xmlns="http://www.w3.org/2000/svg" width="68" height="68" class="injected-svg" data-src="https://puncatan.sirv.com/wedding/ico-mute.svg"><defs><filter id="a-339" width="68" height="68" x="0" y="0" filterUnits="userSpaceOnUse"><feOffset dy="3"/><feGaussianBlur result="b" stdDeviation="3"/><feFlood flood-opacity=".161"/><feComposite in2="b" operator="in"/><feComposite in="SourceGraphic"/></filter><style>.b{fill:#ffb100}</style></defs><g filter="url(#a-339)"><rect width="50" height="50" fill="#fefdf3" rx="10" transform="translate(9 6)"/></g><path d="M39.583 33.418v-4.4l-9.341 9.342a5.978 5.978 0 0 0 9.341-4.946z" class="b"/><path d="M43.217 29.842h-1.192a.693.693 0 0 0-.693.693v2.436a7.726 7.726 0 0 1-12.083 6.385l-1.812 1.818a10.128 10.128 0 0 0 4.881 2.022v1.726h-5.324a.693.693 0 0 0-.693.693v1.191a.693.693 0 0 0 .693.693H40.21a.693.693 0 0 0 .693-.693v-1.192a.693.693 0 0 0-.693-.693h-5.32v-1.725a10.454 10.454 0 0 0 9.019-10.225v-2.436a.693.693 0 0 0-.692-.693zm3.428-13.176a1.906 1.906 0 0 0-2.695 0l-4.366 4.367v-1.051a5.982 5.982 0 0 0-11.964 0V33l-1.577 1.577a7.7 7.7 0 0 1-.171-1.6v-2.442a.693.693 0 0 0-.693-.693h-1.192a.693.693 0 0 0-.693.693v2.436a9.992 9.992 0 0 0 .7 3.65l-3.436 3.436a1.91 1.91 0 0 0 2.7 2.7l23.386-23.395a1.9 1.9 0 0 0 .001-2.696z" class="b"/></svg>