<svg xmlns="http://www.w3.org/2000/svg" id="Group_1539" width="24" height="17"><defs><style>.change-color{fill:#fefdf3}.cls-2,.cls-3{fill:#693544}.cls-3{fill-rule:evenodd}</style></defs><path id="Path_45" d="m9.789 67.142-.32-.043a14.193 14.193 0 0 1-3.494-.905 6.894 6.894 0 0 1-1.922-1.167 2.945 2.945 0 0 1-.976-1.389v-.02l-.014-.018-.348-.716.734-3.879a3.311 3.311 0 0 0 .7 1.041c.572.584 1.793 1.347 4.369 1.669a20.606 20.606 0 0 0 2.074.145 31.8 31.8 0 0 0 4.033-.142 16.647 16.647 0 0 0 2.562-.456 6.782 6.782 0 0 0 1.568-.6 41.94 41.94 0 0 1-.09 1.612 9.321 9.321 0 0 1-.4 2.493 2.6 2.6 0 0 1-.681.814 6.054 6.054 0 0 1-1.567.947 9.444 9.444 0 0 1-2.561.656 15.132 15.132 0 0 1-3.667-.042z" class="change-color" transform="translate(-2.589 -50.42)"/><path id="Path_46" d="M17.96 58.7a7.634 7.634 0 0 1-1.414.515 16.747 16.747 0 0 1-2.578.459 31.887 31.887 0 0 1-4.046.142 20.7 20.7 0 0 1-2.084-.146c-2.606-.325-3.849-1.105-4.434-1.7a3.625 3.625 0 0 1-.575-.765l-.657 3.473.325.668.017.035.008.04a2.866 2.866 0 0 0 .932 1.31 6.78 6.78 0 0 0 1.891 1.139 14.087 14.087 0 0 0 3.468.9l.318.042a15.037 15.037 0 0 0 3.643.045 9.34 9.34 0 0 0 2.533-.649 5.938 5.938 0 0 0 1.537-.928 2.631 2.631 0 0 0 .647-.768 8.436 8.436 0 0 0 .387-2.437c.042-.532.067-1.033.082-1.375zm.256-.465a20.425 20.425 0 0 1-.514 4.415c-.416.9-2.886 3.158-8.594 2.445l-.322-.043c-5.937-.84-6.494-3.569-6.494-3.569l-.372-.764.834-4.419a2.755 2.755 0 0 0 .807 1.444c.678.692 2.008 1.349 4.3 1.636a20.4 20.4 0 0 0 2.064.144c6.461.15 8.291-1.293 8.291-1.293z" class="cls-2" transform="translate(-1.919 -48.228)"/><path id="Path_47" d="M9.45 67.826a14.508 14.508 0 0 1-3.731-.916 6.78 6.78 0 0 1-2.014-1.233 3.019 3.019 0 0 1-.973-1.477l.3-3.529a2.939 2.939 0 0 0 .651.483 6.886 6.886 0 0 0 1.43.586 15.35 15.35 0 0 0 2.464.491 29.892 29.892 0 0 0 3 .206 40.543 40.543 0 0 0 4.194-.1 18.947 18.947 0 0 0 2.579-.371 6.551 6.551 0 0 0 1.481-.485c-.033.4-.1 1.242-.187 2.1a49.801 49.801 0 0 1-.191 1.689 3.607 3.607 0 0 1-.169.879 3.575 3.575 0 0 1-1.332.91 9 9 0 0 1-1.686.554 15.241 15.241 0 0 1-2.546.345 18.169 18.169 0 0 1-3.251-.125z" class="change-color" transform="translate(-2.602 -51.77)"/><path id="Path_48" d="M18.058 60.293c-.814.352-3.02 1-8.119.881a29.99 29.99 0 0 1-3.008-.207 15.454 15.454 0 0 1-2.481-.495A6.992 6.992 0 0 1 3 59.877a3.5 3.5 0 0 1-.5-.343l-.279 3.248a1.91 1.91 0 0 0 .158.4 3.633 3.633 0 0 0 .82 1.025 6.8 6.8 0 0 0 1.983 1.186 14.512 14.512 0 0 0 3.649.887h.02a18.067 18.067 0 0 0 3.232.125 15.137 15.137 0 0 0 2.528-.342 8.9 8.9 0 0 0 1.666-.547 3.4 3.4 0 0 0 1.277-.86 5.093 5.093 0 0 0 .159-.891c.057-.429.12-.991.186-1.67s.123-1.368.159-1.802zm.276-.454a43.6 43.6 0 0 1-.595 4.992c-.2.289-1.6 1.63-5.65 1.86a18.206 18.206 0 0 1-3.269-.126h-.021c-6.379-.8-6.827-3.76-6.827-3.76l.332-3.863s.57 1.237 4.65 1.746a29.579 29.579 0 0 0 2.988.205c6.811.152 8.392-1.054 8.392-1.054z" class="cls-2" transform="translate(-1.965 -50.366)"/><path id="Path_49" d="M11.906 50.873c4.428.276 8.081-.932 8.159-2.7s-3.448-3.421-7.876-3.7-8.081.932-8.159 2.7 3.448 3.427 7.876 3.7z" class="change-color" transform="translate(-3.693 -38.376)"/><path id="Path_50" d="M4.89 46.146a1.466 1.466 0 0 0-.622 1.042 1.528 1.528 0 0 0 .526 1.112 5.454 5.454 0 0 0 1.615 1.052 16.13 16.13 0 0 0 5.509 1.234 15.855 15.855 0 0 0 5.587-.542 5.208 5.208 0 0 0 1.7-.846 1.466 1.466 0 0 0 .622-1.042 1.528 1.528 0 0 0-.527-1.113 5.453 5.453 0 0 0-1.615-1.052 16.129 16.129 0 0 0-5.509-1.234 15.855 15.855 0 0 0-5.587.542 5.207 5.207 0 0 0-1.699.847zm1.637-1.119a16.053 16.053 0 0 1 5.662-.552 16.332 16.332 0 0 1 5.582 1.252 5.68 5.68 0 0 1 1.685 1.1 1.824 1.824 0 0 1 .609 1.343 1.751 1.751 0 0 1-.725 1.26 5.421 5.421 0 0 1-1.773.886 16.054 16.054 0 0 1-5.662.552 16.332 16.332 0 0 1-5.582-1.252 5.678 5.678 0 0 1-1.685-1.1 1.824 1.824 0 0 1-.609-1.343 1.751 1.751 0 0 1 .725-1.26 5.422 5.422 0 0 1 1.773-.886z" class="cls-3" transform="translate(-3.693 -38.372)"/><path id="Path_51" d="M14.2 50.009c4.2.262 7.668-.766 7.736-2.3s-3.286-2.983-7.491-3.245-7.668.766-7.736 2.3S10 49.747 14.2 50.009z" class="change-color" transform="translate(-5.947 -38.343)"/><path id="Path_52" d="M7.526 45.9a1.206 1.206 0 0 0-.578.874 1.26 1.26 0 0 0 .5.941 5.317 5.317 0 0 0 1.535.914 16.725 16.725 0 0 0 5.232 1.092 16.465 16.465 0 0 0 5.3-.436 5.088 5.088 0 0 0 1.608-.718 1.207 1.207 0 0 0 .578-.874 1.259 1.259 0 0 0-.5-.941 5.317 5.317 0 0 0-1.535-.914 16.726 16.726 0 0 0-5.232-1.092 16.465 16.465 0 0 0-5.3.436 5.088 5.088 0 0 0-1.608.718zm1.552-.993a16.662 16.662 0 0 1 5.367-.444 16.926 16.926 0 0 1 5.3 1.108 5.536 5.536 0 0 1 1.6.958 1.549 1.549 0 0 1 .589 1.179 1.485 1.485 0 0 1-.69 1.1 5.3 5.3 0 0 1-1.678.753A16.663 16.663 0 0 1 14.2 50a16.926 16.926 0 0 1-5.3-1.1 5.536 5.536 0 0 1-1.6-.958 1.549 1.549 0 0 1-.589-1.179 1.485 1.485 0 0 1 .69-1.1 5.3 5.3 0 0 1 1.677-.757z" class="cls-3" transform="translate(-5.947 -38.338)"/><path id="Path_53" d="M18.861 49.642c3.758.234 6.856-.721 6.918-2.133s-2.933-2.747-6.692-2.981-6.856.721-6.918 2.133 2.931 2.747 6.692 2.981z" class="change-color" transform="translate(-10.538 -38.386)"/><path id="Path_54" d="M12.919 45.875a1.106 1.106 0 0 0-.512.8 1.154 1.154 0 0 0 .439.855 4.686 4.686 0 0 0 1.365.835 14.51 14.51 0 0 0 4.662.994 14.279 14.279 0 0 0 4.724-.409 4.482 4.482 0 0 0 1.431-.66 1.106 1.106 0 0 0 .512-.8 1.154 1.154 0 0 0-.439-.855 4.687 4.687 0 0 0-1.365-.835 14.51 14.51 0 0 0-4.662-.994 14.279 14.279 0 0 0-4.724.409 4.481 4.481 0 0 0-1.431.66zm1.373-.935a14.476 14.476 0 0 1 4.794-.417 14.712 14.712 0 0 1 4.731 1.011 4.907 4.907 0 0 1 1.433.88 1.446 1.446 0 0 1 .528 1.091 1.386 1.386 0 0 1-.622 1.019 4.692 4.692 0 0 1-1.5.7 14.476 14.476 0 0 1-4.794.417 14.711 14.711 0 0 1-4.731-1.011 4.906 4.906 0 0 1-1.433-.88 1.446 1.446 0 0 1-.528-1.091 1.386 1.386 0 0 1 .622-1.019 4.692 4.692 0 0 1 1.5-.7z" class="cls-3" transform="translate(-10.537 -38.382)"/><path id="Path_55" d="M40.253 81.143a2.542 2.542 0 0 0-1.612.842c-.273-.348-.89-1.049-1.5-1.1-.73-.06-1.194.383-1.242 1.186a1.162 1.162 0 0 0 1.091 1.379 2.542 2.542 0 0 0 1.612-.842c.273.348.89 1.049 1.5 1.1.73.06 1.194-.383 1.242-1.186a1.162 1.162 0 0 0-1.091-1.379zm-3.235 1.88c-.516-.043-.761-.352-.727-.919s.312-.834.828-.791c.428.035.964.612 1.238.961-.312.3-.909.784-1.339.749zm3.11.257c-.428-.035-.964-.612-1.238-.961.311-.3.909-.784 1.339-.748.516.043.761.352.727.919s-.312.833-.828.79z" class="cls-2" transform="translate(-30.491 -68.166)"/><path id="Path_56" d="M60.563 26.118c-.085-.071-.172-.143-.257-.216a17.235 17.235 0 0 1-2.622-2.724 8.387 8.387 0 0 1-1.163-2.051 3.163 3.163 0 0 1-.258-1.7V18.6l2.25-2.787a3.593 3.593 0 0 0 .169 1.255 8.76 8.76 0 0 0 3.055 3.851c.515.427 1.094.862 1.721 1.293a36.156 36.156 0 0 0 3.523 2.164 17.966 17.966 0 0 0 2.392 1.073 6.716 6.716 0 0 0 1.6.392c-.148.265-.429.76-.75 1.279a7.417 7.417 0 0 1-1.387 1.832 2.079 2.079 0 0 1-.925.287 5.534 5.534 0 0 1-1.742-.1 9.871 9.871 0 0 1-2.474-.907 17.444 17.444 0 0 1-3.132-2.114z" class="change-color" transform="translate(-47.588 -14.843)"/><path id="Path_57" d="M70.14 23.994a7.624 7.624 0 0 1-1.427-.375 18.049 18.049 0 0 1-2.407-1.082 36.241 36.241 0 0 1-3.535-2.175 24.7 24.7 0 0 1-1.729-1.3 8.9 8.9 0 0 1-3.1-3.922 4.035 4.035 0 0 1-.174-.955l-2.012 2.5v.772l-.011.039a1.721 1.721 0 0 0-.018.43 4.2 4.2 0 0 0 .3 1.251 8.446 8.446 0 0 0 1.155 2 17.247 17.247 0 0 0 2.566 2.658c.085.073.171.145.256.215a17.328 17.328 0 0 0 3.11 2.1 9.752 9.752 0 0 0 2.446.9 5.42 5.42 0 0 0 1.708.1 2.113 2.113 0 0 0 .876-.269 6.708 6.708 0 0 0 1.351-1.8c.257-.41.487-.809.645-1.087zm.417-.241a16.54 16.54 0 0 1-2.288 3.362c-.732.506-3.8.978-8.4-2.847l-.258-.218c-4.749-4.06-4.086-6.633-4.086-6.633v-.843l2.557-3.174a2.846 2.846 0 0 0 .089 1.652 8.834 8.834 0 0 0 3.012 3.792c.5.413 1.065.843 1.712 1.289 5.487 3.776 7.662 3.619 7.662 3.619z" class="cls-2" transform="translate(-46.96 -12.882)"/><path id="Path_58" d="M60.581 25.823a18.045 18.045 0 0 1-2.8-2.956 8.757 8.757 0 0 1-1.22-2.233 4.451 4.451 0 0 1-.273-1.406 2.025 2.025 0 0 1 .042-.472l1.734-2.85a3.747 3.747 0 0 0 .357.8 8.762 8.762 0 0 0 .983 1.345 18.831 18.831 0 0 0 1.911 1.872 35.15 35.15 0 0 0 2.489 1.94 46.079 46.079 0 0 0 3.645 2.382 20.383 20.383 0 0 0 2.37 1.2 6.447 6.447 0 0 0 1.473.454c-.2.328-.607 1.005-1.036 1.687a39.944 39.944 0 0 1-.87 1.338 2.941 2.941 0 0 1-.513.656 3.043 3.043 0 0 1-1.524 0 8.874 8.874 0 0 1-1.679-.515 16.454 16.454 0 0 1-2.33-1.2 21.139 21.139 0 0 1-2.74-2.019z" class="change-color" transform="translate(-47.63 -14.918)"/><path id="Path_59" d="M70.45 24.55c-.849-.178-3.014-.924-7.34-4.018a36.243 36.243 0 0 1-2.5-1.947 18.958 18.958 0 0 1-1.922-1.885 8.9 8.9 0 0 1-1-1.367 4.488 4.488 0 0 1-.287-.587l-1.6 2.622a2.034 2.034 0 0 0-.032.437 4.364 4.364 0 0 0 .276 1.362 8.7 8.7 0 0 0 1.207 2.185 17.979 17.979 0 0 0 2.763 2.908l.016.014a21.027 21.027 0 0 0 2.724 2.008 16.345 16.345 0 0 0 2.315 1.193 8.769 8.769 0 0 0 1.659.51A2.9 2.9 0 0 0 68.19 28a4.193 4.193 0 0 0 .509-.671c.228-.335.517-.78.858-1.325s.68-1.104.893-1.454zm.43-.229a36.657 36.657 0 0 1-2.6 3.938c-.293.13-2.057.458-5.631-1.726A21.172 21.172 0 0 1 59.9 24.5l-.017-.014c-5.146-4.437-4.292-7.246-4.292-7.246l1.9-3.123s-.027 1.4 3.264 4.235a34.77 34.77 0 0 0 2.481 1.934c5.782 4.141 7.644 4.035 7.644 4.035z" class="cls-2" transform="translate(-46.999 -13.469)"/><path id="Path_60" d="M72.867 19.616a22.775 22.775 0 0 1-2.471-2.2 15.972 15.972 0 0 1-1.8-2.187 6.978 6.978 0 0 1-.948-1.906A1.756 1.756 0 0 1 67.682 12a1.212 1.212 0 0 1 1-.568 4.739 4.739 0 0 1 1.853.253 12.891 12.891 0 0 1 2.414 1.056 21.289 21.289 0 0 1 2.7 1.784 22.776 22.776 0 0 1 2.471 2.2 15.979 15.979 0 0 1 1.795 2.187 6.975 6.975 0 0 1 .948 1.906 1.755 1.755 0 0 1-.03 1.319 1.212 1.212 0 0 1-1 .568 4.739 4.739 0 0 1-1.853-.253 12.893 12.893 0 0 1-2.414-1.052 21.277 21.277 0 0 1-2.699-1.784z" class="change-color" transform="translate(-57.096 -11.277)"/><path id="Path_61" d="M74.959 14.04a21.17 21.17 0 0 0-2.684-1.774 12.785 12.785 0 0 0-2.394-1.048 4.708 4.708 0 0 0-1.812-.249 1.1 1.1 0 0 0-.915.5 1.606 1.606 0 0 0-.017 1.2 6.931 6.931 0 0 0 .928 1.863 15.838 15.838 0 0 0 1.78 2.169A22.661 22.661 0 0 0 72.3 18.89a21.193 21.193 0 0 0 2.684 1.774 12.791 12.791 0 0 0 2.394 1.048 4.709 4.709 0 0 0 1.812.249 1.1 1.1 0 0 0 .915-.5 1.606 1.606 0 0 0 .017-1.2A6.933 6.933 0 0 0 79.2 18.4a15.834 15.834 0 0 0-1.78-2.169 22.652 22.652 0 0 0-2.461-2.191zm.13-.237c3.688 2.842 6.025 6.338 5.22 7.808s-4.448.359-8.136-2.483-6.025-6.338-5.22-7.808 4.447-.36 8.136 2.48z" class="cls-2" transform="translate(-56.468 -10.67)"/><path id="Path_62" d="M75.563 18.572c3.5 2.7 6.907 3.853 7.6 2.579s-1.575-4.5-5.078-7.194-6.907-3.853-7.6-2.579 1.576 4.496 5.078 7.194z" class="change-color" transform="translate(-59.466 -10.824)"/><path id="Path_63" d="M71.5 11.03a.944.944 0 0 0-.861.41 1.394 1.394 0 0 0 .034 1.1 6.8 6.8 0 0 0 .937 1.687 20.558 20.558 0 0 0 4.036 4.015 18.177 18.177 0 0 0 4.733 2.742 4.75 4.75 0 0 0 1.68.329.944.944 0 0 0 .861-.41 1.394 1.394 0 0 0-.034-1.1 6.8 6.8 0 0 0-.937-1.687 20.555 20.555 0 0 0-4.034-4.016 18.18 18.18 0 0 0-4.733-2.742 4.75 4.75 0 0 0-1.682-.328zm1.748.058a18.4 18.4 0 0 1 4.8 2.776 20.8 20.8 0 0 1 4.088 4.068 7.09 7.09 0 0 1 .977 1.765 1.71 1.71 0 0 1 .013 1.36 1.163 1.163 0 0 1-1.053.538 4.944 4.944 0 0 1-1.756-.341 18.4 18.4 0 0 1-4.8-2.776 20.81 20.81 0 0 1-4.087-4.068 7.086 7.086 0 0 1-.976-1.765 1.709 1.709 0 0 1-.013-1.36 1.163 1.163 0 0 1 1.053-.538 4.945 4.945 0 0 1 1.755.34z" class="cls-3" transform="translate(-59.42 -10.731)"/><path id="Path_64" d="M80.116 19.985c3.13 2.412 6.19 3.414 6.834 2.237s-1.371-4.085-4.5-6.5-6.19-3.414-6.834-2.237 1.37 4.088 4.5 6.5z" class="change-color" transform="translate(-63.784 -12.556)"/><path id="Path_65" d="M76.543 13.17a.864.864 0 0 0-.772.381 1.271 1.271 0 0 0 .02.992 5.993 5.993 0 0 0 .823 1.519 17.853 17.853 0 0 0 3.588 3.6 15.732 15.732 0 0 0 4.228 2.427 4.157 4.157 0 0 0 1.5.275.864.864 0 0 0 .772-.381 1.271 1.271 0 0 0-.02-.992 5.991 5.991 0 0 0-.823-1.519 17.85 17.85 0 0 0-3.588-3.6 15.731 15.731 0 0 0-4.227-2.427 4.157 4.157 0 0 0-1.501-.275zm1.571 0a15.95 15.95 0 0 1 4.292 2.462 18.106 18.106 0 0 1 3.641 3.65 6.276 6.276 0 0 1 .863 1.6 1.587 1.587 0 0 1 0 1.248 1.085 1.085 0 0 1-.961.51 4.351 4.351 0 0 1-1.582-.285 15.946 15.946 0 0 1-4.291-2.462 18.1 18.1 0 0 1-3.641-3.65 6.277 6.277 0 0 1-.863-1.6 1.587 1.587 0 0 1 0-1.248 1.085 1.085 0 0 1 .961-.51 4.352 4.352 0 0 1 1.581.288z" class="cls-3" transform="translate(-63.74 -12.466)"/><path id="Path_66" d="M84.923 53.614a2.318 2.318 0 0 0-1.759-.118 3.378 3.378 0 0 0-.914-1.787.956.956 0 0 0-1.56.388 1.346 1.346 0 0 0 .444 1.816 2.318 2.318 0 0 0 1.759.118 3.379 3.379 0 0 0 .914 1.787.956.956 0 0 0 1.56-.388 1.346 1.346 0 0 0-.444-1.816zm-3.6-.068a.862.862 0 0 1-.3-1.211.618.618 0 0 1 1.04-.259A3.063 3.063 0 0 1 82.8 53.6a2.071 2.071 0 0 1-1.48-.054zm2.672 1.9a3.061 3.061 0 0 1-.735-1.524 2.072 2.072 0 0 1 1.479.055.862.862 0 0 1 .3 1.211.618.618 0 0 1-1.04.258z" class="cls-2" transform="translate(-68.004 -44.076)"/></svg>