<svg width="300" height="69" viewBox="0 0 300 69" fill="none" xmlns="http://www.w3.org/2000/svg">
<g clip-path="url(#clip0)">
<path d="M19.6721 54.4382H9.83607V39.4155V19.8004V5.25781L0 5.25789V64.2743H19.6721V54.4382Z" fill="white"/>
<path d="M25.0825 68.8525H35.4104L53.6071 0H43.2792L25.0825 68.8525Z" fill="white"/>
<path d="M59.0164 4.91821V14.7543H68.8524V29.4821V49.2786V63.9346H78.6885V4.91821H59.0164Z" fill="white"/>
</g>
<path d="M130.368 54.3149H107.41V14.5378H114.846V47.7051H130.368V54.3149Z" fill="white"/>
<path d="M146.619 37.4952L146.088 39.2067H157.301L156.77 37.4362C155.432 33.187 154.331 29.6264 153.465 26.7542C152.639 23.8428 152.127 22.0133 151.931 21.2657L151.695 20.0854C151.34 22.0526 149.649 27.8559 146.619 37.4952ZM141.308 54.3149H133.518L146.973 14.5378H156.593L170.049 54.3149H162.022L159.19 45.2854H144.14L141.308 54.3149Z" fill="white"/>
<path d="M207.042 54.3149H199.547V37.6133H183.199V54.3149H175.763V14.5378H183.199V31.1805H199.547V14.5378H207.042V54.3149Z" fill="white"/>
<path d="M223.208 54.3149H215.772V14.5378H223.208V54.3149Z" fill="white"/>
<path d="M244.585 40.8001H239.392V54.3149H231.955V14.5378H244.408C248.893 14.5378 252.474 15.7575 255.149 18.1969C257.864 20.6362 259.221 23.7641 259.221 27.5805C259.221 31.6329 257.824 34.8591 255.031 37.2591C252.277 39.6198 248.795 40.8001 244.585 40.8001ZM243.759 20.6165H239.392V34.7805H243.582C246.296 34.7805 248.323 34.1313 249.66 32.8329C250.998 31.5346 251.667 29.7837 251.667 27.5805C251.667 25.4165 250.998 23.7247 249.66 22.5051C248.323 21.246 246.355 20.6165 243.759 20.6165Z" fill="white"/>
<path d="M275.372 37.4952L274.841 39.2067H286.054L285.523 37.4362C284.185 33.187 283.083 29.6264 282.218 26.7542C281.391 23.8428 280.88 22.0133 280.683 21.2657L280.447 20.0854C280.093 22.0526 278.401 27.8559 275.372 37.4952ZM270.06 54.3149H262.27L275.726 14.5378H285.345L298.801 54.3149H290.775L287.942 45.2854H272.893L270.06 54.3149Z" fill="white"/>
<defs>
<clipPath id="clip0">
<rect width="78.6885" height="68.8525" fill="white"/>
</clipPath>
</defs>
</svg>
