<svg width="512" height="95" viewBox="0 0 512 95" fill="none" xmlns="http://www.w3.org/2000/svg">
<path d="M42.3831 77.162C44.4031 77.162 46.3201 76.982 48.1241 76.58C49.9541 76.177 51.5781 75.545 52.9481 74.606C54.3181 73.706 55.4511 72.47 56.2781 70.895C57.1041 69.337 57.4991 67.315 57.4991 64.867C57.4991 60.076 56.1511 56.672 53.4701 54.606C50.7831 52.569 47.2001 51.556 42.7931 51.556H20.5331V77.162H42.3831ZM41.2531 37.579C44.8791 37.579 47.8811 36.718 50.2611 34.969C52.6161 33.254 53.7601 30.411 53.7601 26.513C53.7601 24.353 53.3791 22.562 52.6161 21.174C51.8291 19.786 50.7831 18.699 49.4631 17.94C48.1531 17.149 46.6731 16.601 44.9531 16.308C43.2691 15.976 41.5001 15.849 39.6891 15.849H20.5331V37.579H41.2531ZM43.9011 0.0100332C48.3471 0.0100332 52.3611 0.395033 56.0311 1.19003C59.6781 1.96303 62.7921 3.25503 65.4231 5.02803C68.0151 6.79703 70.0421 9.15203 71.4931 12.118C72.9091 15.042 73.6231 18.7 73.6231 23.029C73.6231 27.711 72.5591 31.62 70.4331 34.745C68.2931 37.866 65.1481 40.426 60.9461 42.415C66.6691 44.06 70.9061 46.959 73.7171 51.076C76.5421 55.221 77.9231 60.186 77.9231 66.002C77.9231 70.719 77.0191 74.776 75.2181 78.191C73.3961 81.648 70.9181 84.451 67.8631 86.612C64.7831 88.794 61.2461 90.394 57.2841 91.436C53.3179 92.4832 49.2321 93.0089 45.1301 93H0.0600586V0.0090332H43.9011V0.0100332Z" fill="white"/>
<path d="M128.36 41.4781C126.16 39.0451 122.439 37.7281 117.898 37.7281C114.942 37.7281 112.495 38.2261 110.539 39.2391C108.625 40.2391 107.054 41.4851 105.857 42.9501C104.663 44.4401 103.847 46.0111 103.375 47.6921C102.901 49.3311 102.619 50.8171 102.531 52.1311H132.622C132.181 47.4131 130.567 43.9281 128.36 41.4781ZM107.11 76.8521C109.879 79.5561 113.883 80.9191 119.07 80.9191C122.799 80.9191 126.023 79.9761 128.727 78.0941C131.407 76.2191 133.039 74.2101 133.671 72.1271H149.956C147.339 80.2311 143.367 86.0181 137.946 89.5001C132.594 92.9991 126.061 94.7431 118.452 94.7431C113.148 94.7431 108.375 93.8821 104.092 92.1931C99.8081 90.4811 96.2281 88.0801 93.2161 84.9521C90.2811 81.8091 88.0041 78.0941 86.3801 73.7341C84.7731 69.3941 83.9601 64.5881 83.9601 59.3801C83.9601 54.3451 84.8051 49.6411 86.4471 45.2951C88.1271 40.9341 90.4471 37.1701 93.4981 34.0131C96.5601 30.8391 100.186 28.3351 104.409 26.5061C108.636 24.6801 113.293 23.7661 118.452 23.7661C124.148 23.7661 129.137 24.8611 133.413 27.0961C137.675 29.2961 141.167 32.2791 143.914 36.0161C146.658 39.7471 148.611 44.0131 149.832 48.7941C151.04 53.5711 151.467 58.5611 151.118 63.7871H102.53C102.53 69.1081 104.33 74.1471 107.11 76.8521Z" fill="white"/>
<path d="M177.385 0.0100332V35.072H177.809C180.157 31.171 183.127 28.335 186.778 26.577C190.422 24.804 193.978 23.928 197.441 23.928C202.381 23.928 206.428 24.578 209.588 25.916C212.752 27.279 215.255 29.123 217.088 31.52C218.885 33.907 220.156 36.82 220.902 40.252C221.632 43.677 222.01 47.456 222.01 51.622V93H203.426V54.98C203.426 49.437 202.561 45.27 200.838 42.544C199.112 39.814 196.047 38.444 191.626 38.444C186.626 38.444 183.01 39.959 180.771 42.95C178.491 45.94 177.385 50.863 177.385 57.713V93H158.808V0.0090332H177.385" fill="white"/>
<path d="M271.614 61.721C270.464 62.102 269.188 62.424 267.874 62.703C266.468 62.9643 265.054 63.181 263.634 63.353C262.161 63.5242 260.692 63.7373 259.231 63.992C257.847 64.263 256.463 64.602 255.145 65.044C253.804 65.482 252.628 66.064 251.66 66.799C250.661 67.5431 249.838 68.4976 249.249 69.595C248.655 70.718 248.338 72.176 248.338 73.9C248.338 75.545 248.655 76.933 249.248 78.073C249.86 79.203 250.658 80.086 251.706 80.739C252.751 81.392 253.976 81.851 255.34 82.106C256.724 82.381 258.154 82.484 259.62 82.484C263.256 82.484 266.06 81.88 268.058 80.669C270.046 79.45 271.544 77.996 272.479 76.301C273.433 74.606 274.009 72.897 274.195 71.174C274.439 69.44 274.549 68.042 274.549 66.993V60.076C273.747 60.786 272.804 61.333 271.614 61.721ZM235.213 35.521C237.063 32.6829 239.549 30.3144 242.473 28.603C245.425 26.853 248.723 25.62 252.43 24.882C256.095 24.1323 259.826 23.7584 263.567 23.766C266.939 23.766 270.35 23.999 273.864 24.479C277.32 24.956 280.481 25.892 283.348 27.286C286.212 28.688 288.546 30.606 290.353 33.109C292.186 35.549 293.115 38.854 293.115 42.95V78.041C293.115 81.092 293.298 83.991 293.623 86.767C293.99 89.567 294.94 91.667 295.837 93.045L276.947 92.999C276.392 92.194 275.933 90.933 275.717 89.835C275.496 88.7417 275.344 87.6355 275.262 86.523C272.32 89.567 268.871 91.707 264.852 92.928C260.889 94.1323 256.77 94.7439 252.628 94.743C249.428 94.743 246.448 94.337 243.659 93.553C240.912 92.769 238.472 91.555 236.392 89.913C234.302 88.239 232.695 86.163 231.522 83.649C230.358 81.121 229.757 78.112 229.757 74.638C229.757 70.803 230.446 67.646 231.805 65.174C233.129 62.703 234.849 60.714 237 59.242C239.115 57.759 241.544 56.643 244.295 55.916C247.007 55.1781 249.757 54.5876 252.533 54.147C255.319 53.72 258.03 53.374 260.739 53.105C263.454 52.84 265.806 52.463 267.907 51.933C269.979 51.417 271.639 50.633 272.857 49.641C274.054 48.646 274.63 47.198 274.549 45.27C274.549 43.278 274.195 41.69 273.556 40.503C272.952 39.3844 272.064 38.4444 270.982 37.777C269.892 37.12 268.662 36.69 267.246 36.46C265.725 36.2415 264.189 36.1328 262.652 36.135C259.033 36.135 256.169 36.94 254.139 38.487C252.052 40.079 250.852 42.699 250.481 46.357H231.929C232.197 41.99 233.271 38.384 235.213 35.521Z" fill="white"/>
<path d="M320.851 25.687V35.072H321.264C323.605 31.171 326.624 28.335 330.374 26.577C334.092 24.804 337.944 23.928 341.85 23.928C346.811 23.928 350.882 24.578 354.029 25.916C357.231 27.279 359.721 29.123 361.525 31.52C363.375 33.907 364.646 36.82 365.388 40.252C366.136 43.677 366.508 47.456 366.508 51.622V93H347.916V54.98C347.916 49.437 347.044 45.27 345.31 42.544C343.552 39.814 340.519 38.064 336.066 38.064C331.034 38.064 327.369 39.959 325.116 42.95C322.85 45.94 321.726 50.863 321.726 57.713V93H303.337V25.687H320.851Z" fill="white"/>
<path d="M407.658 37.7281C404.685 37.7281 402.231 38.3841 400.257 39.7481C398.244 41.0929 396.562 42.877 395.338 44.9661C394.078 47.0881 393.205 49.4361 392.665 52.0071C392.16 54.5741 391.878 57.1171 391.878 59.6451C391.878 62.0881 392.16 64.5641 392.665 67.0921C393.205 69.6061 394.035 71.8761 395.208 73.9451C396.387 75.9634 398.02 77.6791 399.978 78.9561C401.966 80.2661 404.385 80.9191 407.255 80.9191C411.708 80.9191 415.119 79.6761 417.51 77.2151C419.89 74.7401 421.362 71.4141 421.983 67.2471H439.843C438.618 76.1771 435.143 82.9991 429.427 87.7021C423.689 92.3741 416.341 94.7431 407.393 94.7431C402.337 94.7431 397.743 93.8821 393.506 92.1931C389.276 90.4811 385.684 88.1231 382.726 85.0791C379.766 82.0281 377.471 78.4021 375.79 74.1861C374.148 69.9621 373.322 65.3261 373.322 60.2951C373.322 55.0831 374.088 50.2281 375.61 45.7401C377.125 41.2701 379.364 37.3961 382.347 34.1471C385.303 30.8771 388.919 28.3351 393.195 26.5061C397.453 24.6801 402.319 23.7661 407.782 23.7661C411.779 23.7661 415.617 24.3061 419.324 25.3161C423.004 26.3471 426.312 27.9401 429.214 30.0761C432.117 32.1868 434.543 34.8854 436.334 37.9961C438.138 41.1491 439.169 44.9271 439.454 49.2461H421.32C420.119 41.5621 415.564 37.7281 407.658 37.7281Z" fill="white"/>
<path d="M98.749 6.24805H136.443V15.426H98.749V6.24805Z" fill="white"/>
<path d="M489.13 41.4781C486.901 39.0451 483.151 37.7281 478.667 37.7281C475.715 37.7281 473.261 38.2261 471.27 39.2391C469.352 40.2391 467.6 41.4851 466.425 42.9501C465.249 44.4401 464.405 46.0111 463.915 47.6921C463.477 49.3311 463.169 50.8171 463.088 52.1311H493.406C492.911 47.4131 491.336 43.9281 489.129 41.4781H489.13ZM467.65 76.8521C470.43 79.5561 474.624 80.9191 479.85 80.9191C483.572 80.9191 486.788 79.9761 489.476 78.0941C492.163 76.2191 493.829 74.2101 494.423 72.1271H510.708C508.105 80.2311 504.108 86.0181 498.723 89.5001C493.349 92.9991 486.845 94.7431 479.207 94.7431C473.89 94.7431 469.097 93.8821 464.847 92.1931C460.57 90.4811 456.987 88.0801 453.989 84.9521C451.023 81.8091 448.749 78.0941 447.131 73.7341C445.525 69.3941 444.727 64.5881 444.727 59.3801C444.727 54.3451 445.553 49.6411 447.198 45.2951C448.865 40.9341 451.234 37.1701 454.268 34.0131C457.343 30.8391 460.938 28.3351 465.15 26.5061C469.38 24.6801 474.077 23.7661 479.207 23.7661C484.896 23.7661 489.907 24.8611 494.14 27.0961C498.413 29.2961 501.922 32.2791 504.648 36.0161C507.392 39.7471 509.366 44.0131 510.577 48.7941C511.77 53.5711 512.23 58.5611 511.887 63.7871H463.088C463.088 69.1081 464.864 74.1471 467.65 76.8521Z" fill="white"/>
</svg>
