<svg width="512" height="127" viewBox="0 0 512 127" fill="none" xmlns="http://www.w3.org/2000/svg">
<g clip-path="url(#clip0)">
<path d="M156.434 50.8219C162.294 50.8219 167.044 46.0699 167.044 40.2089C167.044 34.3469 162.294 29.5959 156.434 29.5959C150.574 29.5959 145.824 34.3469 145.824 40.2089C145.824 46.0699 150.574 50.8219 156.434 50.8219ZM506.594 87.0829C504.98 85.9479 503.734 85.7599 502.7 87.9639C484.88 126.56 454.85 107.3 457.833 108.995C464.494 105.948 482.013 91.8979 479.365 72.4979C477.757 60.6419 467.581 55.3829 456.78 57.2659C437.926 60.5529 430.99 80.8889 434.521 98.8929C435.139 101.985 436.243 104.535 437.346 107.033C416.04 124.359 407.579 91.5229 406.619 87.5989C406.581 87.3889 423.07 73.6449 427.656 40.8939C432.463 6.56891 421.513 0.31891 410.316 0.51391C389.596 0.87491 383.997 44.1659 391.519 80.2459C390.889 80.4099 387.957 82.0339 383.246 82.2159C379.856 71.5489 365.371 62.1989 361.58 65.8019C352.092 74.8149 363.881 92.4359 372.176 93.8179C367.193 124.509 336.03 116.908 341.831 78.4569C351.979 59.6119 359.697 31.5909 358.32 14.6749C357.832 8.68591 353.404 0.66191 343.39 1.05991C324.129 1.82191 322.035 45.1249 324.293 75.8589C324.181 75.1019 323.109 79.5929 315.216 81.8259C313.349 71.4629 296.663 61.0609 292.735 66.0619C285.382 75.4219 298.125 92.1109 304.161 93.2749C299.178 123.965 268.016 116.364 273.817 77.9129C283.965 59.0689 291.682 31.0479 290.305 14.1319C289.817 8.14191 285.39 0.11791 275.375 0.51491C256.114 1.27791 254.02 44.5809 256.278 75.3149C256.165 74.5459 255.068 79.1849 246.853 81.3809C246.578 67.9359 229.831 61.7709 225.808 66.0609C218.638 73.7079 227.45 89.3979 235.602 93.2749C230.619 123.965 199.457 116.364 205.258 77.9129C215.406 59.0689 223.124 31.0479 221.746 14.1319C221.259 8.14191 216.831 0.11791 206.816 0.51491C187.556 1.27791 186.006 46.7579 188.264 77.4909C181.92 104.672 160.645 138.616 163.409 70.6189C163.682 65.8489 163.98 64.0379 161.602 62.2519C159.82 60.8639 155.768 61.5319 153.553 61.5869C150.861 61.6949 150.186 63.2699 149.591 65.6509C148.205 71.7989 147.956 77.7589 147.758 85.8909C147.628 89.6949 147.323 91.4699 145.858 96.6569C144.395 101.843 136.048 111.322 131.478 109.737C125.138 107.557 127.218 89.6589 128.406 77.3619C129.396 67.6439 126.226 63.2799 118.104 61.6929C113.349 60.7019 110.46 60.8539 105.508 59.2929C100.825 57.8169 99.766 48.9589 89.778 51.9109C84.315 53.5269 87.827 65.1019 86.514 73.6809C80.059 115.882 66.628 117.041 60.397 96.5409C88.46 27.8099 68.515 0.71391 56.84 0.71391C44.68 0.71391 30.78 9.08991 36.666 62.6819C33.804 61.8469 32.924 61.3969 29.791 61.3969C12.072 61.3969 0 75.7209 0 93.3909C0 111.061 12.073 125.386 29.792 125.386C40.252 125.386 47.596 120.629 53.158 113.27C56.787 118.467 61.206 125.466 69.287 125.151C93.374 124.213 100.379 74.8039 101.206 72.0479C103.781 72.4449 106.217 73.1959 108.595 73.5929C112.557 74.1879 112.845 75.7559 112.755 79.7409C111.705 113.345 117.906 125.111 131.972 125.111C139.809 125.111 146.794 117.411 151.606 111.905C155.2 119.323 160.927 124.884 168.61 125.11C187.227 125.573 194.355 95.8999 193.705 99.8049C193.195 102.869 199.745 124.943 218.911 125.023C242.652 125.123 247.065 99.0149 247.591 94.6419C247.657 93.7719 247.686 93.8619 247.591 94.6419L247.573 94.9069C255.11 93.5049 258.999 89.4639 258.999 89.4639C258.999 89.4639 265.051 125.429 287.469 125.024C310.749 124.602 315.139 101.002 315.715 96.3999C315.791 95.3079 315.836 95.4359 315.715 96.3999C315.712 96.4449 315.709 96.4899 315.706 96.5349C324.659 93.2779 327.014 90.0089 327.014 90.0089C327.014 90.0089 331.824 125.259 355.484 125.567C376.568 125.843 384.382 104.252 384.428 95.2149C387.984 95.2529 394.562 93.1049 394.408 92.9829C394.408 92.9829 402.131 123.803 423.698 125.386C433.824 126.129 441.42 119.688 445.75 116.75C455.926 124.991 489.811 135.517 511.207 99.2419C514.227 94.0359 507.734 87.8859 506.594 87.0829ZM28.937 113.42C18.599 113.42 11.97 103.861 11.97 93.5539C11.97 83.2479 18.055 73.6889 28.393 73.6889C33.045 73.6889 35.633 74.2009 39.256 77.3519C39.913 79.9409 41.775 85.9129 42.681 88.6249C43.895 92.2539 45.339 95.3429 46.795 98.7049C44.715 107.328 37.896 113.42 28.937 113.42ZM54.129 77.6549C53.699 76.9699 53.789 77.3909 53.308 76.7439C51.413 71.5889 47.761 60.0829 47.338 47.0139C46.86 32.2299 49.324 14.9009 56.588 14.9009C61.51 14.9009 66.741 50.0209 54.128 77.6549H54.129ZM199.69 62.2509C198.524 53.4779 198.463 14.3679 207.852 15.4449C213.036 17.5449 204.565 54.4499 199.69 62.2509ZM268.249 62.2509C267.083 53.4779 267.022 14.3679 276.411 15.4449C281.595 17.5449 273.124 54.4499 268.249 62.2509ZM336.264 62.7959C335.097 54.0219 335.037 14.9119 344.425 15.9889C349.609 18.0889 341.138 54.9949 336.264 62.7959ZM411.352 13.1559C419.936 12.2659 419.582 49.7519 402.352 73.4179C400.13 64.8639 396.723 16.0929 411.352 13.1549V13.1559ZM447.432 93.8179C444.675 79.8909 451.799 70.7439 459.143 69.7409C461.71 69.3309 465.43 70.9939 466.172 74.1029C467.392 79.9619 465.995 88.6529 449.558 99.6799C449.582 99.7739 448.047 96.9199 447.433 93.8179H447.432Z" fill="white"/>
</g>
<defs>
<clipPath id="clip0">
<rect width="512" height="126" fill="white" transform="translate(0 0.5)"/>
</clipPath>
</defs>
</svg>
