<svg width="512" height="147" viewBox="0 0 512 147" fill="none" xmlns="http://www.w3.org/2000/svg">
<g clip-path="url(#clip0)">
<path d="M27.127 1.40199C16.68 5.77799 5.19698 18.125 1.56998 33.635C-3.02402 53.28 16.09 61.59 17.659 58.869C19.504 55.668 14.234 54.586 13.149 44.392C11.747 31.226 17.868 16.515 25.572 10.06C27.002 8.85999 26.935 10.53 26.935 13.617C26.935 19.138 26.63 68.702 26.63 79.046C26.63 93.042 26.052 97.462 25.013 101.83C23.962 106.255 22.27 109.246 23.551 110.398C24.983 111.686 31.097 108.621 34.636 103.682C38.88 97.758 40.366 90.642 40.633 82.917C40.955 73.603 40.941 58.823 40.955 50.393C40.967 42.662 41.085 20.023 40.819 6.41299C40.754 3.07299 31.496 -0.429009 27.127 1.40199Z" fill="white"/>
<path d="M398.07 66.905C397.733 74.182 396.122 79.869 394.123 83.881C390.253 91.648 382.223 94.059 378.813 82.895C376.955 76.809 376.868 66.645 378.203 58.152C379.563 49.501 383.361 42.967 389.648 43.556C395.85 44.139 398.753 52.13 398.07 66.906V66.905ZM293.52 112.051C293.436 124.141 291.533 134.741 287.453 137.821C281.665 142.187 273.886 138.911 275.497 130.089C276.922 122.282 283.663 114.309 293.537 104.567C293.537 104.567 293.557 106.789 293.52 112.051ZM291.94 66.834C291.586 73.462 289.868 80.119 287.993 83.881C284.123 91.648 276.035 94.076 272.683 82.895C270.391 75.255 270.94 65.369 272.073 59.139C273.545 51.056 277.113 43.557 283.518 43.557C289.746 43.557 292.818 50.39 291.94 66.834ZM231.375 66.734C230.995 73.752 229.626 79.619 227.429 83.881C223.453 91.595 215.587 94.041 212.119 82.895C209.618 74.858 210.469 63.9 211.509 57.98C213.053 49.195 216.919 42.967 222.954 43.557C229.153 44.163 232.166 52.13 231.375 66.734ZM508.928 74.932C507.413 74.932 506.721 76.494 506.148 79.122C504.165 88.266 502.078 90.329 499.389 90.329C496.384 90.329 493.684 85.803 492.989 76.741C492.444 69.615 492.532 56.497 493.229 43.448C493.372 40.767 492.632 38.114 485.441 35.502C482.347 34.378 477.849 32.723 475.609 38.129C469.282 53.403 466.806 65.529 466.223 70.453C466.193 70.708 465.88 70.761 465.826 70.165C465.454 66.22 464.625 59.05 464.521 43.988C464.501 41.049 463.879 38.548 460.635 36.5C458.53 35.17 452.139 32.82 449.838 35.617C447.844 37.903 445.534 44.057 443.135 51.353C441.185 57.283 439.827 61.293 439.827 61.293C439.827 61.293 439.853 45.295 439.876 39.226C439.886 36.937 438.316 36.174 437.842 36.036C435.712 35.418 431.512 34.385 429.73 34.385C427.53 34.385 426.992 35.613 426.992 37.405C426.992 37.64 426.645 58.468 426.645 73.032C426.645 73.665 426.645 74.355 426.648 75.089C425.432 81.783 421.487 90.869 417.197 90.869C412.901 90.869 410.875 87.071 410.875 69.708C410.875 59.579 411.179 55.174 411.328 47.848C411.415 43.628 411.583 40.388 411.573 39.653C411.541 37.398 407.643 36.261 405.828 35.841C404.005 35.418 402.421 35.253 401.184 35.324C399.433 35.424 398.194 36.571 398.194 38.151C398.194 38.999 398.204 40.609 398.204 40.609C395.949 37.065 392.322 34.599 389.909 33.884C383.409 31.954 376.627 33.664 371.511 40.823C367.445 46.51 364.994 52.953 364.029 62.208C363.324 68.975 363.554 75.836 364.808 81.639C363.293 88.187 360.482 90.869 357.403 90.869C352.933 90.869 349.693 83.575 350.069 70.957C350.317 62.658 351.978 56.834 353.793 48.408C354.567 44.816 353.938 42.936 352.361 41.134C350.914 39.481 347.831 38.636 343.401 39.674C340.245 40.415 335.732 41.212 331.603 41.824C331.603 41.824 331.853 40.829 332.057 39.077C333.131 29.887 323.144 30.632 319.957 33.567C318.056 35.32 316.761 37.387 316.27 41.103C315.49 47.001 320.3 49.783 320.3 49.783C318.723 57.007 314.854 66.443 310.86 73.266C308.721 76.921 307.085 79.63 304.972 82.509C304.903 70.9552 304.978 59.401 305.198 47.849C305.285 43.629 305.454 40.475 305.445 39.739C305.421 38.091 304.458 37.467 302.455 36.679C300.683 35.981 298.589 35.499 296.416 35.329C293.674 35.117 292.022 36.57 292.066 38.29C292.074 38.615 292.074 40.609 292.074 40.609C289.819 37.065 286.192 34.599 283.779 33.884C277.279 31.954 270.497 33.664 265.381 40.823C261.316 46.51 258.654 54.492 257.899 62.138C257.197 69.263 257.326 75.318 258.284 80.42C257.251 85.528 254.279 90.87 250.92 90.87C246.624 90.87 244.18 87.071 244.18 69.708C244.18 59.579 244.484 55.174 244.634 47.848C244.721 43.629 244.888 40.388 244.879 39.653C244.847 37.398 240.948 36.262 239.133 35.841C237.235 35.401 235.596 35.241 234.337 35.334C232.677 35.457 231.509 36.944 231.509 38.053V40.609C229.254 37.065 225.627 34.599 223.214 33.884C216.714 31.954 209.97 33.692 204.816 40.823C201.456 45.472 198.735 50.626 197.335 62.036C196.93 65.333 196.751 68.422 196.775 71.307C195.435 79.503 189.515 88.949 184.674 88.949C181.841 88.949 179.142 83.453 179.142 71.742C179.142 56.142 180.108 33.93 180.272 31.79C180.272 31.79 186.389 31.686 187.573 31.672C190.625 31.638 193.388 31.711 197.453 31.502C199.491 31.399 201.455 24.082 199.351 23.177C198.397 22.767 191.658 22.409 188.986 22.352C186.74 22.302 180.486 21.838 180.486 21.838C180.486 21.838 181.047 7.09502 181.178 5.53802C181.288 4.23902 179.608 3.57102 178.646 3.16602C176.304 2.17602 174.209 1.70102 171.726 1.18902C168.294 0.48102 166.738 1.17402 166.434 4.06902C165.976 8.46402 165.739 21.337 165.739 21.337C163.221 21.337 154.619 20.845 152.101 20.845C149.761 20.845 147.235 30.909 150.471 31.033C154.193 31.177 160.68 31.303 164.98 31.431C164.98 31.431 164.788 54.009 164.788 60.981C164.788 61.721 164.792 62.436 164.796 63.129C162.429 75.464 154.093 82.128 154.093 82.128C155.883 73.967 152.226 67.838 145.639 62.65C143.212 60.739 138.421 57.12 133.061 53.154C133.061 53.154 136.165 50.094 138.919 43.938C140.869 39.576 140.954 34.587 136.165 33.486C128.253 31.666 121.73 37.477 119.784 43.681C118.276 48.487 119.08 52.052 122.034 55.756C122.249 56.027 122.484 56.304 122.724 56.582C120.939 60.024 118.485 64.659 116.407 68.253C110.639 78.233 106.282 86.125 102.989 86.125C100.357 86.125 100.392 78.111 100.392 70.608C100.392 64.14 100.87 54.415 101.252 44.348C101.378 41.018 99.712 39.121 96.922 37.403C95.226 36.359 91.607 34.307 89.511 34.307C86.373 34.307 77.321 34.734 68.769 59.474C67.691 62.592 65.573 68.274 65.573 68.274L65.756 38.523C65.756 37.825 65.384 37.151 64.533 36.69C63.092 35.907 59.243 34.307 55.82 34.307C54.19 34.307 53.375 35.065 53.375 36.577L53.077 83.123C53.077 86.66 53.169 90.786 53.519 92.59C53.867 94.396 54.432 95.866 55.13 96.74C55.829 97.613 56.636 98.28 57.967 98.554C59.206 98.809 65.99 99.68 66.343 97.088C66.765 93.98 66.782 90.62 70.344 78.086C75.89 58.572 83.12 49.052 86.52 45.67C87.115 45.08 87.793 45.044 87.76 46.011C87.616 50.289 87.105 60.981 86.762 70.061C85.841 94.366 90.262 98.871 96.581 98.871C101.415 98.871 108.229 94.068 115.533 81.91C119.603 75.1346 123.654 68.3479 127.686 61.55C129.899 63.599 132.384 65.804 134.866 68.16C140.636 73.636 142.53 78.84 141.273 83.776C140.313 87.549 136.692 91.438 130.249 87.659C128.371 86.556 127.569 85.703 125.681 84.46C124.667 83.793 123.118 83.593 122.189 84.293C119.777 86.111 118.397 88.425 117.609 91.289C116.843 94.076 119.634 95.549 122.528 96.838C125.019 97.947 130.374 98.952 133.788 99.066C147.093 99.511 157.752 92.642 165.172 74.923C166.5 90.226 172.152 98.885 181.973 98.885C188.539 98.885 195.122 90.398 198.001 82.049C198.827 85.452 200.051 88.412 201.631 90.915C209.198 102.905 223.878 100.325 231.252 90.143C233.532 86.997 233.879 85.867 233.879 85.867C234.955 95.48 242.697 98.839 247.129 98.839C252.094 98.839 257.219 96.492 260.812 88.404C261.233 89.282 261.693 90.121 262.195 90.915C269.762 102.905 284.443 100.325 291.817 90.143C292.165 89.665 292.467 89.233 292.73 88.843L292.946 95.158L286.157 101.385C274.777 111.815 266.133 119.725 265.497 128.938C264.687 140.685 274.209 145.051 281.423 145.623C289.07 146.23 295.631 142.002 299.657 136.085C303.201 130.876 305.521 119.666 305.35 108.595C305.283 104.161 305.17 98.524 305.083 92.481C309.078 87.842 313.579 81.978 317.723 75.116C322.239 67.637 327.079 57.593 329.557 49.776C329.557 49.776 333.762 49.813 338.25 49.519C339.685 49.425 340.098 49.719 339.832 50.77C339.512 52.042 334.162 72.675 339.045 86.42C342.386 95.83 349.919 98.856 354.385 98.856C359.614 98.856 364.615 94.908 367.295 89.046C367.619 89.699 367.956 90.331 368.325 90.916C375.892 102.906 390.521 100.309 397.947 90.143C399.623 87.849 400.574 85.867 400.574 85.867C402.167 95.817 409.905 98.89 414.337 98.89C418.953 98.89 423.335 96.997 426.889 88.586C427.039 92.29 427.272 95.318 427.641 96.272C427.866 96.857 429.178 97.589 430.132 97.943C434.356 99.509 438.662 98.769 440.256 98.447C441.36 98.223 442.221 97.337 442.339 95.051C442.649 89.046 442.459 78.957 444.279 71.458C447.334 58.875 450.185 53.994 451.537 51.578C452.294 50.223 453.147 50 453.178 51.433C453.242 54.333 453.386 62.846 454.57 74.286C455.44 82.698 456.6 87.671 457.493 89.246C460.041 93.746 463.186 93.959 465.748 93.959C467.378 93.959 470.786 93.509 470.481 90.645C470.332 89.249 470.592 80.621 473.605 68.224C475.572 60.128 478.852 52.814 480.035 50.139C480.472 49.153 480.675 49.93 480.667 50.082C480.418 55.657 479.859 73.893 482.13 83.867C485.21 97.378 494.116 98.89 497.22 98.89C503.846 98.89 509.265 93.85 511.09 80.588C511.53 77.396 510.879 74.932 508.928 74.932Z" fill="white"/>
</g>
<defs>
<clipPath id="clip0">
<rect width="512" height="146" fill="white" transform="translate(0 0.5)"/>
</clipPath>
</defs>
</svg>
