<svg width="24" height="24" viewBox="0 0 24 24" fill="none" xmlns="http://www.w3.org/2000/svg">
<path d="M13.5463 3.643C13.4294 3.5261 13.2743 3.4618 13.1093 3.4618C12.9501 3.4618 12.7979 3.5217 12.6808 3.6306L12 4.2635L11.3192 3.6306C11.2021 3.5217 11.0499 3.4618 10.8906 3.4618C10.7256 3.4617 10.5705 3.5261 10.4537 3.6429C10.2173 3.8793 10.2113 4.2586 10.4401 4.5065L11.9998 6.0718L13.5863 4.4789C13.7885 4.2586 13.7826 3.8793 13.5463 3.643Z" fill="#FF577F"/>
<path d="M4.66861 14.9307C4.56741 14.9847 4.46141 15.0285 4.34991 15.0628V20.5383H6.84001C6.88001 20.2683 6.89001 19.9983 6.89001 19.7183C6.89001 17.8331 6.05511 16.1121 4.66861 14.9307Z" fill="#FF577F"/>
<path d="M4.6364 13.3329C4.6364 12.8817 4.2693 12.5147 3.8182 12.5147C3.367 12.5147 3 12.8817 3 13.3329C3 13.784 3.367 14.151 3.8182 14.151C4.2693 14.151 4.6364 13.784 4.6364 13.3329Z" fill="white"/>
<path d="M4.52448 11.6572C4.65598 11.7127 4.77628 11.7873 4.88988 11.8708C7.99568 11.7877 10.5389 9.4517 10.9449 6.4295L10.3804 5.8627C7.48277 6.4956 5.19178 8.7693 4.52448 11.6572Z" fill="#FF577F"/>
<path d="M20.1818 12.5147C19.7307 12.5147 19.3637 12.8817 19.3637 13.3329C19.3637 13.784 19.7307 14.151 20.1818 14.151C20.633 14.151 21 13.784 21 13.3329C21 12.8817 20.633 12.5147 20.1818 12.5147Z" fill="white"/>
<path d="M17.09 19.6982C17.09 19.9682 17.11 20.2482 17.15 20.5182H19.64V15.0596C19.5246 15.0234 19.4151 14.9769 19.3109 14.9195C17.923 16.087 17.09 17.8157 17.09 19.6982Z" fill="#FF577F"/>
<path d="M19.4633 11.6635C19.1534 10.2632 18.4572 8.9661 17.4149 7.9333C16.3609 6.8793 15.0451 6.1774 13.6107 5.8715L13.0644 6.42C13.4561 9.4444 16.0039 11.7917 19.1104 11.8706C19.2203 11.7898 19.3366 11.7181 19.4633 11.6635Z" fill="#FF577F"/>
<path d="M20.4623 11.543C20.1201 9.9171 19.325 8.4138 18.1249 7.2232C17.0796 6.1779 15.7923 5.451 14.4013 5.0438C14.8719 4.4078 14.8296 3.5122 14.2532 2.9359C13.9369 2.6195 13.5232 2.4618 13.1092 2.4618C12.711 2.4618 12.3125 2.6076 11.9999 2.8983C11.6873 2.6077 11.2887 2.4619 10.8905 2.4618C10.4764 2.4618 10.0628 2.6195 9.7464 2.9359C9.1717 3.5106 9.1282 4.4027 9.5944 5.0384C6.5681 5.9256 4.2099 8.4202 3.5325 11.5435C2.665 11.6813 2 12.4266 2 13.3329C2 14.1741 2.5743 14.875 3.35 15.0825V21.5382H7.66C7.81 20.9582 7.89 20.3482 7.89 19.7182C7.89 17.532 6.9127 15.5734 5.3828 14.2444C5.5398 13.9755 5.6363 13.6667 5.6363 13.3328C5.6363 13.1559 5.6032 12.9884 5.556 12.8267C8.631 12.4779 11.1078 10.2316 11.792 7.2799L11.9998 7.4886L12.2011 7.2865C12.891 10.2377 15.3743 12.4755 18.4455 12.8215C18.3974 12.9847 18.3636 13.154 18.3636 13.3328C18.3636 13.6563 18.4552 13.9557 18.6032 14.2188C17.0679 15.5455 16.0899 17.5016 16.0899 19.6981C16.0899 20.3281 16.1699 20.9281 16.3299 21.5181H20.6399V15.0855C21.4208 14.8815 21.9999 14.1777 21.9999 13.3328C22 12.4248 21.3323 11.6787 20.4623 11.543ZM3 13.3329C3 12.8817 3.367 12.5147 3.8182 12.5147C4.2693 12.5147 4.6364 12.8817 4.6364 13.3329C4.6364 13.784 4.2693 14.151 3.8182 14.151C3.367 14.151 3 13.784 3 13.3329ZM6.89 19.7182C6.89 19.9982 6.88 20.2682 6.84 20.5382H4.35V15.0627C4.4615 15.0284 4.5675 14.9846 4.6687 14.9306C6.0551 16.1121 6.89 17.8331 6.89 19.7182ZM4.8899 11.8707C4.7763 11.7873 4.6561 11.7127 4.5245 11.6571C5.1917 8.7693 7.4828 6.4955 10.3803 5.8626L10.9448 6.4294C10.5389 9.4517 7.9957 11.7876 4.8899 11.8707ZM11.9997 6.0718L10.44 4.5065C10.2112 4.2586 10.2172 3.8793 10.4536 3.6429C10.5704 3.5261 10.7255 3.4617 10.8905 3.4618C11.0497 3.4618 11.202 3.5217 11.3191 3.6306L11.9999 4.2635L12.6807 3.6306C12.7978 3.5217 12.95 3.4618 13.1092 3.4618C13.2741 3.4618 13.4293 3.5261 13.5462 3.643C13.7825 3.8793 13.7884 4.2586 13.5861 4.4789L11.9997 6.0718ZM13.0644 6.4199L13.6107 5.8714C15.0451 6.1773 16.3609 6.8792 17.4149 7.9332C18.4572 8.966 19.1534 10.2632 19.4633 11.6634C19.3366 11.718 19.2203 11.7897 19.1104 11.8704C16.0038 11.7916 13.4561 9.4443 13.0644 6.4199ZM19.64 20.5182H17.15C17.11 20.2482 17.09 19.9682 17.09 19.6982C17.09 17.8158 17.9229 16.087 19.3109 14.9196C19.4151 14.977 19.5246 15.0235 19.64 15.0597V20.5182ZM20.1818 14.151C19.7307 14.151 19.3637 13.784 19.3637 13.3329C19.3637 12.8817 19.7307 12.5147 20.1818 12.5147C20.633 12.5147 21 12.8817 21 13.3329C21 13.784 20.633 14.151 20.1818 14.151Z" fill="#111D5E"/>
</svg>
