<svg width="24" height="24" viewBox="0 0 24 24" fill="none" xmlns="http://www.w3.org/2000/svg">
<path d="M11.06 11.95C11.06 12.2099 10.84 12.42 10.58 12.42C10.32 12.42 10.11 12.21 10.11 11.95C10.11 11.68 10.32 11.47 10.58 11.47C10.84 11.47 11.06 11.68 11.06 11.95Z" fill="#111D5E"/>
<path d="M13.9 11.95C13.9 12.2099 13.69 12.42 13.43 12.42C13.16 12.42 12.95 12.21 12.95 11.95C12.95 11.68 13.16 11.47 13.43 11.47C13.69 11.47 13.9 11.68 13.9 11.95Z" fill="#111D5E"/>
<path d="M11.92 21C11.67 20.13 10.87 19.5 9.92999 19.5C8.98999 19.5 8.18999 20.13 7.93999 21C7.88999 21.18 7.85999 21.37 7.85999 21.57C7.85999 21.72 7.87999 21.86 7.89999 22H11.96C11.98 21.86 12 21.72 12 21.57C12 21.37 11.97 21.18 11.92 21ZM9.02998 21C9.21988 20.7 9.54999 20.5 9.92999 20.5C10.31 20.5 10.64 20.7 10.83 21H9.02998Z" fill="#111D5E"/>
<path d="M16.06 21C15.81 20.13 15.01 19.5 14.07 19.5C13.13 19.5 12.33 20.13 12.08 21C12.03 21.18 12 21.37 12 21.57C12 21.72 12.02 21.86 12.04 22H16.1C16.12 21.86 16.14 21.72 16.14 21.57C16.14 21.37 16.11 21.18 16.06 21ZM13.17 21C13.36 20.7 13.69 20.5 14.07 20.5C14.45 20.5 14.78 20.7 14.97 21H13.17Z" fill="#111D5E"/>
<path d="M13.42 16.83V15.69C14.57 15.23 15.42 14.23 15.7 13.01C15.86 13.37 15.99 13.95 15.77 14.76C15.56 15.59 15.66 17.35 17.53 18.12L17.91 17.2C16.41 16.5799 16.7 15.16 16.74 15.01C17.12 13.61 16.69 12.66 16.38 12.19C17.29 12.08 18 11.31 18 10.38C18 9.5 17.38 8.76 16.56 8.58C16.38 7.99 16.11 7.43 15.74 6.9501C15.75 6.9501 15.75 6.9501 15.75 6.9401C15.84 6.6101 15.89 6.2601 15.89 5.8901C15.89 3.74 14.15 2 12 2C9.85 2 8.11 3.74 8.11 5.89C8.11 6.26 8.16 6.61 8.25 6.94C8.25 6.95 8.25 6.95 8.26 6.95C7.89 7.43 7.62 7.99 7.44 8.58C6.62 8.76 6 9.5 6 10.38C6 11.31 6.7 12.07 7.6 12.19C7.29 12.66 6.86 13.61 7.24 15C7.28 15.16 7.57 16.58 6.07 17.2L6.45 18.12C8.32 17.35 8.42 15.59 8.21 14.75C7.98 13.92 8.13 13.33 8.3 12.97C8.57 14.21 9.43 15.24 10.59 15.7V16.82C8.16 17.41 6.3 19.47 6.03 22H17.97C17.82 20.6 17.18 19.34 16.24 18.4C15.47 17.64 14.51 17.09 13.42 16.83ZM16.8 9.83C16.92 9.98 17 10.17 17 10.38C17 10.58 16.92 10.78 16.8 10.92V9.83ZM7.2 10.92C7.08 10.78 7 10.58 7 10.38C7 10.17 7.08 9.98 7.2 9.83V10.92ZM12 3C13.59 3 14.89 4.3 14.89 5.89C14.89 5.95 14.89 6.01 14.88 6.07C14.88 6.0799 14.88 6.0799 14.88 6.09C14.78 6.01 14.68 5.93 14.57 5.86L12 3.28L9.43 5.86C9.32 5.93 9.22 6.01 9.12 6.09C9.12 6.08 9.12 6.08 9.12 6.07C9.11 6.01 9.11 5.95 9.11 5.89C9.11 4.3 10.41 3 12 3ZM12.45 5.14C12.3 5.12 12.15 5.09 12 5.09C11.85 5.09 11.7 5.12 11.55 5.14L12 4.69L12.45 5.14ZM8.25 10.28C8.25 10.28 8.25 9.67 8.26 9.61C8.38 7.65 10.01 6.09 12 6.09C13.99 6.09 15.62 7.65 15.74 9.61C15.75 9.67 15.75 10.29 15.75 10.29H14.95C12.99 10.13 12.04 9.42 11.62 8.88V8.87H10.26V8.88C10.11 9.98 9.47 10.22 9.22 10.28H8.25ZM9.2 12.17V11.29C9.75 11.25 10.64 10.87 11.06 9.76C11.69 10.42 12.82 11.11 14.8 11.29V12.17C14.8 13.27 14.17 14.22 13.25 14.67C12.87 14.86 12.45 14.97 12 14.97C11.55 14.97 11.13 14.86 10.75 14.67C9.83 14.22 9.2 13.27 9.2 12.17ZM7.27 21C7.83 19.42 9.15 18.19 10.82 17.79L11.59 17.6V15.95C11.73 15.9599 11.86 15.97 12 15.97C12.14 15.97 12.28 15.96 12.42 15.95V17.61L13.19 17.8C14.08 18.02 14.89 18.47 15.54 19.11C16.07 19.65 16.48 20.29 16.73 21H7.27Z" fill="#111D5E"/>
<path d="M14.97 21H13.17C13.36 20.7 13.69 20.5 14.07 20.5C14.45 20.5 14.78 20.7 14.97 21Z" fill="#FF577F"/>
<path d="M10.83 21H9.03003C9.21993 20.7 9.55003 20.5 9.93003 20.5C10.31 20.5 10.64 20.7 10.83 21Z" fill="#FF577F"/>
<path d="M16.73 21H16.06C15.81 20.13 15.01 19.5 14.07 19.5C13.13 19.5 12.33 20.13 12.08 21H11.92C11.67 20.13 10.87 19.5 9.93002 19.5C8.99002 19.5 8.19002 20.13 7.94002 21H7.27002C7.83002 19.42 9.15002 18.19 10.82 17.79L11.59 17.6V15.95C11.73 15.9599 11.86 15.97 12 15.97C12.14 15.97 12.28 15.96 12.42 15.95V17.61L13.19 17.8C14.08 18.02 14.89 18.47 15.54 19.11C16.07 19.65 16.48 20.29 16.73 21Z" fill="white"/>
<path d="M17 10.38C17 10.58 16.92 10.78 16.8 10.92V9.83C16.92 9.98 17 10.17 17 10.38Z" fill="white"/>
<path d="M7 10.38C7 10.17 7.08 9.98 7.2 9.83V10.92C7.08 10.78 7 10.58 7 10.38Z" fill="white"/>
<path d="M11.06 9.75999C10.64 10.87 9.75001 11.25 9.20001 11.29V12.17C9.20001 13.27 9.83001 14.22 10.75 14.67C11.13 14.86 11.55 14.97 12 14.97C12.45 14.97 12.87 14.86 13.25 14.67C14.17 14.22 14.8 13.27 14.8 12.17V11.29C12.82 11.11 11.69 10.42 11.06 9.75999ZM10.58 12.42C10.32 12.42 10.11 12.21 10.11 11.95C10.11 11.68 10.32 11.47 10.58 11.47C10.84 11.47 11.06 11.68 11.06 11.95C11.06 12.21 10.84 12.42 10.58 12.42ZM13.43 12.42C13.16 12.42 12.95 12.21 12.95 11.95C12.95 11.68 13.16 11.47 13.43 11.47C13.69 11.47 13.9 11.68 13.9 11.95C13.9 12.21 13.69 12.42 13.43 12.42Z" fill="white"/>
<path d="M15.75 10.29H14.95C12.99 10.13 12.04 9.42 11.62 8.88V8.87H10.26V8.88C10.11 9.98 9.47 10.22 9.22 10.28H8.25C8.25 10.28 8.25 9.67 8.26 9.61C8.38 7.65 10.01 6.09 12 6.09C13.99 6.09 15.62 7.65 15.74 9.61C15.75 9.67 15.75 10.29 15.75 10.29Z" fill="#FF577F"/>
<path d="M12.45 5.14C12.3 5.12 12.15 5.09 12 5.09C11.85 5.09 11.7 5.12 11.55 5.14L12 4.69L12.45 5.14Z" fill="white"/>
<path d="M14.89 5.89C14.89 5.95 14.89 6.01 14.88 6.07C14.88 6.0799 14.88 6.0799 14.88 6.09C14.78 6.01 14.68 5.93 14.57 5.86L12 3.28L9.42999 5.86C9.31999 5.93 9.21999 6.01 9.11999 6.09C9.11999 6.08 9.11999 6.08 9.11999 6.07C9.10999 6.01 9.10999 5.95 9.10999 5.89C9.10999 4.3 10.41 3 12 3C13.59 3 14.89 4.3 14.89 5.89Z" fill="#FF577F"/>
</svg>
