<svg width="24" height="24" viewBox="0 0 24 24" fill="none" xmlns="http://www.w3.org/2000/svg">
<path d="M6.57928 13.6752C6.34018 13.6752 6.11178 13.7652 5.93608 13.9285L5.25518 14.5614L4.57438 13.9285C4.39868 13.7652 4.17018 13.6752 3.93108 13.6752C3.68248 13.6752 3.44868 13.7721 3.27278 13.948C2.91688 14.3039 2.90738 14.8744 3.25108 15.247L5.25508 17.2583L7.28578 15.2195C7.60308 14.8745 7.59368 14.304 7.23778 13.9482C7.06168 13.7722 6.82788 13.6752 6.57928 13.6752Z" fill="white"/>
<path d="M14.9683 13.8983L13.3526 12.2826L15.6356 12.1919C16.0491 12.1755 16.3415 12.0714 16.505 11.8823C16.733 11.6188 16.7426 11.1776 16.727 11.0299L16.6109 9.92539L17.72 9.91189C17.8872 9.90549 18.5005 9.82719 18.6813 9.09499C18.7913 8.64959 18.4419 8.32379 18.4017 8.28809L17.608 7.58359L18.3424 6.81939C18.9201 6.24169 18.9791 5.68509 18.8653 5.24419L13.2968 10.8127L12.5897 11.5198L11.8825 10.8127L9.54658 8.47659L9.45668 8.40629C9.29358 8.27329 9.08838 8.19999 8.87868 8.19999C8.64118 8.19999 8.41788 8.29249 8.24978 8.46059C7.96858 8.74179 7.90948 9.18479 8.10608 9.53789L8.47318 10.1975L7.99548 10.6752H9.04098L9.65488 10.6753L9.93268 11.2227C10.6367 12.6099 10.666 13.7261 10.667 13.8488C10.6671 17.923 13.3515 18.5301 14.9517 18.5301C15.1086 18.5301 15.2086 18.5224 15.2283 18.5206L15.696 18.477L16.0329 18.8087C16.2228 18.9987 16.508 19.2252 16.7875 19.2252C17.1455 19.2252 17.4595 18.8755 17.4625 18.8721L18.1661 18.0629L18.9348 18.8088C19.3018 19.1758 19.6647 19.3542 20.0441 19.3542C20.1604 19.3542 20.2735 19.338 20.3814 19.3112L14.9683 13.8983Z" fill="#FF577F"/>
<path d="M15.6754 13.1912C18.0066 13.0986 17.7201 10.912 17.7201 10.912C17.7201 10.912 19.2628 10.9119 19.6523 9.3349C19.922 8.2424 19.0496 7.5266 19.0496 7.5266C20.9899 5.5863 19.0496 3.646 19.0496 3.646L12.5898 10.1058L10.2403 7.756C10.2395 7.7552 10.239 7.7542 10.2382 7.7534C10.2374 7.7525 10.2364 7.7521 10.2356 7.7513L10.1023 7.618L10.0889 7.6314C9.73698 7.3445 9.30748 7.2 8.87878 7.2C8.39528 7.2 7.91258 7.3836 7.54268 7.7535C6.92668 8.3695 6.82858 9.299 7.23218 10.0242L5.58118 11.6753H9.04088C9.65898 12.8932 9.66698 13.8572 9.66698 13.8572C9.66698 19.1176 13.6896 19.5302 14.9516 19.5302C15.1864 19.5302 15.3256 19.5159 15.3256 19.5159C15.8576 20.0479 16.3575 20.2253 16.7873 20.2253C17.6472 20.2253 18.2275 19.5159 18.2275 19.5159C18.8562 20.1446 19.485 20.3542 20.0438 20.3542C21.1616 20.3542 21.9999 19.5159 21.9999 19.5159L15.6754 13.1912ZM18.9346 18.8087L18.1659 18.0628L17.4623 18.872C17.4592 18.8755 17.1452 19.2251 16.7873 19.2251C16.5078 19.2251 16.2227 18.9986 16.0327 18.8086L15.6958 18.4769L15.2281 18.5205C15.2084 18.5223 15.1085 18.53 14.9515 18.53C13.3513 18.53 10.6669 17.9229 10.6668 13.8487C10.6658 13.726 10.6365 12.6098 9.93248 11.2226L9.65468 10.6752H9.04098H7.99538L8.47308 10.1975L8.10608 9.5379C7.90948 9.1848 7.96858 8.7418 8.24978 8.4606C8.41788 8.2925 8.64118 8.2 8.87868 8.2C9.08838 8.2 9.29358 8.2733 9.45668 8.4063L9.54658 8.4766L11.8827 10.8127L12.5899 11.5198L13.297 10.8127L18.8655 5.2442C18.9792 5.6851 18.9202 6.2417 18.3426 6.8194L17.6082 7.5836L18.4019 8.2881C18.4421 8.3238 18.7915 8.6496 18.6815 9.095C18.5007 9.8272 17.8874 9.9055 17.7202 9.9119L16.6111 9.9254L16.7272 11.0299C16.7428 11.1777 16.7331 11.6188 16.5052 11.8823C16.3417 12.0713 16.0492 12.1755 15.6358 12.1919L13.3528 12.2826L14.9685 13.8983L20.3813 19.3111C20.2735 19.3379 20.1603 19.3541 20.044 19.3541C19.6645 19.3541 19.3016 19.1757 18.9346 18.8087Z" fill="#111D5E"/>
<path d="M6.57927 12.6752C6.10397 12.6752 5.62837 12.8492 5.25517 13.1961C4.88207 12.8493 4.40637 12.6752 3.93107 12.6752C3.43687 12.6751 2.94317 12.8633 2.56557 13.241C1.82647 13.98 1.81377 15.1639 2.51617 15.9251L5.25517 18.6752L7.99427 15.9251C8.69667 15.1639 8.68397 13.98 7.94477 13.241C7.56717 12.8634 7.07337 12.6752 6.57927 12.6752ZM7.28567 15.2195L5.25497 17.2583L3.25097 15.247C2.90717 14.8744 2.91677 14.3039 3.27267 13.948C3.44867 13.772 3.68237 13.6752 3.93097 13.6752C4.17007 13.6752 4.39857 13.7652 4.57427 13.9285L5.25507 14.5614L5.93597 13.9285C6.11167 13.7652 6.34017 13.6752 6.57917 13.6752C6.82777 13.6752 7.06157 13.7721 7.23757 13.9481C7.59357 14.304 7.60297 14.8745 7.28567 15.2195Z" fill="#111D5E"/>
</svg>
