<svg width="24" height="24" viewBox="0 0 24 24" fill="none" xmlns="http://www.w3.org/2000/svg">
<path d="M10.23 7.94H3.96997V10.3928H10.23V7.94Z" fill="#FF577F"/>
<path d="M12.77 11.46H11.23V21H12.77V11.46Z" fill="white"/>
<path d="M10.23 11.46H3.9657V21H10.23V11.46Z" fill="#FF577F"/>
<path d="M11.23 8.7177V10.3929H12.77V8.7177C12.5338 8.8203 12.274 8.8788 12 8.8788C11.726 8.8788 11.4662 8.8203 11.23 8.7177Z" fill="white"/>
<path d="M20.0343 11.46H13.77V21H20.0343V11.46Z" fill="#FF577F"/>
<path d="M12 7.8788C12.5169 7.8788 12.9359 7.45979 12.9359 6.9429C12.9359 6.42602 12.5169 6.007 12 6.007C11.4831 6.007 11.0641 6.42602 11.0641 6.9429C11.0641 7.45979 11.4831 7.8788 12 7.8788Z" fill="#FF577F"/>
<path d="M20.03 7.94H13.77V10.3928H20.03V7.94Z" fill="#FF577F"/>
<path d="M21.03 6.94H17.8C19.7 6.3 21.27 5.27 21.01 3.64C20.85 2.68 20.14 2 19.03 2C17.6845 2 15.7436 3.0222 13.5185 5.7554C13.1642 5.303 12.6193 5.007 12 5.007C11.3808 5.007 10.8359 5.303 10.4814 5.7554C8.2563 3.0222 6.3155 2 4.97 2C3.86 2 3.15 2.68 2.99 3.64C2.73 5.27 4.3 6.3 6.2 6.94H2.97L2.9657 22H10.23H13.77H21.0343L21.03 6.94ZM4.24 4.7C4.01 4.41 3.93 4.14 3.98 3.8C4.04 3.44 4.26 3 4.97 3C6.06 3 7.89 4.03 10.03 6.78C7.74 6.46 5.12 5.78 4.24 4.7ZM10.23 21H3.9657V11.46H10.23V21ZM10.23 10.3928H3.97V7.94H10.23V10.3928ZM12.77 21H11.23V11.46H12.77V21ZM12.77 10.3928H11.23V8.7177C11.4662 8.8204 11.726 8.8788 12 8.8788C12.274 8.8788 12.5338 8.8203 12.77 8.7177V10.3928ZM12 7.8788C11.4839 7.8788 11.0641 7.4589 11.0641 6.9429C11.0641 6.4268 11.484 6.007 12 6.007C12.516 6.007 12.9359 6.4268 12.9359 6.9429C12.9359 7.4589 12.5161 7.8788 12 7.8788ZM19.03 3C19.74 3 19.96 3.44 20.02 3.8C20.07 4.14 19.99 4.41 19.76 4.7C18.88 5.78 16.26 6.4599 13.97 6.78C16.11 4.03 17.94 3 19.03 3ZM13.77 7.94H20.03V10.3928H13.77V7.94ZM20.0343 21H13.77V11.46H20.0343V21Z" fill="#111D5E"/>
</svg>
