<svg width="24" height="24" viewBox="0 0 24 24" fill="none" xmlns="http://www.w3.org/2000/svg">
<path d="M10.0702 5.89H11.0702H11.1002C11.2902 6.35 12.1502 7.98 15.4902 8.25C15.8002 8.28 16.1302 8.29 16.4902 8.29V7.49C16.4902 5.01 14.4802 3 12.0002 3C9.52019 3 7.51019 5.01 7.51019 7.49V8.25H7.52019H8.51019C8.85019 8.19 10.0702 7.98 10.0702 5.89Z" fill="#FF577F"/>
<path d="M15.0202 18.07V16.8L13.0602 17.43L15.0202 18.07Z" fill="#FF577F"/>
<path d="M15.4902 10.38V9.25C12.9502 9.06 11.5902 8.15 10.8602 7.34C10.2902 9.21 8.61019 9.24 8.51019 9.24V10.38C8.51019 12.3 10.0702 13.87 12.0002 13.87C13.9302 13.87 15.4902 12.3 15.4902 10.38ZM13.6883 9.5452C13.9984 9.5452 14.2498 9.7965 14.2498 10.1067C14.2498 10.4169 13.9985 10.6682 13.6883 10.6682C13.3781 10.6682 13.1268 10.4169 13.1268 10.1067C13.1268 9.7965 13.3782 9.5452 13.6883 9.5452ZM10.3231 10.6681C10.013 10.6681 9.76159 10.4168 9.76159 10.1066C9.76159 9.7964 10.013 9.5451 10.3231 9.5451C10.6332 9.5451 10.8846 9.7964 10.8846 10.1066C10.8846 10.4168 10.6331 10.6681 10.3231 10.6681Z" fill="white"/>
<path d="M5.90283 8.2483C5.90283 8.6899 6.14823 9.07531 6.50983 9.27521V7.22141C6.14823 7.42131 5.90283 7.8067 5.90283 8.2483Z" fill="white"/>
<path d="M11.3302 15.75H12.6802V14.8011C12.3885 14.8756 11.6724 14.8907 11.3302 14.8021V15.75Z" fill="white"/>
<path d="M18.0972 8.2498C18.0972 7.8082 17.8518 7.4228 17.4902 7.2229V9.2767C17.8518 9.0767 18.0972 8.6913 18.0972 8.2498Z" fill="white"/>
<path d="M10.8802 18.5L7.98022 19.44V18.19C7.13022 18.93 6.49022 19.9 6.16022 21H11.5002V19.12H10.8802V18.5Z" fill="#FF577F"/>
<path d="M16.0202 18.19V19.44L13.1202 18.5V19.12H12.5002V21H17.8402C17.5502 20.05 17.0302 19.17 16.3102 18.45C16.2202 18.36 16.1202 18.27 16.0202 18.19Z" fill="#FF577F"/>
<path d="M12.1202 16.75H11.8802V18.12H12.1202V16.75Z" fill="#FF577F"/>
<path d="M8.98022 16.8V18.07L10.9402 17.43L8.98022 16.8Z" fill="#FF577F"/>
<path d="M10.3231 9.5452C10.013 9.5452 9.7616 9.7965 9.7616 10.1067C9.7616 10.4169 10.013 10.6682 10.3231 10.6682C10.6332 10.6682 10.8846 10.4169 10.8846 10.1067C10.8846 9.7965 10.6331 9.5452 10.3231 9.5452Z" fill="#111D5E"/>
<path d="M13.6883 10.6681C13.9984 10.6681 14.2498 10.4167 14.2498 10.1066C14.2498 9.7965 13.9984 9.5451 13.6883 9.5451C13.3782 9.5451 13.1268 9.7965 13.1268 10.1066C13.1268 10.4167 13.3782 10.6681 13.6883 10.6681Z" fill="#111D5E"/>
<path d="M16.0202 16.93V15.43L14.1902 16.02C14.0302 15.97 13.8502 15.92 13.6802 15.88V14.5369C15.3138 13.8739 16.4693 12.2812 16.487 10.4223H16.9247C18.1239 10.4223 19.0972 9.449 19.0972 8.2498C19.0972 7.1824 18.3247 6.2986 17.3096 6.1162C16.6982 3.7513 14.555 2 12.0002 2C9.44601 2 7.30321 3.7505 6.69121 6.1146C5.67571 6.2967 4.90271 7.1806 4.90271 8.2483C4.90271 9.4475 5.87601 10.4208 7.07521 10.4208H7.51331C7.53041 12.284 8.69101 13.8792 10.3301 14.54V15.87C10.1501 15.91 9.97011 15.96 9.80011 16.02L7.98011 15.43V16.93C6.31011 18.06 5.16011 19.89 4.94011 22H19.0601C18.8801 20.34 18.1301 18.86 17.0201 17.74C16.7102 17.44 16.3802 17.17 16.0202 16.93ZM17.4902 7.2228C17.8518 7.4228 18.0972 7.8081 18.0972 8.2497C18.0972 8.6913 17.8518 9.0767 17.4902 9.2766V7.2228ZM6.50981 9.2751C6.14821 9.0752 5.90281 8.6898 5.90281 8.2482C5.90281 7.8066 6.14821 7.4212 6.50981 7.2213V9.2751ZM15.0202 16.8V18.07L13.0602 17.43L15.0202 16.8ZM7.51021 8.25V7.49C7.51021 5.01 9.52021 3 12.0002 3C14.4802 3 16.4902 5.01 16.4902 7.49V8.29C16.1302 8.29 15.8002 8.28 15.4902 8.25C12.1502 7.98 11.2902 6.35 11.1002 5.89H11.0702H10.0702C10.0702 7.98 8.85021 8.19 8.51021 8.25H7.52021H7.51021ZM8.51021 10.38V9.24C8.61021 9.24 10.2902 9.21 10.8602 7.34C11.5902 8.15 12.9502 9.06 15.4902 9.25V10.38C15.4902 12.3 13.9302 13.87 12.0002 13.87C10.0702 13.87 8.51021 12.3 8.51021 10.38ZM12.6802 14.8011V15.75H11.3302V14.8022C11.6725 14.8907 12.3885 14.8756 12.6802 14.8011ZM8.98021 16.8L10.9402 17.43L8.98021 18.07V16.8ZM11.5002 21H6.16021C6.49021 19.9 7.13021 18.93 7.98021 18.19V19.44L10.8802 18.5V19.12H11.5002V21ZM12.1202 18.12H11.8802V16.75H12.1202V18.12ZM12.5002 21V19.12H13.1202V18.5L16.0202 19.44V18.19C16.1202 18.27 16.2202 18.36 16.3102 18.45C17.0302 19.17 17.5502 20.05 17.8402 21H12.5002Z" fill="#111D5E"/>
</svg>
