<svg width="24" height="24" viewBox="0 0 24 24" fill="none" xmlns="http://www.w3.org/2000/svg">
<path d="M20.7292 12.5463C20.5557 12.3728 20.3253 12.2773 20.0802 12.2773C19.8456 12.2773 19.621 12.3653 19.4479 12.525L17.4535 14.5121L19.4755 16.5261C19.621 16.6593 19.8456 16.7474 20.0802 16.7474C20.3253 16.7474 20.5558 16.6518 20.7292 16.4785C21.0817 16.126 21.0902 15.5619 20.7485 15.1944L20.1145 14.5125L20.7485 13.8306C21.0901 13.4628 21.0817 12.8988 20.7292 12.5463Z" fill="white"/>
<path d="M12.517 16.0145H11.5154V15.0129H10.5857V17.517H9.58389V14.0113H13.018V11.7479H3.00159V19.761H13.018V15.013H12.517V16.0145ZM8.51059 17.5343H7.50899V13.9747H8.51059V17.5343Z" fill="#FF577F"/>
<path d="M8.51057 13.9747H7.50897V17.5343H8.51057V13.9747Z" fill="#111D5E"/>
<path d="M21.4374 11.838C21.0621 11.4627 20.5713 11.2757 20.0801 11.2757C19.6097 11.2757 19.1389 11.4472 18.7685 11.7889L16.5371 14.0112H14.0196V10.7462H5.0086V9.7462C5.0086 8.0834 6.3508 6.7413 8.0135 6.7413C8.8048 6.7413 9.5661 7.0518 10.127 7.6128C10.6979 8.1937 11.0185 8.945 11.0185 9.7463H12.02C12.02 8.6444 11.5693 7.6428 10.8481 6.9116C10.1169 6.1905 9.1153 5.7397 8.0135 5.7397C5.7999 5.7397 4.007 7.5326 4.007 9.7462V10.7462H2V20.7626H14.0197V15.0129H16.5367L18.7686 17.2359C19.1389 17.5776 19.6098 17.7491 20.0802 17.7491C20.5715 17.7491 21.0621 17.5621 21.4375 17.1867C22.1741 16.4501 22.1856 15.2692 21.4821 14.5124C22.1855 13.7556 22.1741 12.5746 21.4374 11.838ZM13.018 19.7609H3.0016V11.7478H13.018V14.0112H9.5839V17.5169H10.5855V15.0128H11.5152V16.0144H12.5168V15.0128H13.0178V19.7609H13.018ZM20.7484 15.1943C21.0901 15.5619 21.0817 16.1259 20.7291 16.4784C20.5557 16.6517 20.3252 16.7473 20.0801 16.7473C19.8455 16.7473 19.6209 16.6593 19.4754 16.526L17.4534 14.512L19.4478 12.5249C19.6209 12.3651 19.8455 12.2772 20.0801 12.2772C20.3252 12.2772 20.5557 12.3727 20.7291 12.5462C21.0816 12.8987 21.09 13.4628 20.7483 13.8304L20.1143 14.5123L20.7484 15.1943Z" fill="#111D5E"/>
<path d="M16.7511 5.17216L14.1763 7.74693L14.8845 8.45509L17.4593 5.88032L16.7511 5.17216Z" fill="#111D5E"/>
<path d="M19.3944 9.4566H15.7527V10.4582H19.3944V9.4566Z" fill="#111D5E"/>
<path d="M13.1748 3.2375H12.1732V6.8792H13.1748V3.2375Z" fill="#111D5E"/>
</svg>
