<svg width="24" height="24" viewBox="0 0 24 24" fill="none" xmlns="http://www.w3.org/2000/svg">
<path d="M5.66619 10.2252L5.56149 9.3385L4.21759 10.6824L5.10439 10.7871L5.66619 10.2252Z" fill="#FF577F"/>
<path d="M12.9966 12.1132C12.5595 12.7914 12.2988 13.5939 12.2988 14.459C12.2988 15.3241 12.5595 16.1265 12.9966 16.8048C13.9102 15.3798 13.9102 13.5382 12.9966 12.1132Z" fill="#FF577F"/>
<path d="M4.73142 8.2767L3.15582 9.8524L3.28602 10.214L5.09312 8.4069L4.73142 8.2767Z" fill="#FF577F"/>
<path d="M16.6494 9.1084C15.2312 9.1084 13.9506 9.66999 12.9931 10.5706C11.9649 9.60429 10.6551 9.1084 9.3381 9.1084C8.3982 9.1084 7.4657 9.3731 6.6307 9.8654L6.3879 7.8102L4.4731 7.1209L2 9.59389L2.6894 11.5088L4.7446 11.7515C3.5351 13.803 3.7928 16.4804 5.5547 18.2424C6.5994 19.2871 7.9688 19.8095 9.3381 19.8095C10.6551 19.8095 11.9649 19.3136 12.9931 18.3473C13.9506 19.2479 15.2312 19.8095 16.6494 19.8095C19.6045 19.8096 22 17.414 22 14.459C22 11.5039 19.6045 9.1084 16.6494 9.1084ZM12.9966 16.8047C12.5595 16.1265 12.2988 15.324 12.2988 14.4589C12.2988 13.5938 12.5595 12.7914 12.9966 12.1131C13.9102 13.5382 13.9102 15.3798 12.9966 16.8047ZM3.1558 9.8524L4.7314 8.2768L5.093 8.40699L3.286 10.214L3.1558 9.8524ZM4.2176 10.6824L5.5615 9.3385L5.6662 10.2252L5.1044 10.7871L4.2176 10.6824ZM6.2618 17.5353C4.5655 15.839 4.5655 13.0789 6.2618 11.3827C7.0835 10.561 8.176 10.1085 9.3381 10.1085C10.4658 10.1085 11.5232 10.542 12.3359 11.3182C11.691 12.202 11.2989 13.2813 11.2989 14.4591C11.2989 15.6369 11.6911 16.7162 12.3359 17.6C11.5231 18.3761 10.4658 18.8097 9.3381 18.8097C8.176 18.8096 7.0835 18.357 6.2618 17.5353ZM16.6494 18.8096C15.4849 18.8096 14.4313 18.3436 13.6496 17.5959C15.0118 15.7264 15.0118 13.1916 13.6496 11.3221C14.4312 10.5744 15.4849 10.1084 16.6494 10.1084C19.0483 10.1084 21 12.0601 21 14.459C21 16.8579 19.0483 18.8096 16.6494 18.8096Z" fill="#111D5E"/>
<path d="M17.1494 4.1904H16.1494V7.8261H17.1494V4.1904Z" fill="#111D5E"/>
<path d="M21.0399 5.34992L18.4694 7.92044L19.1765 8.62747L21.747 6.05695L21.0399 5.34992Z" fill="#111D5E"/>
<path d="M12.2589 5.35034L11.5518 6.05727L14.122 8.62815L14.8291 7.92122L12.2589 5.35034Z" fill="#111D5E"/>
</svg>
