<svg width="24" height="24" viewBox="0 0 24 24" fill="none" xmlns="http://www.w3.org/2000/svg">
<path d="M5.5 6.75C5.7757 6.75 6 6.5257 6 6.25V5.25C6 4.9743 5.7757 4.75 5.5 4.75C5.2243 4.75 5 4.9743 5 5.25V6.25C5 6.5257 5.2243 6.75 5.5 6.75Z" fill="white"/>
<path d="M11.21 16.52L11.898 15.8259L11.6559 15.5829C11.0548 14.9314 11.0656 13.9183 11.6982 13.2858C12.0214 12.9626 12.4439 12.8016 12.8668 12.8016C13.2735 12.8016 13.6807 12.9506 14 13.2474C14.0546 13.1967 14.1232 13.1753 14.1824 13.1332C14.2404 12.7222 14.134 12.2881 13.8098 11.9701C13.5498 11.7101 13.2098 11.5601 12.8398 11.5601C12.4898 11.5601 12.1498 11.7001 11.8898 11.9401L11.2098 12.5701L10.5298 11.9401C10.2698 11.7001 9.9398 11.5601 9.5898 11.5601C9.2197 11.5601 8.8798 11.7101 8.6198 11.9701C8.0898 12.4901 8.0798 13.3301 8.5798 13.8801L11.21 16.52Z" fill="#FF577F"/>
<path d="M13.3193 13.9797C13.1956 13.8648 13.035 13.8015 12.8668 13.8015C12.6926 13.8015 12.5287 13.8694 12.4054 13.9928C12.1557 14.2424 12.1494 14.643 12.3909 14.9047L13.9999 16.5195L15.6357 14.8771C15.8508 14.643 15.8444 14.2424 15.5949 13.9928C15.4715 13.8694 15.3076 13.8015 15.1334 13.8015C14.9653 13.8015 14.8047 13.8648 14.6811 13.9797L14.0002 14.6126L13.3193 13.9797Z" fill="white"/>
<path d="M18.5 6.75C18.7757 6.75 19 6.5257 19 6.25V5.25C19 4.9743 18.7757 4.75 18.5 4.75C18.2243 4.75 18 4.9743 18 5.25V6.25C18 6.5257 18.2243 6.75 18.5 6.75Z" fill="white"/>
<path d="M12 6.75C12.2757 6.75 12.5 6.5257 12.5 6.25V5.25C12.5 4.9743 12.2757 4.75 12 4.75C11.7243 4.75 11.5 4.9743 11.5 5.25V6.25C11.5 6.5257 11.7243 6.75 12 6.75Z" fill="white"/>
<path d="M20 6.25C20 7.0784 19.3284 7.75 18.5 7.75C17.6716 7.75 17 7.0784 17 6.25H13.5C13.5 7.0784 12.8284 7.75 12 7.75C11.1716 7.75 10.5 7.0784 10.5 6.25H7C7 7.0784 6.3284 7.75 5.5 7.75C4.6716 7.75 4 7.0784 4 6.25H3V8.25H21V6.25H20Z" fill="#FF577F"/>
<path d="M3 19.25H21V9.25H3V19.25ZM7.91 11.26C8.37 10.79 8.98 10.56 9.5901 10.56C10.1701 10.56 10.7601 10.78 11.2101 11.2C11.6701 10.78 12.2601 10.56 12.8401 10.56C13.4501 10.56 14.0601 10.79 14.5201 11.26C14.9498 11.6897 15.1795 12.2445 15.2071 12.8086C15.605 12.8263 15.9977 12.9814 16.302 13.2857C16.9346 13.9182 16.9455 14.9313 16.3444 15.5828L14.0002 17.9364L12.6098 16.5403L11.21 17.94L7.85 14.56C6.99 13.62 7 12.17 7.91 11.26Z" fill="#FF577F"/>
<path d="M20 5.25C20 4.4216 19.3284 3.75 18.5 3.75C17.6716 3.75 17 4.4216 17 5.25H13.5C13.5 4.4216 12.8284 3.75 12 3.75C11.1716 3.75 10.5 4.4216 10.5 5.25H7C7 4.4216 6.3284 3.75 5.5 3.75C4.6716 3.75 4 4.4216 4 5.25H2V8.25V9.25V20.25H22V9.25V8.25V5.25H20ZM18 5.25C18 4.9743 18.2243 4.75 18.5 4.75C18.7757 4.75 19 4.9743 19 5.25V6.25C19 6.5257 18.7757 6.75 18.5 6.75C18.2243 6.75 18 6.5257 18 6.25V5.25ZM11.5 5.25C11.5 4.9743 11.7243 4.75 12 4.75C12.2757 4.75 12.5 4.9743 12.5 5.25V6.25C12.5 6.5257 12.2757 6.75 12 6.75C11.7243 6.75 11.5 6.5257 11.5 6.25V5.25ZM5 5.25C5 4.9743 5.2243 4.75 5.5 4.75C5.7757 4.75 6 4.9743 6 5.25V6.25C6 6.5257 5.7757 6.75 5.5 6.75C5.2243 6.75 5 6.5257 5 6.25V5.25ZM21 19.25H3V9.25H21V19.25ZM3 8.25V6.25H4C4 7.0784 4.6716 7.75 5.5 7.75C6.3284 7.75 7 7.0784 7 6.25H10.5C10.5 7.0784 11.1716 7.75 12 7.75C12.8284 7.75 13.5 7.0784 13.5 6.25H17C17 7.0784 17.6716 7.75 18.5 7.75C19.3284 7.75 20 7.0784 20 6.25H21V8.25H3Z" fill="#111D5E"/>
<path d="M11.21 17.94L12.6097 16.5403L14.0001 17.9364L16.3443 15.5828C16.9454 14.9313 16.9345 13.9182 16.3019 13.2857C15.9976 12.9814 15.6049 12.8263 15.207 12.8086C15.1794 12.2445 14.9497 11.6897 14.52 11.26C14.06 10.79 13.45 10.56 12.84 10.56C12.26 10.56 11.67 10.78 11.21 11.2C10.76 10.78 10.17 10.56 9.58999 10.56C8.97999 10.56 8.36999 10.79 7.90989 11.26C6.99989 12.17 6.98989 13.62 7.84989 14.56L11.21 17.94ZM14.681 13.9797C14.8046 13.8648 14.9652 13.8015 15.1333 13.8015C15.3076 13.8015 15.4714 13.8694 15.5948 13.9928C15.8444 14.2424 15.8507 14.6429 15.6356 14.8771L13.9998 16.5195L12.3908 14.9047C12.1493 14.643 12.1556 14.2424 12.4053 13.9928C12.5287 13.8694 12.6925 13.8015 12.8667 13.8015C13.0349 13.8015 13.1955 13.8648 13.3192 13.9797L14 14.6126L14.681 13.9797ZM8.61999 11.97C8.87999 11.71 9.21999 11.56 9.58999 11.56C9.93999 11.56 10.27 11.7 10.53 11.94L11.21 12.57L11.89 11.94C12.15 11.7 12.49 11.56 12.84 11.56C13.21 11.56 13.55 11.71 13.81 11.97C14.1342 12.2881 14.2405 12.7221 14.1826 13.1331C14.1234 13.1752 14.0548 13.1966 14.0002 13.2473C13.6809 12.9505 13.2737 12.8015 12.867 12.8015C12.4441 12.8015 12.0215 12.9625 11.6984 13.2857C11.0658 13.9182 11.055 14.9313 11.6561 15.5828L11.8982 15.8258L11.21 16.52L8.57999 13.88C8.07999 13.33 8.08999 12.49 8.61999 11.97Z" fill="#111D5E"/>
</svg>
